<svg xmlns="http://www.w3.org/2000/svg" xmlns:xlink="http://www.w3.org/1999/xlink" width="1080" zoomAndPan="magnify" viewBox="0 0 810 809.999993" height="1080" preserveAspectRatio="xMidYMid meet" version="1.0"><defs><clipPath id="7c59ce5d00"><path d="M 0 477 L 249 477 L 249 696.898438 L 0 696.898438 Z M 0 477 " clip-rule="nonzero"/></clipPath><clipPath id="a065b62d97"><path d="M 501 113.398438 L 635 113.398438 L 635 344 L 501 344 Z M 501 113.398438 " clip-rule="nonzero"/></clipPath></defs><g clip-path="url(#7c59ce5d00)"><path fill="#000000" d="M 206.714844 650.976562 C 205.066406 642.5625 203.34375 634.109375 201.617188 625.734375 C 193.335938 585.289062 184.75 543.441406 183.945312 501.273438 C 183.757812 491.902344 180.292969 484.5 174.183594 480.65625 C 167.699219 476.535156 158.871094 476.609375 149.332031 480.882812 L 143.089844 483.671875 C 132.414062 488.832031 121.425781 493.203125 110.125 496.792969 C 97.324219 500.539062 84.074219 503.632812 71.253906 506.667969 C 60.703125 509.160156 49.796875 511.75 39.113281 514.652344 C 38.214844 514.898438 37.300781 515.078125 36.375 515.191406 C 35.449219 515.304688 34.519531 515.351562 33.585938 515.332031 C 32.652344 515.308594 31.726562 515.21875 30.808594 515.0625 C 29.886719 514.90625 28.984375 514.6875 28.097656 514.398438 C 27.210938 514.113281 26.347656 513.761719 25.511719 513.347656 C 24.675781 512.9375 23.871094 512.464844 23.105469 511.9375 C 22.335938 511.40625 21.609375 510.828125 20.925781 510.191406 C 20.242188 509.558594 19.605469 508.875 19.023438 508.148438 C 17.785156 506.613281 16.472656 505.246094 14.824219 503.519531 L 11.917969 500.464844 L 6.503906 494.65625 L 4.308594 502.226562 C 3.804688 503.96875 3.28125 505.507812 2.773438 507.007812 C 1.601562 509.851562 0.863281 512.808594 0.5625 515.871094 C 0.421875 518.117188 0.558594 520.347656 0.972656 522.558594 C 1.386719 524.769531 2.066406 526.898438 3.011719 528.941406 C 3.957031 530.984375 5.136719 532.882812 6.550781 534.628906 C 7.964844 536.378906 9.574219 537.929688 11.375 539.277344 C 13.371094 540.746094 15.511719 541.953125 17.800781 542.902344 C 20.089844 543.847656 22.457031 544.503906 24.90625 544.875 C 27.355469 545.246094 29.8125 545.320312 32.277344 545.089844 C 34.746094 544.863281 37.148438 544.34375 39.488281 543.535156 C 69.175781 533.695312 99.273438 523.425781 128.378906 513.546875 L 154.335938 504.703125 C 155.515625 504.308594 157.652344 503.578125 158.984375 503.257812 C 159.339844 504.550781 159.714844 506.746094 159.917969 507.945312 C 163.40625 528.445312 166.917969 548.945312 170.453125 569.433594 C 175.289062 597.734375 180.109375 626.027344 184.921875 654.3125 C 187.449219 669.304688 190.300781 686.171875 207.410156 695.542969 L 208.421875 696.105469 C 211.128906 696.105469 213.816406 695.859375 216.480469 695.363281 C 219.140625 694.871094 221.738281 694.140625 224.265625 693.171875 C 226.792969 692.203125 229.214844 691.011719 231.523438 689.597656 C 233.835938 688.1875 236 686.578125 238.015625 684.769531 L 248.398438 675.398438 L 237.640625 674.761719 C 216.816406 673.410156 210.144531 668.3125 206.714844 650.976562 Z M 206.714844 650.976562 " fill-opacity="1" fill-rule="nonzero"/></g><path fill="#000000" d="M 689.71875 505.9375 C 682.054688 470.875 676.863281 444 672.851562 418.828125 C 669.796875 399.730469 668.632812 380.691406 667.507812 359.585938 C 666.964844 349 663.238281 340.847656 656.753906 336.273438 C 650.269531 331.699219 642.152344 330.78125 632.613281 333.425781 C 630.003906 334.21875 627.503906 335.273438 625.117188 336.59375 C 623.75 337.386719 622.34375 338.105469 620.898438 338.746094 C 617.152344 340.171875 613.402344 341.632812 609.65625 343.09375 C 598.410156 347.480469 586.734375 352.015625 575.132812 355.800781 C 569.042969 357.675781 562.652344 359.398438 556.390625 360.957031 C 547.632812 362.976562 539.027344 365.53125 530.585938 368.621094 C 522.582031 371.714844 516.25 380.148438 513.25 386.425781 C 511.113281 390.867188 514.113281 395.925781 516.53125 399.976562 C 517.109375 400.988281 517.746094 402.035156 517.992188 402.617188 L 520.257812 407.976562 L 524.871094 404.417969 C 526.519531 403.140625 527.960938 401.847656 529.253906 400.667969 C 530.972656 398.898438 532.941406 397.472656 535.160156 396.394531 C 554.03125 389.742188 573.316406 383.144531 591.945312 376.773438 C 606.058594 371.957031 620.636719 366.972656 634.957031 362.003906 C 636.039062 361.527344 637.167969 361.253906 638.347656 361.179688 C 638.839844 362.261719 639.140625 363.390625 639.246094 364.574219 C 644.609375 400.011719 650.210938 434.832031 655.925781 468.0625 C 659.675781 489.632812 664.023438 510.734375 668.222656 530.339844 C 668.546875 531.894531 669 533.414062 669.578125 534.898438 C 670.15625 536.378906 670.855469 537.800781 671.671875 539.167969 C 672.484375 540.535156 673.410156 541.820312 674.4375 543.035156 C 675.46875 544.246094 676.589844 545.363281 677.808594 546.390625 C 679.023438 547.414062 680.316406 548.332031 681.683594 549.144531 C 683.054688 549.953125 684.480469 550.648438 685.964844 551.21875 C 687.445312 551.792969 688.96875 552.238281 690.527344 552.558594 C 692.082031 552.878906 693.65625 553.070312 695.246094 553.128906 L 696.445312 553.128906 C 708.121094 553.128906 716.910156 546.792969 721.242188 535.175781 L 723.320312 529.550781 L 717.363281 529.082031 C 698.675781 527.601562 693.503906 523.273438 689.71875 505.9375 Z M 689.71875 505.9375 " fill-opacity="1" fill-rule="nonzero"/><path fill="#000000" d="M 509.183594 460.097656 C 480.902344 509.425781 439.390625 533.542969 385.921875 531.765625 C 338.769531 530.207031 294.3125 498.460938 282.507812 457.90625 C 282.066406 456.179688 281.453125 454.515625 280.675781 452.914062 C 279.898438 451.3125 278.96875 449.808594 277.886719 448.394531 C 276.804688 446.980469 275.59375 445.6875 274.25 444.519531 C 272.90625 443.351562 271.460938 442.328125 269.914062 441.449219 C 268.671875 440.789062 267.378906 440.257812 266.03125 439.863281 C 264.683594 439.464844 263.308594 439.207031 261.910156 439.09375 C 260.507812 438.976562 259.109375 439.003906 257.714844 439.171875 C 256.320312 439.34375 254.957031 439.652344 253.625 440.101562 C 238.886719 445.160156 224.574219 451.226562 210.691406 458.296875 C 209.761719 458.726562 208.890625 459.25 208.078125 459.871094 C 207.261719 460.488281 206.523438 461.1875 205.859375 461.964844 C 205.199219 462.742188 204.625 463.582031 204.144531 464.484375 C 203.664062 465.386719 203.285156 466.328125 203.007812 467.3125 C 202.75 468.316406 202.601562 469.335938 202.5625 470.375 C 202.523438 471.410156 202.59375 472.4375 202.773438 473.457031 C 202.949219 474.480469 203.234375 475.46875 203.625 476.429688 C 204.015625 477.390625 204.503906 478.300781 205.085938 479.15625 L 207.222656 482.34375 L 210.707031 480.75 C 212.152344 480.09375 213.558594 479.402344 214.964844 478.726562 C 217.789062 477.292969 220.683594 476.003906 223.640625 474.867188 C 227.613281 473.421875 231.738281 472.054688 235.726562 470.742188 C 241.519531 468.867188 247.496094 466.84375 253.308594 464.519531 C 256.117188 463.394531 257.054688 463.695312 257.054688 463.75 C 257.054688 463.808594 258.105469 464.445312 259.230469 467.726562 C 273.453125 508.957031 308.632812 540.589844 353.332031 552.210938 C 365.476562 555.378906 377.828125 556.972656 390.382812 556.988281 C 394.394531 557.03125 398.40625 556.886719 402.40625 556.558594 C 406.40625 556.230469 410.386719 555.722656 414.339844 555.03125 C 418.296875 554.339844 422.210938 553.46875 426.085938 552.417969 C 429.960938 551.371094 433.78125 550.144531 437.542969 548.746094 C 441.308594 547.347656 445 545.777344 448.617188 544.042969 C 452.238281 542.304688 455.769531 540.40625 459.214844 538.34375 C 462.660156 536.285156 466.007812 534.070312 469.25 531.703125 C 472.492188 529.335938 475.621094 526.828125 478.632812 524.171875 C 499.457031 505.433594 512.835938 484.421875 519.546875 459.742188 L 528.46875 426.945312 L 510.589844 457.53125 C 510.175781 458.390625 509.671875 459.234375 509.183594 460.097656 Z M 509.183594 460.097656 " fill-opacity="1" fill-rule="nonzero"/><path fill="#000000" d="M 314.5 372.761719 L 315.980469 369.425781 C 317.007812 367.066406 318.039062 364.722656 319.164062 362.398438 C 328.910156 341.988281 341.484375 326.789062 357.585938 316.183594 C 368.585938 308.890625 380.28125 307.300781 393.34375 311.328125 C 414.96875 317.980469 433.710938 331.945312 452.359375 355.21875 C 475.972656 384.699219 479.328125 417.574219 462.328125 452.9375 C 459.375 458.757812 456.039062 464.347656 452.320312 469.710938 C 450.636719 472.296875 448.875 474.957031 447.207031 477.640625 L 445.105469 481.050781 L 453.726562 487.890625 L 456.539062 484.421875 C 458.898438 481.480469 461.410156 478.539062 463.847656 475.691406 C 469.671875 469.199219 475.007812 462.328125 479.851562 455.074219 C 490.253906 438.636719 496.8125 418.941406 499.382812 396.507812 C 499.839844 392.449219 499.683594 388.410156 498.917969 384.398438 C 498.148438 380.382812 496.804688 376.574219 494.882812 372.96875 C 487.308594 360.273438 478.914062 348.148438 469.695312 336.589844 C 453.539062 315.769531 434.085938 300.609375 411.710938 291.613281 C 390.027344 282.824219 370.476562 283.535156 353.609375 293.769531 C 340.492188 301.734375 329.246094 313.785156 320.515625 329.582031 C 315.925781 338.289062 311.933594 347.257812 308.539062 356.496094 C 307.019531 360.375 305.445312 364.386719 303.816406 368.265625 L 302.054688 372.425781 L 312.792969 376.921875 Z M 314.5 372.761719 " fill-opacity="1" fill-rule="nonzero"/><path fill="#000000" d="M 609.1875 224.425781 C 607.3125 241.574219 599.554688 256.621094 591.511719 270.324219 L 587.257812 277.558594 C 580.585938 288.894531 573.691406 300.609375 567.261719 312.359375 C 565.773438 315.449219 564.878906 318.707031 564.582031 322.125 C 564.394531 323.417969 564.207031 324.636719 563.964844 325.871094 L 563.027344 330.144531 L 572.921875 332.617188 L 625.230469 243.167969 L 625.359375 244.421875 C 627.234375 262.902344 629.257812 282.035156 630.890625 300.851562 C 630.640625 301.996094 630.230469 303.078125 629.652344 304.09375 C 629.183594 305.105469 628.640625 306.25 628.191406 307.488281 L 626.316406 312.640625 L 631.734375 313.484375 C 637.035156 314.308594 643.707031 314.738281 648.300781 310.804688 C 652.890625 306.867188 653.453125 300.214844 653.417969 294.890625 C 653.417969 284.398438 652.910156 273.769531 652.480469 263.5 C 652.253906 258.328125 652.046875 253.136719 651.878906 247.964844 C 651.878906 245.507812 651.878906 242.960938 651.878906 240.46875 C 652.019531 235.265625 651.789062 230.082031 651.1875 224.914062 C 649.425781 212.300781 640.167969 204.671875 627.101562 204.785156 C 614.039062 204.898438 610.515625 212.769531 609.1875 224.425781 Z M 609.1875 224.425781 " fill-opacity="1" fill-rule="nonzero"/><g clip-path="url(#a065b62d97)"><path fill="#000000" d="M 513.625 340.003906 C 514.917969 338.464844 516.265625 336.984375 517.597656 335.484375 C 520.820312 332.058594 523.769531 328.410156 526.445312 324.542969 C 532.234375 315.65625 537.96875 306.550781 543.515625 297.742188 C 549.703125 287.9375 556.09375 277.800781 562.558594 267.980469 C 567.65625 260.277344 573.070312 252.574219 578.320312 245.117188 C 586.828125 233.046875 595.617188 220.5625 603.300781 207.632812 C 617.28125 184.09375 627.460938 156.695312 634.394531 123.898438 C 634.648438 122.429688 634.480469 121.011719 633.886719 119.640625 C 633.828125 119.5 633.78125 119.359375 633.738281 119.210938 L 633.175781 116.90625 L 624.910156 113.851562 L 623.167969 117.597656 C 583.8125 203.359375 545.878906 271.578125 503.523438 332.261719 L 501.050781 335.824219 L 510.886719 343.320312 Z M 513.625 340.003906 " fill-opacity="1" fill-rule="nonzero"/></g><path fill="#000000" d="M 803.214844 285.804688 C 801.660156 285.933594 800.199219 286.027344 798.773438 286.121094 C 795.773438 286.328125 792.945312 286.515625 790.097656 286.851562 C 760.652344 290.601562 733.234375 301.339844 706.714844 311.796875 C 701.242188 313.953125 695.773438 316.109375 690.28125 318.207031 C 683.328125 320.867188 680.910156 325.085938 679.933594 328.15625 C 678.960938 331.230469 678.941406 336.871094 684.152344 343.824219 L 686.417969 346.84375 L 689.792969 345.117188 C 691.140625 344.425781 692.417969 343.730469 693.636719 343.058594 C 695.628906 341.863281 697.710938 340.84375 699.875 340.003906 C 722.664062 332.148438 745.90625 324.277344 768.355469 316.652344 L 787.867188 310.015625 C 795.644531 307.375 804.097656 303.136719 807.84375 291.707031 L 809.960938 285.277344 Z M 803.214844 285.804688 " fill-opacity="1" fill-rule="nonzero"/><path fill="#000000" d="M 150.15625 344.371094 C 137.394531 344.59375 135.011719 357.488281 134 362.921875 C 132.613281 370.417969 130.476562 380.015625 126.203125 387.867188 C 118.707031 401.753906 110.332031 415.585938 102.308594 428.988281 C 98.242188 435.769531 94.023438 442.78125 89.957031 449.734375 C 88.960938 451.609375 88.261719 453.589844 87.859375 455.675781 C 87.710938 456.347656 87.558594 457.023438 87.351562 457.679688 L 86.097656 461.820312 L 95.785156 465.136719 L 146.746094 378.347656 C 148.394531 395.214844 150.082031 412.585938 151.5625 429.8125 C 151.769531 432.828125 151.804688 435.84375 151.671875 438.863281 C 151.671875 440.351562 151.671875 441.832031 151.671875 443.304688 L 151.671875 448.496094 L 156.808594 447.765625 C 166.949219 446.339844 171.222656 440.773438 171.070312 429.191406 C 170.789062 408.707031 170.226562 388.449219 169.460938 364.328125 C 169.140625 354.207031 159.75 344.40625 150.4375 344.40625 Z M 150.15625 344.371094 " fill-opacity="1" fill-rule="nonzero"/><path fill="#000000" d="M 269.144531 399.507812 C 270.175781 394.726562 271.019531 389.855469 271.730469 385.152344 C 272.703125 379.265625 273.699219 373.195312 275.121094 367.421875 L 275.214844 367.027344 C 279.9375 347.894531 284.8125 328.101562 296 311.382812 L 289.046875 305.761719 C 272.292969 322.628906 253.007812 361.984375 250.253906 408.410156 L 249.878906 414.667969 L 255.929688 413.019531 C 264.308594 410.675781 267.214844 408.519531 269.144531 399.507812 Z M 269.144531 399.507812 " fill-opacity="1" fill-rule="nonzero"/><path fill="#000000" d="M 102.945312 362.265625 C 121.929688 331.34375 141.570312 299.390625 151.542969 261.570312 L 162.394531 220.339844 L 81.320312 380.597656 L 89.207031 384.90625 C 93.6875 377.335938 98.390625 369.671875 102.945312 362.265625 Z M 102.945312 362.265625 " fill-opacity="1" fill-rule="nonzero"/></svg>