<?xml version="1.0" encoding="utf-8"?>
<!-- Generator: Adobe Illustrator 23.0.5, SVG Export Plug-In . SVG Version: 6.00 Build 0)  -->
<svg version="1.1" id="Capa_1" xmlns="http://www.w3.org/2000/svg" xmlns:xlink="http://www.w3.org/1999/xlink" x="0px" y="0px"
	 viewBox="0 0 400 120" style="enable-background:new 0 0 400 120;" xml:space="preserve">
<path d="M63.5,84.1l29.8-66.6c0,0,0,0,0.1,0c0,0,0,0,0,0l29.8,66.6c0,0,0,0,0,0.1c0,0,0,0,0,0L63.5,84.1
	C63.5,84.2,63.5,84.2,63.5,84.1C63.5,84.1,63.5,84.1,63.5,84.1z M103.3,72.6C103.3,72.6,103.3,72.6,103.3,72.6c0.1,0,0.2,0,0.2-0.1
	c0,0,0,0,0,0l-10-23.1c-0.1-0.1-0.1-0.1-0.2,0L83.2,72.5c0,0,0,0.1,0,0.1c0,0,0,0,0,0L103.3,72.6C103.2,72.6,103.2,72.6,103.3,72.6
	L103.3,72.6C103.3,72.5,103.3,72.6,103.3,72.6z"/>
<path d="M323.6,47.6c4,1.5,7.3,3.9,10.2,7c4.2,4.6,4.5,11.5,2.4,17.1c-1.3,3.6-3.9,6.8-6.9,9.1c-7.3,5.5-17.8,5.2-24.6-0.7
	c-4.6-4-7.2-9.1-7.2-15.2c0,0,0-0.1,0.1-0.1h13.2c0,0,0,0,0,0c0.1,3.4,2.5,6.2,6,6.5c0.4,0,0.7-0.1,1.1-0.1c1.7-0.1,3.4-1,4.5-2.3
	c2.1-2.4,2.3-6.9-0.4-8.9c-0.4-0.3-0.9-0.6-1.8-0.9c-2.3-0.9-4.6-1.7-7-2.5c-1.1-0.4-1.8-0.7-2.3-0.9c-4.2-1.8-8-4.7-10.7-8.4
	c-2-2.8-2.8-6-2.8-9.4c0.1-6.8,3.5-12.7,9-16.5c3.4-2.3,7.3-3.4,11.4-3.3c10.7,0.2,19.5,9.1,19.5,19.9c0,0,0,0.1-0.1,0.1
	c-4.3,0-8.6,0-12.8,0c0,0-0.1,0-0.2,0c-0.2,0-0.3-0.1-0.3-0.3c-0.3-6.4-8.5-8.6-12-3.3c-1.1,1.6-1.3,3.5-0.9,5.3
	c0.4,1.5,1.1,2.5,2.3,3.4c1.2,0.9,2.6,1.7,3.9,2.3C319.5,46.5,321.7,46.8,323.6,47.6z"/>
<path d="M126.7,31.9h-21.1c0,0-0.1,0-0.1-0.1l-6.4-13c0,0,0-0.1,0-0.1c0,0,0,0,0,0h57.2c0,0,0.1,0,0.1,0.1v13c0,0,0,0.1-0.1,0.1
	h-16.3c0,0-0.1,0-0.1,0.1l0,0c0,17.7,0,35.4,0,53.1c0,1.5,0,3,0.1,4.5c0,0.2,0,0.6,0.1,1.1c0,0,0,0.1,0,0.1c0,0,0,0-0.1,0.1
	c0,0,0,0.1,0,0.1c0,0.8,0,1.7-0.1,2.5c0,0.3,0.1,0.5-0.2,0.7c-4.2,3.1-8.4,6.2-12.8,9.4c-0.1,0.1-0.2,0.1-0.2-0.1
	c0-4.2,0-8.4,0-12.7c0-0.4,0-0.8-0.1-1.2c-0.1-0.8,0-2,0-2.8c0-8.1,0-16.3,0-24.4c0,0,0-0.1-0.1-0.1h-7.6c-0.1,0-0.2,0-0.2-0.1
	l-6.3-12.9c0,0,0-0.1,0-0.1c0,0,0,0,0,0h14c0,0,0.1,0,0.1-0.1L126.7,31.9C126.8,31.9,126.7,31.9,126.7,31.9z"/>
<path d="M174.5,71.2h26.1c0,0,0,0,0,0c0,0,0,0,0,0v13.2c0,0,0,0,0,0l0,0h-39.3c0,0,0,0,0,0V18.8c0,0,0,0,0,0h13.2c0,0,0,0,0,0
	c0,0,0,0,0,0L174.5,71.2C174.5,71.1,174.5,71.2,174.5,71.2L174.5,71.2z"/>
<path d="M200.5,66h-13c-0.1,0-0.1-0.1-0.1-0.1c0,0,0,0,0,0V18.9c0-0.1,0.1-0.1,0.1-0.1l0,0h13c0.1,0,0.1,0.1,0.1,0.1c0,0,0,0,0,0
	l0,46.9C200.7,65.9,200.6,66,200.5,66L200.5,66z"/>
<path d="M220,58.3V71c0,0.1,0.1,0.1,0.1,0.1l0,0h31c0,0,0.1,0,0.1,0.1v13.1c0,0,0,0.1-0.1,0.1h-44.2c0,0-0.1,0-0.1-0.1V18.8
	c0,0,0-0.1,0.1-0.1h26.8c0,0,0.1,0,0.1,0.1v13c0,0,0,0.1-0.1,0.1h-13.7c0,0-0.1,0-0.1,0.1v12.9c0,0,0,0.1,0.1,0.1l8.6,0
	c0.2,0,0.3,0.1,0.3,0.3c0,0,0,0,0,0v12.7c0,0.2-0.1,0.3-0.3,0.3l0,0L220,58.3C220,58.2,220,58.2,220,58.3z"/>
<path d="M278.8,60.1V18.9c0-0.1,0-0.1,0.1-0.1h12.9c0,0,0,0,0,0v65.3c0,0.1,0,0.1-0.1,0.1H279c0,0-0.1,0-0.1-0.1l-27.6-41.5
	c0,0,0,0-0.1,0c0,0,0,0,0,0v23.2c0,0,0,0.1-0.1,0.1h-12.7c-0.1,0-0.2-0.1-0.2-0.2v-47c0,0,0-0.1,0.1-0.1h12.7c0.1,0,0.2,0.1,0.3,0.2
	c8.9,13.4,17.8,26.7,26.7,40c0.3,0.4,0.5,0.8,0.8,1.2C278.8,60.4,278.8,60.3,278.8,60.1z"/>
</svg>
