<?xml version="1.0" encoding="utf-8"?>
<!-- Generator: Adobe Illustrator 23.0.5, SVG Export Plug-In . SVG Version: 6.00 Build 0)  -->
<svg version="1.1" id="Capa_1" xmlns="http://www.w3.org/2000/svg" xmlns:xlink="http://www.w3.org/1999/xlink" x="0px" y="0px"
	 viewBox="0 0 400 120" style="enable-background:new 0 0 400 120;" xml:space="preserve">
<path d="M42.5,33.3c0.2,0,0.4-0.1,0.6-0.1c0.6-0.2,0.6-0.1,0.2,0.3c-0.5,0.4-0.9,0.8-1.4,1.3c-2,2.2-3.6,4.5-5,7
	c-0.1,0.1-0.2,0.2-0.3,0.1c0,0,0,0,0,0c-1.6-1.3-3.4-2.4-4.8-3.9c-2-2.2-3.3-5.4-3.5-8.5c-0.1-1.2,0-2.6,0.2-4.3
	c0.4-3,0.7-6.1,1.5-9c0.1-0.4,0.3-0.7,0.5-1.1c0.1-0.2,0.4-0.3,0.6-0.2c0.1,0.1,0.1,0.1,0.2,0.2c0.4,0.8,0.6,1.6,0.7,2.5
	c0.3,2.4,0.6,4.6,1,6.5c0.4,1.9,1.1,3.6,2.2,5.3C36.8,32.2,39.3,33.5,42.5,33.3z"/>
<path d="M363.6,31.6c-0.7,3.5-2.2,6.3-4.7,8.5c-1.7,1.6-3.5,2.9-5.2,4c-0.1,0.1-0.2,0-0.3-0.1c0,0,0-0.1,0-0.1c0-2.5-0.9-5.3-2-7.4
	c-0.5-1-1.3-1.7-2.2-2.3c-0.1-0.1-0.1-0.1-0.1-0.2c0-0.1,0.1-0.1,0.1-0.1c1.8,0.3,3.6-0.1,5.2-1c3.5-2.1,5.1-6.9,5.5-10.7
	c0.2-1.7,0.5-3.5,0.8-5.3c0.1-0.4,0.2-0.8,0.5-1.1c0.2-0.2,0.4-0.2,0.6-0.1c0.1,0.1,0.1,0.1,0.1,0.2c0.4,0.7,0.6,1.4,0.7,2.2
	c0.5,2.8,0.9,5.6,1.1,8.5C364,28.3,363.9,30,363.6,31.6z"/>
<path d="M142.7,33.8c-1.7-2.7-2.5-5.5-2.3-8.9c0-0.1,0.1-0.1,0.1-0.1c0,0,0.1,0,0.1,0.1c0,0,0,0.1,0,0.1c0.5,2.5,1.6,4.6,3.5,6.1
	c2.5,2.2,6.2,3.3,9.5,3.5c3.1,0.2,5.9,0.6,8.6,2c2.9,1.4,5,3.6,6.5,6.4c0.6,1.2,1.1,2.8,1.4,4.8c0.5,3.4,0.5,6.7-0.1,10.1
	c-0.2,1-0.3,2-0.6,2.9c-1.1,3.8-2.6,7-4.6,9.8c-2.2,3.1-5.2,5.5-8.9,7.2c-7,3.2-15.5,2.3-21.7-2.2c-3-2.2-5.3-4.9-6.9-8
	c-1.5-2.9-2.3-5.8-2.6-8.8c-0.1-0.9-0.1-1.8-0.1-2.8c0.1-3.8,1.1-7.8,2.9-11.1c3.1-5.9,8.5-9.9,15.1-10.9
	C142.7,34,142.8,33.9,142.7,33.8C142.8,33.9,142.8,33.9,142.7,33.8z M135.2,49.4c-0.8,6,0.5,11.4,4,16c3.4,4.5,8.1,7.1,13.9,7.8
	c1.8,0.2,3.8,0,5.6-0.1c0.1,0,0.2-0.1,0.3-0.2c1.1-2.1,1.9-4.3,2.7-6.5c0.6-1.9,1.1-3.7,1.3-5.6c0.4-3.3,0.4-7.1-0.8-10
	c-1.1-2.7-2.9-4.9-5.3-6.5c-1.5-1-3.2-1.6-4.8-2.4c-3.1-1.5-6.1-3.7-8.3-6.4c-0.1-0.1-0.2-0.1-0.3-0.1
	C138.7,38.9,135.9,43.5,135.2,49.4z"/>
<path d="M191.1,34.5c-1.7-2.6-2.4-5.6-2.3-8.7c0-0.1,0.1-0.2,0.2-0.2c0,0,0.1,0,0.1,0c0.1,0,0.1,0.1,0.1,0.2
	c0.4,2.8,1.9,5.1,4.4,6.8c2.8,2,6.3,2.6,9.8,2.9c5.6,0.4,11.1,2.9,13.7,8.1c0.7,1.4,1.2,2.9,1.5,4.6c1.3,7.4-0.3,15.3-4.2,21.7
	c-2.6,4.3-6.3,7.3-11.1,9.2c-5.9,2.2-12.4,1.7-17.9-1.1c-3-1.6-5.5-3.8-7.6-6.6c-4.1-5.5-5.4-12.4-4-19.3c0.6-2.8,1.5-5.2,2.9-7.4
	c3.4-5.5,8.2-8.8,14.5-9.9C191.1,34.6,191.1,34.5,191.1,34.5z M201.3,73.8c2,0.2,3.9,0.2,5.9-0.2c0,0,0.1,0,0.1-0.1
	c1.9-3.7,3.2-7.6,3.9-11.6c0.4-2,0.5-3.9,0.4-5.6c-0.4-6.2-3.4-10.5-8.8-12.9c-0.8-0.4-1.5-0.7-2.1-1c-3.2-1.5-6.2-3.7-8.5-6.4
	c-0.1-0.1-0.2-0.1-0.3,0c-3.5,2.5-6,5.7-7.4,9.7c-1.7,4.8-1.8,9.6-0.1,14.4C186.9,67.6,193.5,73,201.3,73.8z"/>
<path d="M297.7,35.1c-1.6,0.4-3,0.9-4.4,1.5c-0.6,0.2-0.6,0.2-0.2-0.3c2.3-1.9,4.7-3.5,7.3-4.7c2.2-1.1,4.8-1.9,7.3-1.7
	c1.4,0.1,2.6,0.7,4,0.9c1.8,0.3,3.6,0.1,5.3-0.3c3.2-0.8,6.1-2.1,8.9-4.1c0.3-0.2,0.4-0.2,0.2,0.2c-2.7,4.1-7.5,8.9-12.8,9
	c-1.7,0.1-3.3-0.1-4.8-0.4c-1-0.2-2.1-0.4-3.3-0.7C302.9,33.9,300.3,34.3,297.7,35.1z"/>
<path d="M244,41.1c-0.1,0-0.1,0.1-0.1,0.1c0,0,0,0.1,0,0.1c2.4,3.4,3.7,7.6,2.7,11.6c-0.4,1.6-1.1,3.1-2.2,4.4
	c-2.4,2.9-5.8,5-9.6,4.2c-2-0.4-3.7-1.6-5.3-2.7c-0.8-0.6-1.4-1.3-1.7-2.3c-0.1-0.3-0.1-0.3,0.1-0.1c0.9,1.2,2.2,2.6,3.6,3.2
	c1.3,0.5,2.8,0.6,4.3,0.2c7.6-1.9,0.4-13.1-2.1-16c-3-3.6-7.7-6.2-12.2-3.6c-0.2,0.1-0.2,0.1-0.1-0.1l10.6-13.4
	c0.3-0.3,0.4-0.3,0.3,0.1c-0.1,0.9-0.1,1.8,0,2.8c0,0.3,0.1,0.6,0.4,0.8c4.2,2.9,7.9,6.3,10.8,10.4c0.1,0.1,0.1,0.1,0.2,0
	c2.9-2.3,5.7-4.7,8.5-7.1c0.5-0.5,1-1,1.5-1.5c0.1-0.1,0.1-0.1,0.2-0.1c0.3,0.1,0.6,0.2,0.8,0.3c2.7,1.6,5.3,3.5,7.6,5.8
	c2,2,3.9,4.5,4.7,7.3c0.2,0.8,0.3,1.8,0.3,3c-0.1,8.8-0.1,18.1-0.1,28.1c0,0.1,0,0.2-0.1,0.3l-4.7,4.9c-0.1,0.1-0.2,0.1-0.3,0
	l-5.3-3.9c-0.1-0.1-0.2-0.3-0.2-0.4l0-2.5c0-0.1,0-0.1-0.1-0.1c-3.2-0.4-6.6,0.8-7.9,4.1c-0.5,1.2-0.6,2.4-0.5,3.7
	c0,0.1-0.1,0.1-0.1,0.1c0,0-0.1,0-0.1,0c-4.4-3.4-8.8-6.4-13.2-9.1c-1.6-1-3.3-1.9-5.2-2.8c-3.4-1.6-7.6-2.1-11-0.5
	c-0.4,0.2-0.5,0.5-0.5,0.9c-0.4,1.7-0.8,3.3-1.1,4.9c-0.1,0.2-0.1,0.5-0.1,0.7c0,0.1-0.1,0.1-0.1,0.1h-0.1c0,0-0.1,0-0.1-0.1
	c-0.2-1.3-0.1-2.7,0.3-4.1c0.8-3,3.6-5.2,6.6-6c1-0.3,2-0.4,3.1-0.5c3.9-0.3,7.9,0.2,11.8,1.2c4.3,1.1,8.6,2.6,13,4.5
	c0.1,0,0.1,0,0.1-0.1v0V42.3c0-0.1-0.1-0.2-0.1-0.2C248.9,41.4,246.6,41,244,41.1z M252.6,72.5l3.9,1.7c0.1,0.1,0.2,0,0.2-0.1
	c-0.2-7.1-0.2-14.4,0-21.8c0.1-2.1-0.1-3.6-0.3-4.4c-0.6-2.2-1.9-3.8-3.8-5c-0.1-0.1-0.2,0-0.2,0.1v29.3
	C252.5,72.4,252.5,72.5,252.6,72.5z"/>
<path d="M55,64.6C55,64.6,55.1,64.7,55,64.6c4.7,3.4,9.7,4.7,15.2,4c4-0.6,7.7-2.4,10.7-5.1c0.2-0.2,0.3-0.3,0.4-0.5
	c0-0.1,0.1-0.1,0.1-0.1s0.1,0,0.1,0c0.1,0.1,0.1,0.1,0.1,0.2c-2.5,6.6-6.9,11.4-13.3,14.2c-3.6,1.6-7.6,2.2-11.9,1.6
	c-6.2-0.7-11.8-4.3-15.6-9.2c-4.4-5.7-6.1-13.3-4.7-20.4c0.9-4.7,3-8.8,6.2-12.3c5-5.3,11.8-8,19.1-7.5c0.3,0,0.3,0.1,0,0.2
	c-4.8,1.5-8.6,4.5-11.3,8.8c-0.1,0.1,0,0.2,0.1,0.2c0,0,0.1,0,0.1,0c6.4,0.6,12-4,15.8-8.7c0.1-0.1,0.1-0.1,0.2,0
	c0,0,0.1,0.1,0.1,0.1c0.3,1.2,1,2.2,2.1,3.1c1.4,1.1,3.2,1,4.7,0.3c1.2-0.6,2.3-1.5,3.5-2.1c3.6-2,7.6-3.2,11.9-3.7
	c0.1,0,0.1,0,0.1,0.1v0.1c0,0.1,0,0.1-0.1,0.1c-1.3,0.3-2.6,0.8-3.8,1.5c-2.6,1.5-5.3,3.4-8,5.7c-2.6,2.2-5.4,4-8.3,5.3
	C66.4,41.3,64,41.8,61,42c-2.4,0.1-4.9-0.3-7.3-1.1c-0.1,0-0.1,0-0.1,0.1c0,0,0,0,0,0.1c0.7,2.8,2.6,4.7,5.4,5.1
	c1.7,0.3,3.2,0.6,4.7,1.6c2.8,1.8,4.2,5.2,4,8.4c0,0.1-0.1,0.2-0.1,0.2L55,64.4C55,64.5,55,64.5,55,64.6z M47.3,49.2
	c0.2,6,2.6,11,7.3,15c0.1,0.1,0.2,0.1,0.3,0c1-1.1,1.9-2.1,3-3.2c0.6-0.6,1-1.2,1.2-1.8c0.7-1.9,0.5-3.9-0.7-5.6
	c-0.7-0.9-1.4-1.6-2.2-2.1c-1-0.7-1.8-1.2-2.3-1.7c-2.5-2.3-3.3-5.2-2.5-8.7c0.1-0.3,0.2-0.6,0.3-0.8c0.1-0.2,0.1-0.3-0.1-0.5
	L50.1,39c-0.2-0.1-0.3-0.1-0.4,0.1C48,42.5,47.2,45.8,47.3,49.2z"/>
<path d="M101.8,39.4c-2.6,0.6-5.1-0.1-7.4-2.2c-0.1-0.1-0.1-0.1-0.2,0l0,0L93,39.7c-0.1,0.1,0,0.2,0.1,0.3l5.3,3.6
	c0.1,0.1,0.2,0.2,0.2,0.3v17c0,0.1-0.1,0.2-0.1,0.2c-3.4,2.9-6.8,5.7-10.1,8.4c-0.1,0-0.1,0.1-0.1,0s-0.1-0.1-0.1-0.1V38
	c0-0.1,0-0.2,0.1-0.2c1.4-2.3,3.4-4.4,5.6-6.2c1.6-1.3,3.1-0.6,4.4,0.6c0.9,0.9,2.1,1.4,3.4,1.4c1.2,0,2.3-0.2,3.1-0.5
	c0.7-0.3,1.5-0.7,2.3-1.2c2.2-1.2,4.5-2,6.8-2.1c2.5-0.2,5.4,0.5,7.2,2.2c0.1,0.1,0.1,0.2-0.1,0.1c-0.3-0.1-0.6-0.3-1-0.4
	c-5.6-1.3-10.1,0.4-13.7,4.7c-0.9,1-1.9,1.9-3.2,2.5c-0.1,0-0.1,0.1-0.1,0.2v33.7c0,0.2,0.1,0.3,0.2,0.3c3.9,0.6,8,0.9,11.9,0.3
	c1.9-0.3,3.5-0.9,4.7-1.8c1.5-1,2.7-2.9,2.3-4.8c-0.1-0.3,0-0.3,0.2-0.1c0.1,0.2,0.2,0.3,0.2,0.5c1.6,6.1-3.7,10.1-8.4,12.6
	c-1,0.5-2,0.9-3,1c-1.3,0.3-2.8,0.4-4.3,0.4c-5.4,0.1-10.5-1.1-15.4-3.6c-0.9-0.5-1.8-0.9-2.8-1.3c-1.7-0.8-3.5-1.2-5.2-1.2
	c-1.9-0.1-4.5,0.4-5.9,1.8c-2.5,2.4-1,6.7,0.8,8.9c0.7,0.8,1.4,1.6,2.3,2.4c7,5.8,15,8.4,24.1,7.9c4.2-0.3,9.3-1,15.4-2.1
	c5.3-1,10.3-2.3,15.2-3.9c4.2-1.4,8-2.9,11.4-4.6c2.4-1.2,5.1-2.6,7.9-4.2c4.2-2.3,9-3.9,13.7-3.4c2.7,0.3,5.3,0.9,7.8,2.1
	c7.8,3.6,15.7,6.8,23.6,10c3,1.2,6,2.4,9.1,3.2c6.1,1.5,13,1.4,19.1-0.7c1.8-0.6,3.5-1.3,5.2-1.9c4.4-1.7,8.2-1.8,12.2,0.8
	c1.2,0.8,2.3,1.7,3.3,2.6c0,0,0.1,0,0.1,0c0,0,0,0,0-0.1l0.9-4.1c0-0.1,0.1-0.1,0.2-0.1c0,0,0.1,0,0.1,0.1l10.7,15.2
	c0.1,0.2,0.1,0.2-0.1,0.1l-17-7c-0.1,0-0.1-0.1-0.1-0.1c0,0,0-0.1,0.1-0.1l4.3-1.9c0.1,0,0.1-0.1,0.1-0.1v0c-0.7-0.8-1.7-1.5-2.9-2
	c-1.8-0.7-3.7-1.3-5.6-1.2c-1.9,0.2-3.9,0.4-6.1,0.9c-2.6,0.5-5.4,1.2-8.1,1.9c-1.9,0.5-3.4,0.8-4.7,1c-6.6,0.8-13.1-0.1-19.3-2.4
	c-6.4-2.4-12.6-4.7-18.7-6.9c-1.6-0.6-3.1-1.1-4.6-1.6c-8.2-2.5-16.5-2.4-25,0.4c-3,1-5.8,2-8.4,3c-1.6,0.6-3.2,1.1-4.8,1.6
	c-4.3,1.4-8.7,2.7-13,4.1c-3.3,1-6.5,1.9-9.8,2.8c-6.5,1.7-13.5,3-20.1,3.2c-4,0.1-8.1-0.5-11.8-1.8c-5.4-1.9-9.5-5.8-11.3-11.3
	c-1-3.2-0.7-6.7,1.1-9.7c3.7-6.3,10-9.3,17.3-7.3c3.1,0.9,6.3,1.7,9.8,2.3c0.1,0,0.2,0,0.2-0.1v0V39.5
	C102,39.5,101.9,39.4,101.8,39.4z"/>
<path d="M301.2,49.8c0.2,6.9-1.6,13.3-5.3,19.1c-0.1,0.1,0,0.1,0.1,0.2c7.4,3,15.5,1.6,21.4-3.9c0.2-0.2,0.3-0.4,0.4-0.6
	c0,0,0.1-0.1,0.1,0c0,0,0,0,0,0l0.1,0.1c0,0,0,0.1,0,0.1c-1.6,4.3-4.1,7.8-7.5,10.6c-8,6.7-19.5,7.2-28,1.1
	c-5.3-3.7-8.9-9.3-10.1-15.8c-1.9-10.1,2.3-20.6,11.2-26.1c4.2-2.6,8.9-3.8,14.1-3.4c0.4,0,0.4,0.1,0,0.2c-5.9,2-10.1,5.8-12.6,11.6
	c-0.1,0.2,0,0.2,0.2,0.1l12.6-7c0.1-0.1,0.2,0,0.2,0.1l0,0c0.6,1.3,1.1,2.6,1.5,4c0.8,2.9,1.3,5.9,1.6,8.9c0,0,0,0.1,0.1,0.1h0
	l6.3-4.3c0.1-0.1,0.2-0.1,0.3-0.1l13.2,4.4c0.2,0.1,0.2,0.2,0,0.2L307.7,54c-0.1,0.1-0.2,0-0.3-0.1l-6.1-4.2
	C301.3,49.7,301.2,49.7,301.2,49.8z M283.9,53.2c0.2,1.1,0.3,1.9,0.5,2.5c1.7,5.9,5.3,10.3,11,13.1c0.1,0,0.1,0,0.2-0.1
	c0,0,0,0,0-0.1c0.4-3.7,0.6-7.4,0.5-11c-0.1-3-0.4-5.5-0.9-7.8c-0.5-2.4-1.7-5.3-3.8-6.6c-1.9-1.1-4.3-0.7-6.3,0.3
	c-0.1,0-0.1,0.1-0.2,0.2c-0.3,0.7-0.5,1.4-0.6,2.2C283.7,48.5,283.5,50.9,283.9,53.2z"/>
<path d="M335.7,43.1c-0.1,0.1,0,0.2,0.1,0.1l12.7-7c0.1-0.1,0.2,0,0.2,0.1c0,0,0,0,0,0c1.8,4.1,2.8,8.4,3,12.8
	c0,0.1,0.1,0.1,0.1,0.1c0,0,0,0,0.1,0l6.2-4.2c0.2-0.1,0.3-0.1,0.5-0.1l13.1,4.3c0.2,0.1,0.2,0.1,0,0.2L358.3,54c-0.1,0-0.2,0-0.2,0
	l-6.1-4.3c-0.1,0-0.1,0-0.2,0c0,0,0,0.1,0,0.1c0.2,3.5-0.3,6.9-1.2,10.2c-0.9,3.2-2.3,6.1-4,8.8c-0.1,0.1,0,0.2,0.1,0.2h0
	c6.9,2.8,14.7,1.7,20.5-3.1c0.5-0.4,0.9-0.9,1.3-1.4c0-0.1,0.1-0.1,0.1,0c0.1,0,0.1,0.1,0.1,0.2c-2.6,7.2-8.2,12.7-15.4,15
	c-6.4,2-13.4,1-19-2.5c-4.5-2.9-7.8-6.8-9.8-12c-4-10.1-1-22,7.4-28.8c4.8-3.9,10.3-5.6,16.6-5.2c0.4,0,0.4,0.1,0,0.2
	c-0.7,0.2-1.4,0.4-2.1,0.7c-4.5,2-7.9,5.3-10.1,9.8C335.9,42.4,335.8,42.8,335.7,43.1z M335.3,43.9c-1.4,3.9-1.6,8.1-0.4,12.2
	c0.5,1.8,1.2,3.4,2.1,4.8c2.1,3.5,5,6.1,8.7,7.9c0.2,0.1,0.3,0,0.3-0.2c0.6-5.1,0.7-10,0.2-14.7c-0.2-2.4-0.8-4.8-1.6-7
	c-0.3-0.8-0.8-1.7-1.5-2.4c-2-2.3-5-2.1-7.6-0.9C335.5,43.7,335.4,43.8,335.3,43.9z"/>
</svg>
