<?xml version="1.0" encoding="utf-8"?>
<!-- Generator: Adobe Illustrator 23.0.5, SVG Export Plug-In . SVG Version: 6.00 Build 0)  -->
<svg version="1.1" id="Capa_1" xmlns="http://www.w3.org/2000/svg" xmlns:xlink="http://www.w3.org/1999/xlink" x="0px" y="0px"
	 viewBox="0 0 400 120" style="enable-background:new 0 0 400 120;" xml:space="preserve">
<path d="M106.4,19.9h37.1l-7.4,22.4c0,0.1-0.2,0.2-0.2,0.1c0,0-0.1,0-0.1-0.1c-0.9-1.7-1.9-3.3-2.8-4.9c-1.2-2-3.1-2.7-5.4-2.6
	c-5.2,0-10.1,0-14.5,0c-0.7,0-1.4,0.4-1.7,1.1l-5.9,12c0,0.1,0,0.2,0.1,0.2c0,0,0,0,0.1,0h16.6c0.1,0,0.2,0.1,0.2,0.2c0,0,0,0,0,0.1
	l-6,14.5c-0.1,0.2-0.2,0.3-0.4,0.3H99c-0.7,0-1.4,0.4-1.7,1.1l-4.5,8.3c0,0.1,0,0.1,0,0.2c0,0,0,0,0.1,0c7.6,0,15,0,21.9,0
	c1.8,0,3.6-0.7,5-1.8c2.9-2,6-4.1,9.2-6.4c0.2-0.2,0.3-0.2,0.2,0.2l-8.6,22.7c-0.1,0.2-0.2,0.2-0.2,0.2c-13,0-25.5,0-37.4,0
	c-2.1,0-4,0.6-5.8,1.7c-6,3.6-11.8,7-17.8,10.5c-0.4,0.2-0.5,0.2-0.2-0.2C76.1,73.8,92.8,46.4,106.4,19.9z"/>
<path d="M148.1,19.9h32c2.8,0.7,4.6,2.3,5.5,4.8c0.3,1.2,0.5,2.3,0.4,3.5c-0.7,9.1-1.6,18.6-2.5,28.4c-0.2,2.6-1.7,4.8-4.1,5.9
	c-1,0.4-2.3,0.6-3.9,0.6c-6.5-0.1-12.6-0.1-18.3,0c-0.6,0-1,0.4-1.2,0.9l-5.7,23.9c-0.1,0.2-0.2,0.3-0.4,0.3h-16.7
	c-0.1,0-0.2-0.1-0.2-0.2l0,0l7.8-24.7c0-0.1,0-0.2-0.1-0.2l0,0h-5.9c-0.1,0-0.2-0.1-0.2-0.2l0,0l4.7-14.5c0.1-0.2,0.2-0.2,0.4-0.2
	c1.5,0,2.9,0,4.3,0c0.8,0,1.3-0.4,1.6-1.2c1.2-4.1,2.2-8,3.3-11.8c0-0.1,0-0.2-0.1-0.2c0,0,0,0-0.1,0h-5c-0.1,0-0.2-0.1-0.2-0.2
	c0,0,0,0,0-0.1L148.1,19.9z M159.8,48.1h9.3c0.7,0,1.2-0.3,1.2-1.1l1.9-12.1c0-0.1-0.1-0.2-0.1-0.2l0,0h-8.7c-0.6,0-1,0.4-1.2,0.9
	l-2.6,12.2C159.6,48,159.6,48.1,159.8,48.1L159.8,48.1z"/>
<path d="M190.3,19.9h37.4l2.1,14.6c0,0.1-0.1,0.2-0.2,0.2l0,0h-12.9c-0.1,0-0.2,0.1-0.2,0.2l0,0l1.1,13c0,0.2,0.2,0.2,0.2,0.2h5.5
	c0.1,0,0.2,0.1,0.2,0.2l1.7,14.5c0,0.2-0.1,0.2-0.2,0.2h-6c-0.2,0-0.2,0.1-0.2,0.2l0,0l2.4,25.7c0,0.2-0.1,0.2-0.2,0.2h-16.8
	c-0.2,0-0.2-0.1-0.2-0.2l-0.4-25.7c0-0.2-0.1-0.3-0.3-0.3h-5.8c-0.2,0-0.3-0.1-0.3-0.3l0.2-14.4c0-0.1,0.1-0.2,0.2-0.2h5.6
	c0.1,0,0.2-0.1,0.2-0.2l0,0l-0.2-13.2c0-0.1-0.1-0.1-0.1-0.1h-13.5c-0.2,0-0.2-0.1-0.2-0.2l0,0L190.3,19.9z"/>
<path d="M231.8,19.9H254l4.3,14.6c0,0.1,0,0.2-0.2,0.2c0,0,0,0-0.1,0h-4.9c-0.2,0-0.2,0.1-0.2,0.2c3.5,12.3,6.9,24.5,10.6,36.3
	c0.2,0.7,0.7,1.2,1.6,1.2c1.6,0,3.2,0,5,0c0.2,0,0.4,0.1,0.4,0.3l5,14.5c0,0.1,0,0.2-0.1,0.2l0,0h-31c-0.1,0-0.2-0.1-0.2-0.2
	l-3-14.5c0-0.1,0-0.2,0.2-0.2l0,0h6.2c0.1,0,0.1-0.1,0.1-0.1l0,0l-8.1-36.8c-0.1-0.5-0.6-0.8-1.1-0.8h-4.1c-0.2,0-0.3-0.2-0.4-0.3
	L231.8,19.9z"/>
<path d="M258.6,19.9h37l13.3,24.4c0.2,0.5,0.2,0.6-0.2,0.2c-3.3-2.6-6.4-5-9.6-7.4c-2.6-2-5.4-2.5-8.8-2.4c-4.6,0.1-9.1,0.1-13.2,0
	c-0.1,0-0.2,0.1-0.2,0.2c0,0,0,0,0,0.1c4.5,11.2,9.8,23.3,15.6,36.4c0.3,0.8,1.2,1.2,2,1.2c8.3,0,17-0.1,26,0c1.6,0,2.8,0.7,3.7,2
	c5.7,8.3,11.6,16.8,17.7,25.2c0.2,0.3,0.2,0.4-0.2,0.2c-6.7-3.9-12.9-7.5-18.7-10.9c-1.7-1.1-3.9-1.6-6.3-1.6c-11.1,0-22.3,0-33.8,0
	c-0.1,0-0.2-0.1-0.2-0.2C273.9,65.1,265.9,42.6,258.6,19.9z"/>
</svg>
