<?xml version="1.0" encoding="utf-8"?>
<!-- Generator: Adobe Illustrator 23.0.5, SVG Export Plug-In . SVG Version: 6.00 Build 0)  -->
<svg version="1.1" id="Capa_1" xmlns="http://www.w3.org/2000/svg" xmlns:xlink="http://www.w3.org/1999/xlink" x="0px" y="0px"
	 viewBox="0 0 400 120" style="enable-background:new 0 0 400 120;" xml:space="preserve">
<path d="M194.2,38.2c6.3,1.1,9.9,6.1,9.9,12.3c0,0,0,0.1-0.1,0.1l0,0l-6.6-0.1c-0.1,0-0.1-0.1-0.1-0.1c-0.1-3.2-1.7-5.7-5-6.1
	c-3.7-0.5-7.4,1.5-6.7,5.8c0.4,2.4,2.8,3.5,4.9,4.3c1.1,0.4,2.2,0.8,3.4,1.1c1.8,0.6,3.5,1.3,5.1,2c3.7,1.8,6.2,4.6,6.7,8.9
	c0.5,4.5-1,8.4-4.6,11.1c-2.2,1.6-4.8,2.4-7.6,2.8c-2.3,0.3-4.5,0.1-6.7-0.5c-6.2-1.6-10-6.9-10-13.2c0-0.1,0-0.1,0.1-0.1h6.7
	c0,0,0.1,0,0.1,0.1c0.1,3.9,2.4,7,6.4,7.5c3.7,0.5,7.9-1,8.5-5.1c0.7-4.1-2.3-5.9-5.7-7.1c-1.4-0.5-2.7-0.9-4.1-1.4
	c-1.7-0.6-3.4-1.3-5-2.3c-2.2-1.4-3.9-3.3-4.7-5.8c-0.5-1.6-0.6-3.5-0.3-5.1c1-5.3,5.7-8.7,10.9-9.1c0.5,0,1.2,0,2.2,0
	C192.9,38.1,193.6,38.1,194.2,38.2z"/>
<path d="M102.6,60c0,12.1-9.8,21.9-21.9,21.9l0,0c-12.1,0-21.9-9.8-21.9-21.9s9.8-21.9,21.9-21.9S102.6,48,102.6,60L102.6,60z
	 M81.8,50.6C81.8,50.6,81.8,50.7,81.8,50.6C81.8,50.7,81.8,50.7,81.8,50.6l-4.9,0.1c0,0,0,0,0,0l-1.4,2.4c0,0,0,0,0,0.1c0,0,0,0,0,0
	H86c0,0,0,0,0,0c0,0,0,0,0,0l-5.2-9c0,0,0,0-0.1,0c0,0,0,0,0,0l-1.4,2.4c0,0,0,0,0,0L81.8,50.6z M90.7,66.1
	C90.7,66.1,90.7,66.1,90.7,66.1C90.7,66.1,90.7,66.1,90.7,66.1l-22.6,0c-0.1,0-0.2,0-0.2,0.1l-1.3,2.3c0,0,0,0.1,0,0.1c0,0,0,0,0,0
	h28.3c0,0,0,0,0,0s0,0,0,0l-4.5-7.8c0,0,0-0.1-0.1-0.1H74.1c0,0-0.1,0-0.1-0.1c0,0,0,0,0,0l1.7-2.9c0-0.1,0.1-0.1,0.1-0.1l12.8,0
	c0,0,0,0,0,0v0l-1.4-2.3c0-0.1-0.1-0.1-0.2-0.1H74.5c-0.1,0-0.2,0.1-0.2,0.1c-1.5,2.5-3,5.1-4.5,7.7c0,0,0,0.1,0,0.1c0,0,0,0,0,0
	c5,0,9.9,0,14.8,0c1.6,0,3,0,4.3,0c0,0,0.1,0,0.1,0.1L90.7,66.1z"/>
<path d="M355.7,45.1h-9c0,0-0.1,0-0.1-0.1v-6.6c0,0,0-0.1,0.1-0.1h25.2c0,0,0.1,0,0.1,0.1V45c0,0,0,0.1-0.1,0.1h-9
	c0,0-0.1,0-0.1,0.1l0,0v35.2c0,0,0,0.1-0.1,0.1h-6.9c0,0-0.1,0-0.1-0.1L355.7,45.1C355.8,45.1,355.8,45.1,355.7,45.1z"/>
<path d="M49.1,70.5c0.6-1.3,0.9-2.8,0.9-4.4c0-9.1,0-18.3,0-27.7c0,0,0-0.1,0.1-0.1h6.9c0,0,0.1,0,0.1,0.1c0,9.3,0,18.5,0,27.6
	c0,1.6-0.2,3.2-0.6,4.8c-1.1,4.2-3.7,7.6-7.9,9.2c-2.2,0.8-4.6,1.1-6.9,1c-4.5-0.2-8.5-2.1-11-6c-1.7-2.7-2.3-6-2.3-9.2c0,0,0,0,0,0
	h6.9c0.1,0,0.1,0,0.1,0.1c0,4.3,1.7,8,6.5,8.4C44.9,74.5,47.8,73.5,49.1,70.5z"/>
<path d="M127.2,55.5v-17c0,0,0-0.1,0.1-0.1l0,0l6.9,0c0,0,0.1,0,0.1,0.1v41.9c0,0,0,0.1-0.1,0.1l0,0h-6.9c0,0-0.1,0-0.1-0.1l0,0
	V62.2c0,0,0-0.1-0.1-0.1l0,0h-15.7c0,0-0.1,0-0.1,0.1l0,0v18.2c0,0,0,0.1-0.1,0.1h-6.9c0,0-0.1,0-0.1-0.1l0,0V38.5
	c0,0,0-0.1,0.1-0.1l0,0h6.9c0,0,0.1,0,0.1,0.1v17c0,0,0,0.1,0.1,0.1l0,0L127.2,55.5C127.2,55.5,127.2,55.5,127.2,55.5L127.2,55.5z"
	/>
<path d="M144.5,51.2v29.2c0,0.1,0,0.1-0.1,0.1h-6.9c0,0-0.1,0-0.1-0.1V38.6c0-0.1,0-0.1,0.1-0.1h6.9c0.1,0,0.1,0,0.1,0.1l16.8,29.1
	c0,0,0,0,0,0l0,0c0,0,0-0.1,0-0.1c0-9.3,0-18.6,0-28.1c0-0.3,0-0.6,0-0.9c0,0,0-0.1,0.1-0.1h6.8c0.1,0,0.2,0.1,0.2,0.2v41.8
	c0,0,0,0.1-0.1,0.1l-6.7,0c-0.1,0-0.2,0-0.2-0.1L144.5,51.2C144.6,51,144.5,51,144.5,51.2z"/>
<path d="M276,47l-11.3,33.2c0,0.1-0.1,0.1-0.2,0.1l-5.1,0c0,0,0,0-0.1,0L248,47.6c-0.1-0.2-0.1-0.1-0.1,0l-2.5,32.6
	c0,0.1-0.1,0.1-0.1,0.1H238c-0.1,0-0.1,0-0.1-0.1c0-0.2,0-0.4,0-0.5c1.2-14.1,2.3-27.7,3.4-41c0-0.2,0.1-0.3,0.3-0.3h9.5
	c0.1,0,0.2,0.1,0.2,0.1l10.3,30.3c0,0.1,0.1,0.1,0.1,0l10.2-30.4c0-0.1,0.1-0.1,0.1-0.1h9.9c0.1,0,0.1,0,0.1,0.1l3.5,41.8
	c0,0,0,0,0,0l0,0h-7.1c-0.1,0-0.1,0-0.1-0.1L276,47C276,46.9,276,46.9,276,47z"/>
<path d="M324.8,47.6c0-0.2-0.1-0.2-0.1,0l-11.3,32.6c0,0.1-0.1,0.1-0.1,0.1l-5.1,0c-0.1,0-0.1,0-0.1-0.1l-11.3-33.1
	c0-0.1-0.1-0.1-0.1,0l-2.3,33.2c0,0,0,0.1-0.1,0.1h-7.1c-0.1,0-0.1,0-0.1-0.1l3.5-41.7c0-0.1,0.1-0.1,0.1-0.1h9.9
	c0.1,0,0.1,0,0.1,0.1l10.2,30.4c0,0.1,0.1,0.1,0.1,0l10.3-30.4c0,0,0.1-0.1,0.1-0.1h9.7c0,0,0.1,0,0.1,0.1l3.6,41.8
	c0,0.1,0,0.1-0.1,0.1h-7.2c-0.1,0-0.2-0.1-0.2-0.1c-0.8-10.8-1.7-21.6-2.5-32.4C324.8,47.8,324.8,47.7,324.8,47.6z"/>
<path d="M337.2,38.5h6.9c0.1,0,0.1,0,0.1,0.1v41.7c0,0.1,0,0.1-0.1,0.1h-6.9c-0.1,0-0.1,0-0.1-0.1L337.2,38.5
	C337.1,38.5,337.1,38.5,337.2,38.5z"/>
<path d="M207.1,38.6l6.8,0c0,0,0.1,0,0.1,0.1l0,0c0,8.5,0,16.8,0,24.9c0,3.9,1,8.4,5.3,9.7c2,0.6,4.5,0.5,6.4-0.4
	c3.3-1.5,4.3-5.4,4.3-8.7c0-8.6,0-17.1,0-25.5c0-0.1,0-0.1,0.1-0.1c2.3,0,4.6,0,6.9,0c0,0,0,0,0,0l0,0c0,8.6,0,17.2,0,25.8
	c0,2.1-0.4,4.2-1.1,6.4c-1.4,4.1-4.2,7.3-8.3,8.7c-2.2,0.8-4.7,1-7,0.9c-2.1-0.2-4.2-0.7-6.1-1.7c-5.3-2.9-7.5-8.9-7.5-14.7
	c0-8.4,0-16.8,0-25.3C206.9,38.6,207,38.6,207.1,38.6z"/>
</svg>
