<?xml version="1.0" encoding="UTF-8" standalone="no"?>
<!DOCTYPE svg PUBLIC "-//W3C//DTD SVG 1.1//EN" "http://www.w3.org/Graphics/SVG/1.1/DTD/svg11.dtd">
<svg xmlns="http://www.w3.org/2000/svg" version="1.1" viewBox="0.00 0.00 1080.00 1080.00">
<path fill="#000000" d="
  M 250.32 450.34
  C 250.13 451.88 249.73 453.66 249.71 455.27
  Q 249.49 478.94 249.84 492.31
  Q 252.61 598.29 255.94 675.56
  Q 257.74 717.36 257.17 751.95
  C 257.06 758.97 256.99 765.47 255.86 772.72
  A 2.09 2.09 0.0 0 1 253.82 774.49
  C 245.61 774.61 246.00 752.08 236.94 747.82
  Q 236.57 747.64 232.38 746.74
  C 224.36 745.02 220.68 728.90 219.38 721.92
  Q 216.27 705.30 211.85 688.97
  Q 210.52 684.07 208.30 679.77
  A 1.05 1.05 0.0 0 0 206.47 679.71
  C 203.92 683.91 203.59 690.95 203.21 695.77
  Q 201.13 722.51 201.91 751.75
  Q 201.93 752.16 201.66 752.41
  Q 201.27 752.79 201.19 752.25
  Q 195.47 714.08 188.79 682.99
  Q 185.95 669.73 180.35 655.76
  C 174.92 642.19 173.35 626.57 172.24 611.50
  Q 169.93 580.27 169.49 555.07
  Q 167.66 450.54 175.99 346.33
  Q 179.19 306.26 184.48 270.00
  Q 185.72 261.49 188.70 252.37
  C 190.40 247.16 197.97 251.05 198.01 242.87
  C 198.07 229.91 218.86 210.97 227.46 202.03
  A 0.79 0.79 0.0 0 1 228.61 202.04
  C 233.81 207.53 239.85 213.11 244.22 218.55
  C 256.53 233.87 265.78 252.65 273.68 270.56
  Q 287.72 302.37 313.13 367.67
  C 324.68 397.35 336.82 426.82 349.05 456.23
  Q 355.35 471.36 364.12 489.59
  Q 366.19 493.90 368.85 497.08
  A 0.66 0.66 0.0 0 0 369.84 497.11
  C 373.40 493.26 374.07 466.81 374.03 466.00
  C 371.44 403.41 361.28 336.12 357.18 267.62
  C 356.59 257.84 356.32 247.50 357.14 237.55
  Q 357.83 229.25 358.08 220.93
  Q 358.75 199.09 363.69 177.86
  C 364.67 173.66 367.97 156.62 373.20 157.22
  Q 374.96 157.42 375.53 159.24
  C 379.26 171.03 376.57 184.48 378.60 196.71
  C 379.59 202.62 380.05 206.89 385.19 209.62
  C 392.45 213.47 394.21 221.11 395.25 228.62
  C 400.87 269.34 402.82 293.55 410.89 324.91
  C 411.63 327.81 412.81 330.40 414.17 332.96
  A 1.37 1.37 0.0 0 0 416.68 332.78
  C 418.93 326.48 418.78 316.66 418.73 309.93
  C 418.59 287.19 417.24 264.46 417.25 241.74
  C 417.26 230.68 416.54 219.13 418.43 208.19
  A 1.39 1.38 -66.8 0 1 420.62 207.31
  C 424.31 210.06 424.45 218.02 424.50 222.25
  Q 425.00 260.25 430.57 297.83
  C 434.52 324.51 438.53 355.50 448.07 382.02
  C 452.51 394.36 454.00 408.47 454.90 421.50
  Q 458.17 468.85 454.86 516.18
  C 452.40 551.34 445.47 584.56 428.09 615.57
  C 415.27 638.44 391.41 660.03 362.81 653.67
  C 339.86 648.57 324.71 627.62 315.02 607.52
  Q 305.28 587.31 297.21 566.38
  C 282.26 527.64 268.32 488.40 252.40 450.06
  A 1.09 1.08 37.3 0 0 250.32 450.34
  Z"
/>
<path fill="#000000" d="
  M 806.41 231.38
  A 0.38 0.37 79.5 0 0 807.02 231.80
  C 822.13 215.83 844.26 194.12 866.11 188.60
  C 882.29 184.52 903.99 183.34 919.13 190.65
  C 934.50 198.07 941.88 212.54 945.39 228.78
  C 950.22 251.14 951.51 275.72 951.89 297.94
  C 952.26 318.73 953.36 447.20 936.36 455.64
  Q 935.90 455.86 935.40 455.79
  C 926.40 454.54 922.72 459.00 916.01 461.02
  Q 913.48 461.78 906.89 462.33
  C 893.41 463.47 879.13 462.83 865.58 462.71
  Q 865.01 462.70 865.00 462.13
  C 864.92 452.32 865.56 439.65 865.74 432.79
  Q 866.94 385.67 871.38 338.74
  Q 873.14 320.23 872.48 303.82
  Q 872.27 298.51 869.97 293.02
  Q 869.77 292.53 869.26 292.36
  C 865.16 290.96 858.92 298.12 856.76 300.75
  C 835.01 327.32 823.90 360.16 815.40 392.91
  Q 803.56 438.55 803.85 485.76
  C 804.08 524.75 816.42 561.17 839.90 592.36
  C 860.58 619.81 886.39 644.08 912.62 666.13
  Q 943.55 692.13 974.55 718.05
  C 976.37 719.57 979.08 720.51 980.84 722.48
  Q 982.31 724.12 980.40 725.20
  C 975.37 728.05 962.61 722.11 957.75 719.88
  C 949.29 715.99 933.81 708.23 926.11 712.48
  C 914.79 718.73 902.41 711.21 892.84 704.90
  C 886.57 700.76 880.36 696.72 874.35 691.99
  Q 849.72 672.60 824.43 654.08
  Q 819.45 650.44 814.03 647.21
  A 1.05 1.05 0.0 0 0 812.48 648.40
  C 814.24 654.60 821.24 662.64 825.54 667.44
  Q 850.19 694.95 875.58 715.17
  C 887.85 724.95 898.10 731.92 905.74 742.22
  A 0.94 0.94 0.0 0 1 904.77 743.70
  C 902.04 743.06 899.25 741.91 896.62 740.36
  Q 851.94 714.00 815.76 676.73
  C 790.41 650.61 763.79 620.34 744.70 588.74
  Q 725.88 557.61 721.56 520.00
  C 712.61 442.00 726.04 359.98 761.61 289.89
  C 773.33 266.81 789.47 247.71 806.95 228.86
  A 0.31 0.31 0.0 0 1 807.45 229.20
  L 806.41 231.38
  Z"
/>
<path fill="#000000" d="
  M 539.69 687.46
  A 1.69 1.68 20.7 0 0 537.44 688.47
  C 535.53 694.07 536.33 700.55 536.27 706.36
  C 536.11 720.77 537.63 735.18 537.56 749.71
  A 0.83 0.83 0.0 0 1 536.15 750.30
  Q 535.44 749.61 534.96 748.38
  C 528.71 732.06 525.86 712.28 521.90 698.07
  C 518.21 684.81 513.64 673.60 508.15 661.73
  Q 505.24 655.43 503.73 649.85
  C 497.66 627.43 495.07 603.04 493.28 580.50
  Q 491.05 552.50 490.00 524.43
  Q 486.71 436.09 487.55 347.68
  Q 487.79 323.24 488.77 298.81
  Q 489.24 287.24 491.00 275.80
  Q 491.60 271.93 495.52 272.85
  A 1.11 1.10 -60.0 0 0 496.52 272.58
  C 500.95 268.53 501.18 258.62 501.22 253.87
  Q 501.22 253.36 500.97 252.93
  C 500.76 252.59 500.62 252.36 500.63 251.94
  Q 500.88 242.64 503.14 228.18
  C 504.36 220.35 510.38 220.58 517.26 221.22
  C 524.70 221.91 534.39 224.96 542.25 228.09
  Q 598.16 250.35 641.81 291.19
  C 673.21 320.57 692.19 358.38 692.75 401.92
  Q 692.89 412.32 692.16 419.08
  C 688.47 453.15 669.60 478.50 645.38 501.30
  C 629.93 515.84 614.26 528.89 594.34 536.96
  C 587.92 539.56 579.71 541.55 579.09 550.23
  C 577.34 575.01 580.44 603.07 583.70 626.17
  C 588.53 660.34 595.12 697.92 597.41 729.06
  C 598.23 740.15 600.61 760.11 595.47 766.95
  A 1.44 1.43 11.8 0 1 594.66 767.48
  C 591.43 768.29 589.94 766.55 589.49 763.41
  C 588.18 754.11 576.94 753.31 570.81 748.23
  C 562.26 741.15 557.73 730.36 554.49 720.04
  C 551.97 712.03 545.07 689.72 539.69 687.46
  Z
  M 576.45 448.49
  A 1.58 1.56 -36.1 0 0 577.77 448.69
  Q 581.12 447.69 584.23 445.21
  C 597.36 434.72 605.97 420.75 606.11 403.07
  Q 606.12 402.51 606.52 402.11
  L 607.53 401.10
  Q 607.90 400.73 607.88 400.20
  C 607.04 378.89 595.25 359.90 581.02 344.47
  Q 578.68 341.93 575.98 340.97
  A 1.54 1.54 0.0 0 0 573.99 341.98
  Q 571.80 349.36 571.44 357.50
  Q 569.87 393.01 571.69 428.50
  C 571.93 433.15 572.39 445.71 576.45 448.49
  Z"
/>
<path fill="#000000" d="
  M 446.25 940.71
  C 423.08 945.02 407.46 930.43 403.30 908.71
  Q 399.83 890.58 403.11 872.31
  C 407.64 847.14 426.44 833.93 451.91 839.88
  Q 461.50 842.12 468.10 849.69
  A 0.74 0.74 0.0 0 1 468.13 850.63
  L 463.13 857.33
  Q 462.10 858.71 460.87 857.50
  C 447.25 844.13 423.32 846.01 416.88 865.86
  Q 413.05 877.68 413.59 889.68
  A 0.87 0.87 0.0 0 0 415.24 890.02
  Q 422.31 875.47 438.16 874.04
  C 457.52 872.29 469.91 883.12 472.11 901.42
  C 474.38 920.38 466.34 936.97 446.25 940.71
  Z
  M 425.19 926.56
  C 436.93 934.92 455.72 931.30 459.29 915.50
  C 462.41 901.66 458.55 886.20 442.08 884.24
  Q 428.88 882.67 421.73 891.65
  C 414.33 900.97 415.19 919.45 425.19 926.56
  Z"
/>
<path fill="#000000" d="
  M 666.49 888.51
  A 0.79 0.79 0.0 0 0 664.98 888.20
  C 657.33 904.22 639.16 909.04 623.68 901.58
  C 610.61 895.27 606.03 879.00 608.21 865.47
  C 611.44 845.45 628.27 836.14 647.49 838.99
  C 664.71 841.55 673.86 853.50 676.81 869.83
  C 681.00 893.05 679.78 934.60 648.94 940.64
  C 632.22 943.91 614.81 937.99 609.74 920.10
  A 0.92 0.92 0.0 0 1 610.24 919.02
  L 618.31 915.30
  A 1.24 1.23 -22.9 0 1 619.98 915.97
  C 623.15 924.19 627.53 929.32 636.72 930.47
  C 662.05 933.63 667.37 907.75 666.49 888.51
  Z
  M 621.57 881.97
  C 627.29 899.94 656.34 898.12 661.84 880.82
  C 667.72 862.30 655.77 845.28 635.34 849.74
  C 620.06 853.07 617.54 869.32 621.57 881.97
  Z"
/>
<path fill="#000000" d="
  M 537.25 854.26
  A 1.10 1.10 0.0 0 0 535.65 853.28
  Q 524.37 859.03 511.95 861.55
  A 0.59 0.58 -5.7 0 1 511.25 860.98
  L 511.25 851.27
  A 0.52 0.51 84.6 0 1 511.66 850.76
  Q 525.60 847.85 538.12 841.11
  C 541.33 839.38 544.78 839.96 548.26 840.01
  A 0.50 0.50 0.0 0 1 548.75 840.51
  L 548.75 929.75
  Q 548.75 930.25 549.25 930.25
  L 572.35 930.25
  Q 573.20 930.25 573.20 931.10
  L 573.27 939.33
  A 0.67 0.67 0.0 0 1 572.60 940.00
  L 510.45 940.00
  Q 509.90 940.00 509.89 939.45
  L 509.73 931.05
  A 0.78 0.78 0.0 0 1 510.51 930.25
  L 536.75 930.25
  Q 537.25 930.25 537.25 929.75
  L 537.25 854.26
  Z"
/>
</svg>
