<?xml version="1.0" encoding="utf-8"?>
<!-- Generator: Adobe Illustrator 23.0.5, SVG Export Plug-In . SVG Version: 6.00 Build 0)  -->
<svg version="1.1" id="Capa_1" xmlns="http://www.w3.org/2000/svg" xmlns:xlink="http://www.w3.org/1999/xlink" x="0px" y="0px"
	 viewBox="0 0 1080 1080" style="enable-background:new 0 0 1080 1080;" xml:space="preserve">
<style type="text/css">
	.st0{fill:#FFFFFF;}
</style>
<path class="st0" d="M250.3,450.3c-0.2,1.5-0.6,3.3-0.6,4.9c-0.1,15.8-0.1,28.1,0.1,37c1.8,70.7,3.9,131.7,6.1,183.3
	c1.2,27.9,1.6,53.3,1.2,76.4c-0.1,7-0.2,13.5-1.3,20.8c-0.2,1-1,1.8-2,1.8c-8.2,0.1-7.8-22.4-16.9-26.7c-0.2-0.1-1.8-0.5-4.6-1.1
	c-8-1.7-11.7-17.8-13-24.8c-2.1-11.1-4.6-22.1-7.5-33c-0.9-3.3-2.1-6.3-3.6-9.2c-0.3-0.5-0.9-0.7-1.4-0.4c-0.2,0.1-0.3,0.2-0.4,0.4
	c-2.6,4.2-2.9,11.2-3.3,16.1c-1.4,17.8-1.8,36.5-1.3,56c0,0.3-0.1,0.5-0.3,0.7c-0.3,0.3-0.4,0.2-0.5-0.2
	c-3.8-25.4-7.9-48.5-12.4-69.3c-1.9-8.8-4.7-17.9-8.4-27.2c-5.4-13.6-7-29.2-8.1-44.3c-1.5-20.8-2.5-39.6-2.8-56.4
	c-1.2-69.7,0.9-139.3,6.5-208.7c2.1-26.7,5-52.2,8.5-76.3c0.8-5.7,2.2-11.6,4.2-17.6c1.7-5.2,9.3-1.3,9.3-9.5
	c0.1-13,20.9-31.9,29.5-40.8c0.3-0.3,0.8-0.3,1.1,0c0,0,0,0,0,0c5.2,5.5,11.2,11.1,15.6,16.5c12.3,15.3,21.6,34.1,29.5,52
	c9.4,21.2,22.5,53.6,39.5,97.1c11.5,29.7,23.7,59.1,35.9,88.6c4.2,10.1,9.2,21.2,15.1,33.4c1.4,2.9,3,5.4,4.7,7.5
	c0.2,0.3,0.6,0.3,0.9,0.1c0,0,0,0,0.1-0.1c3.6-3.8,4.2-30.3,4.2-31.1c-2.6-62.6-12.8-129.9-16.9-198.4c-0.6-9.8-0.9-20.1,0-30.1
	c0.5-5.5,0.8-11.1,0.9-16.6c0.4-14.6,2.3-28.9,5.6-43.1c1-4.2,4.3-21.2,9.5-20.6c1.2,0.1,1.9,0.8,2.3,2c3.7,11.8,1,25.2,3.1,37.5
	c1,5.9,1.4,10.2,6.6,12.9c7.3,3.9,9,11.5,10.1,19c5.6,40.7,7.6,64.9,15.6,96.3c0.7,2.9,1.9,5.5,3.3,8c0.3,0.7,1.2,0.9,1.8,0.6
	c0.3-0.2,0.5-0.4,0.7-0.8c2.3-6.3,2.1-16.1,2.1-22.9c-0.1-22.7-1.5-45.5-1.5-68.2c0-11.1-0.7-22.6,1.2-33.6c0.1-0.8,0.8-1.3,1.6-1.1
	c0.2,0,0.4,0.1,0.6,0.3c3.7,2.8,3.8,10.7,3.9,14.9c0.3,25.3,2.4,50.5,6.1,75.6c3.9,26.7,8,57.7,17.5,84.2
	c4.4,12.3,5.9,26.5,6.8,39.5c2.2,31.6,2.2,63.1,0,94.7c-2.5,35.2-9.4,68.4-26.8,99.4c-12.8,22.9-36.7,44.5-65.3,38.1
	c-23-5.1-38.1-26-47.8-46.1c-6.5-13.5-12.4-27.2-17.8-41.1c-14.9-38.7-28.9-78-44.8-116.3c-0.2-0.6-0.9-0.8-1.4-0.6
	C250.6,449.6,250.4,450,250.3,450.3z"/>
<path class="st0" d="M806.4,231.4c-0.1,0.2,0,0.4,0.2,0.5c0.1,0.1,0.3,0,0.4-0.1c15.1-16,37.2-37.7,59.1-43.2
	c16.2-4.1,37.9-5.3,53,2c15.4,7.4,22.8,21.9,26.3,38.1c4.8,22.4,6.1,46.9,6.5,69.2c0.4,20.8,1.5,149.3-15.5,157.7
	c-0.3,0.1-0.6,0.2-1,0.1c-9-1.3-12.7,3.2-19.4,5.2c-1.7,0.5-4.7,0.9-9.1,1.3c-13.5,1.1-27.8,0.5-41.3,0.4c-0.4,0-0.6-0.2-0.6-0.6
	c-0.1-9.8,0.6-22.5,0.7-29.3c0.8-31.4,2.7-62.8,5.6-94.1c1.2-12.3,1.5-24,1.1-34.9c-0.1-3.5-1-7.1-2.5-10.8
	c-0.1-0.3-0.4-0.5-0.7-0.7c-4.1-1.4-10.3,5.8-12.5,8.4c-21.8,26.6-32.9,59.4-41.4,92.2c-7.9,30.4-11.7,61.4-11.6,92.9
	c0.2,39,12.6,75.4,36.1,106.6c20.7,27.5,46.5,51.7,72.7,73.8c20.6,17.3,41.3,34.6,61.9,51.9c1.8,1.5,4.5,2.5,6.3,4.4
	c1,1.1,0.8,2-0.4,2.7c-5,2.8-17.8-3.1-22.7-5.3c-8.5-3.9-23.9-11.7-31.6-7.4c-11.3,6.3-23.7-1.3-33.3-7.6
	c-6.3-4.1-12.5-8.2-18.5-12.9c-16.4-12.9-33.1-25.6-49.9-37.9c-3.3-2.4-6.8-4.7-10.4-6.9c-0.5-0.3-1.1-0.1-1.4,0.4
	c-0.2,0.2-0.2,0.6-0.1,0.8c1.8,6.2,8.8,14.2,13.1,19c16.4,18.3,33.1,34.3,50,47.7c12.3,9.8,22.5,16.8,30.2,27c0.3,0.4,0.2,1-0.2,1.3
	c-0.2,0.2-0.5,0.2-0.8,0.2c-2.7-0.6-5.5-1.8-8.2-3.3c-29.8-17.6-56.7-38.8-80.9-63.6c-25.4-26.1-52-56.4-71.1-88
	c-12.5-20.8-20.3-43.7-23.1-68.7c-9-78,4.5-160,40-230.1c11.7-23.1,27.9-42.2,45.3-61c0.1-0.1,0.3-0.1,0.4,0
	c0.1,0.1,0.1,0.2,0.1,0.3L806.4,231.4z"/>
<path class="st0" d="M539.7,687.5c-0.9-0.4-1.8,0-2.2,0.9c0,0,0,0.1,0,0.1c-1.9,5.6-1.1,12.1-1.2,17.9c-0.2,14.4,1.4,28.8,1.3,43.4
	c0,0.5-0.4,0.8-0.8,0.8c-0.2,0-0.4-0.1-0.6-0.2c-0.5-0.5-0.9-1.1-1.2-1.9c-6.3-16.3-9.1-36.1-13.1-50.3
	c-3.7-13.3-8.3-24.5-13.8-36.3c-1.9-4.2-3.4-8.2-4.4-11.9c-6.1-22.4-8.7-46.8-10.5-69.3c-1.5-18.7-2.6-37.4-3.3-56.1
	c-2.2-58.9-3-117.8-2.5-176.8c0.2-16.3,0.6-32.6,1.2-48.9c0.3-7.7,1.1-15.4,2.2-23c0.4-2.6,1.9-3.6,4.5-2.9c0.4,0.1,0.7,0,1-0.3
	c4.4-4,4.7-14,4.7-18.7c0-0.3-0.1-0.7-0.3-0.9c-0.2-0.3-0.4-0.6-0.3-1c0.2-6.2,1-14.1,2.5-23.8c1.2-7.8,7.2-7.6,14.1-7
	c7.4,0.7,17.1,3.7,25,6.9c37.3,14.8,70.5,35.9,99.6,63.1c31.4,29.4,50.4,67.2,50.9,110.7c0.1,6.9-0.1,12.7-0.6,17.2
	c-3.7,34.1-22.6,59.4-46.8,82.2c-15.5,14.5-31.1,27.6-51,35.7c-6.4,2.6-14.6,4.6-15.3,13.3c-1.8,24.8,1.3,52.8,4.6,75.9
	c4.8,34.2,11.4,71.8,13.7,102.9c0.8,11.1,3.2,31-1.9,37.9c-0.2,0.3-0.5,0.5-0.8,0.5c-3.2,0.8-4.7-0.9-5.2-4.1
	c-1.3-9.3-12.5-10.1-18.7-15.2c-8.5-7.1-13.1-17.9-16.3-28.2C552,712,545.1,689.7,539.7,687.5z M576.5,448.5
	c0.4,0.3,0.9,0.3,1.3,0.2c2.2-0.7,4.4-1.8,6.5-3.5c13.1-10.5,21.7-24.5,21.9-42.1c0-0.4,0.1-0.7,0.4-1l1-1c0.2-0.2,0.4-0.5,0.3-0.9
	c-0.8-21.3-12.6-40.3-26.9-55.7c-1.6-1.7-3.2-2.9-5-3.5c-0.8-0.3-1.7,0.1-2,0.9c0,0,0,0,0,0.1c-1.5,4.9-2.3,10.1-2.5,15.5
	c-1,23.7-1,47.3,0.3,71C571.9,433.1,572.4,445.7,576.5,448.5z"/>
<path class="st0" d="M446.3,940.7c-23.2,4.3-38.8-10.3-43-32c-2.3-12.1-2.4-24.2-0.2-36.4c4.5-25.2,23.3-38.4,48.8-32.4
	c6.4,1.5,11.8,4.8,16.2,9.8c0.2,0.3,0.2,0.7,0,0.9l-5,6.7c-0.7,0.9-1.4,1-2.3,0.2c-13.6-13.4-37.5-11.5-44,8.4
	c-2.6,7.9-3.7,15.8-3.3,23.8c0,0.5,0.4,0.8,0.9,0.8c0.3,0,0.6-0.2,0.7-0.5c4.7-9.7,12.4-15,22.9-16c19.4-1.8,31.8,9.1,33.9,27.4
	C474.4,920.4,466.3,937,446.3,940.7z M425.2,926.6c11.7,8.4,30.5,4.7,34.1-11.1c3.1-13.8-0.7-29.3-17.2-31.3
	c-8.8-1-15.6,1.4-20.3,7.4C414.3,901,415.2,919.5,425.2,926.6z"/>
<path class="st0" d="M666.5,888.5c0-0.4-0.4-0.8-0.8-0.8c-0.3,0-0.6,0.2-0.7,0.5c-7.6,16-25.8,20.8-41.3,13.4
	c-13.1-6.3-17.6-22.6-15.5-36.1c3.2-20,20.1-29.3,39.3-26.5c17.2,2.6,26.4,14.5,29.3,30.8c4.2,23.2,3,64.8-27.9,70.8
	c-16.7,3.3-34.1-2.7-39.2-20.5c-0.1-0.4,0.1-0.9,0.5-1.1l8.1-3.7c0.6-0.3,1.4,0,1.6,0.6c0,0,0,0,0,0.1c3.2,8.2,7.6,13.4,16.7,14.5
	C662,933.6,667.4,907.8,666.5,888.5z M621.6,882c5.7,18,34.8,16.2,40.3-1.1c5.9-18.5-6.1-35.5-26.5-31.1
	C620.1,853.1,617.5,869.3,621.6,882z"/>
<path class="st0" d="M537.3,854.3c0-0.6-0.5-1.1-1.1-1.1c-0.2,0-0.3,0-0.5,0.1c-7.5,3.8-15.4,6.6-23.7,8.3c-0.3,0.1-0.6-0.1-0.7-0.5
	c0,0,0-0.1,0-0.1v-9.7c0-0.2,0.2-0.5,0.4-0.5c9.3-1.9,18.1-5.2,26.5-9.7c3.2-1.7,6.7-1.1,10.1-1.1c0.3,0,0.5,0.2,0.5,0.5v89.2
	c0,0.3,0.2,0.5,0.5,0.5h23.1c0.6,0,0.9,0.3,0.9,0.8l0.1,8.2c0,0.4-0.3,0.7-0.7,0.7l0,0h-62.1c-0.4,0-0.6-0.2-0.6-0.5l-0.2-8.4
	c0-0.4,0.3-0.8,0.8-0.8c0,0,0,0,0,0h26.2c0.3,0,0.5-0.2,0.5-0.5V854.3z"/>
</svg>
