<?xml version="1.0" encoding="utf-8"?>
<!-- Generator: Adobe Illustrator 23.0.5, SVG Export Plug-In . SVG Version: 6.00 Build 0)  -->
<svg version="1.1" id="Capa_1" xmlns="http://www.w3.org/2000/svg" xmlns:xlink="http://www.w3.org/1999/xlink" x="0px" y="0px"
	 viewBox="0 0 400 120" style="enable-background:new 0 0 400 120;" xml:space="preserve">
<path d="M312.7,72.5C312.7,72.5,312.7,72.5,312.7,72.5l-21.7,3c-0.2,0-0.3,0.1-0.4,0.2l-14.8,15.6c0,0-0.1,0-0.2,0c0,0,0-0.1,0-0.2
	c1.2-4.2,2.7-8.2,4.5-12.3c6.6-15.2,14.6-29.3,24-42.5c1.9-2.7,4.2-5.3,6.9-7.8c0.1-0.1,0.2-0.1,0.3,0l8.5,5.6
	c0.1,0.1,0.3,0.3,0.3,0.4l3,23.2c0,0.1,0.1,0.3,0.3,0.3l5.1,1.9c0.1,0,0.2,0.2,0.2,0.3v0l-4.5,7.7c0,0.1-0.1,0.2-0.1,0.3v18.5
	c0,0.2-0.1,0.3-0.2,0.3l-1.1,0.6c-0.1,0.1-0.3,0-0.4-0.1L312.7,72.5z M309.2,56.2c0-0.1-0.1-0.1-0.2-0.1c0,0,0,0-0.1,0l-4.5,5.8
	c0,0,0,0.2,0,0.2c0,0,0.1,0,0.1,0l5.5-1.1c0.1,0,0.1-0.1,0.1-0.2L309.2,56.2z"/>
<path d="M171.7,58.1l5.1,1.9c0.1,0,0.2,0.1,0.1,0.3l-4.5,7.8c-0.1,0.1-0.1,0.3-0.1,0.4v18.4c0,0.2-0.1,0.3-0.3,0.4l-1,0.5
	c-0.2,0.1-0.3,0-0.4-0.1l-9.3-15c-0.1-0.2-0.3-0.2-0.4-0.2l-21.4,3c-0.2,0-0.3,0.1-0.4,0.2l-14.8,15.8c0,0-0.1,0-0.2,0
	c0,0,0-0.1,0-0.1c1.3-4.4,2.8-8.5,4.7-12.8c6.3-14.2,13.7-27.6,22.5-40.2c2.1-3,5.2-7.5,8.3-9.8c0.1-0.1,0.2-0.1,0.3,0l8.3,5.4
	c0.3,0.2,0.4,0.4,0.4,0.7l3,23C171.5,57.9,171.6,58,171.7,58.1z M157.4,56.3l-4.5,5.7c0,0,0,0.1,0,0.1c0,0,0,0,0.1,0l5.5-1.1
	c0.1,0,0.2-0.1,0.2-0.3l-0.9-4.5C157.7,56.1,157.6,56,157.4,56.3z"/>
<path d="M272.9,58.1l5.1,2c0.1,0,0.2,0.2,0.1,0.3v0c-1.1,1.8-4.7,6.9-4.7,8.9c0,6,0,11.8,0,17.5c0,0.6-0.5,1-1,1
	c-0.3,0-0.7-0.2-0.9-0.5l-9-14.6c-0.1-0.2-0.3-0.3-0.5-0.3l-21.3,3c-0.1,0-0.3,0.1-0.3,0.2l-14.9,15.7c0,0-0.1,0-0.2,0
	c0,0,0-0.1,0-0.1c5.2-17.1,14.6-34,24.4-48.9c3.1-4.7,6.8-10.2,11.1-13.8c0.1-0.1,0.3-0.1,0.4,0l8.4,5.5c0.2,0.1,0.3,0.3,0.3,0.5
	l3,23.2C272.7,58,272.8,58,272.9,58.1z M259,56.2c0-0.1-0.1-0.1-0.2-0.1c0,0,0,0-0.1,0l-4.5,5.8c0,0,0,0.1,0,0.2c0,0,0.1,0,0.1,0
	l5.4-1.1c0.1,0,0.1-0.1,0.1-0.2L259,56.2z"/>
<path d="M71.6,74.6v-0.3c1.3-1.9,2.1-3.4,2.3-4.3c2.1-8.7,3.9-17.1,7.2-25.9c0.8-2.1,2.9-7.2,6.3-15.1c0-0.1,0.1-0.2,0.3-0.1
	l9.6,3.3c0.1,0,0.2,0.1,0.2,0.2l8.7,17.7c0.1,0.1,0.2,0.2,0.3,0.1c3.9-2.5,7.9-4.9,11.8-7.4c0.6-0.4,1.1-0.9,1.5-1.5
	c2.8-4,5.6-8.1,8.5-12.3c0.2-0.3,0.6-0.3,0.9-0.2c0,0,0,0,0,0l8.1,6.7c0.1,0.1,0.1,0.2,0.1,0.3c-0.6,2.6-1.5,5.4-2.7,8.6
	c-6.5,17.2-11.6,30.6-15.2,40.1c0,0.1-0.2,0.3-0.3,0.3l-5.1,1.8c-0.1,0-0.2,0-0.3-0.1c-0.7-2-1.8-4.5-1.7-6.6
	c0.4-5.8,1.2-11.5,0.5-17c0-0.1-0.1-0.2-0.2-0.1c0,0-0.1,0-0.1,0.1c-1.2,1.9-2.6,3.6-4.2,5.3c-5.7,5.7-12.5-3.9-15.7-7.6
	c0-0.1-0.2-0.1-0.2,0l0,0L76,91.3c0,0.1-0.1,0.1-0.2,0l0,0C69.2,86.8,76.4,79.9,71.6,74.6z"/>
<path d="M197.8,74.1l22.4-3.7c0.2,0,0.5,0,0.6,0.3l3.8,5c0,0,0,0.2,0,0.2l0,0c-11.8,8.4-25.4,12.6-39.4,14.9c-0.1,0-0.3,0-0.3-0.1
	c-2.9-3.1-3.9-6.9-2.6-11c1.9-5.7,4.1-11.6,5.8-17c2.6-8,5.2-16,7.8-23.9c0.9-2.9,1.8-4.8,2.6-5.8c1.4-1.8,3.2-2.9,5.6-3.6
	c0.1,0,0.3,0,0.4,0l6.3,2.9c0.3,0.1,0.5,0.4,0.4,0.7c-0.4,6-1.8,11.7-3.9,17c-3.2,7.9-7.1,15.7-9.6,23.9
	C197.6,74.1,197.7,74.2,197.8,74.1z"/>
</svg>
