<?xml version="1.0" encoding="utf-8"?>
<!-- Generator: Adobe Illustrator 23.0.5, SVG Export Plug-In . SVG Version: 6.00 Build 0)  -->
<svg version="1.1" id="Capa_1" xmlns="http://www.w3.org/2000/svg" xmlns:xlink="http://www.w3.org/1999/xlink" x="0px" y="0px"
	 viewBox="0 0 400 120" style="enable-background:new 0 0 400 120;" xml:space="preserve">
<style type="text/css">
	.st0{fill:#020202;}
</style>
<path class="st0" d="M90.5,67.3C87.2,54,92.3,39,106.8,35.5c13.9-3.4,26.8,4.3,29.3,18.6c2.3,12.8-3.2,26.2-16.4,29.8
	C106.6,87.5,93.8,80.6,90.5,67.3z M104.1,49.3c-1,1.1-3.8,4.9-0.3,4.9c6.2,0,12.3,0,18.5,0c1,0,2-0.6,1.6-1.7
	C120.9,44.9,109.5,43.1,104.1,49.3z M101.2,62.3c-0.1,0.2-0.2,0.5-0.1,0.7c1.1,6.8,5.6,11.4,13,10.8c6-0.5,10.1-4.6,10.8-10.6
	c0.3-2.6-4.2-1.9-5.7-1.8c-0.2,0-0.2,0.1-0.2,0.2c-0.2,2.8-1.2,5.7-4,6.7c-5,1.8-7.4-2.5-7.7-6.7c0-0.2-0.1-0.2-0.3-0.2
	C105.6,61.4,101.9,61,101.2,62.3z M112.6,61.4l-2.7,0c-0.2,0-0.4,0.2-0.4,0.4l0,0V62c0,1.7,0.8,3.1,1.8,3h0.2c0.9,0,1.6-1.4,1.6-3.1
	l0,0v-0.2C113,61.6,112.8,61.4,112.6,61.4L112.6,61.4z"/>
<path class="st0" d="M139.1,53.6c4.6-24.3,38.8-25.3,45.5-1.7c0.3,1,0.1,1.7-0.6,2.3c-0.1,0.1-0.3,0.1-0.4,0.1
	c-2.1,0.1-6.6,0.5-9.6-0.1c-0.2,0-0.3-0.1-0.4-0.3c-0.4-0.8-0.8-1.5-1.3-2.3c-2.4-4.6-6.7-6.3-11.6-5.9c-5.3,0.5-9.1,3.7-10.3,9
	c-2.7,11.6,2.9,21.3,16,18.7c5.2-1,6.5-4.8,7.7-9.4c0.1-0.5,0.6-0.8,1.1-0.8h8.9c0.1,0,0.3,0.1,0.4,0.1c0.7,0.6,0.9,1.3,0.7,2.2
	c-1.4,8.6-8.1,16.1-16.6,18.3c-8.7,2.2-18.7,0.1-24.6-7C138.9,70.5,137.6,61.6,139.1,53.6z"/>
<path class="st0" d="M51.6,64.4c1,0.7,1.7,0.3,2.1-0.7c3.8-9.3,7.6-18.5,11.3-27.6c0.1-0.3,0.4-0.5,0.7-0.5h20.9
	c0.6,0,1.1,0.5,1.1,1.1v46.1c0,0.7-0.6,1.3-1.3,1.3l0,0h-8.8c-0.7,0-1.3-0.6-1.3-1.3l0,0c0.1-11.8-0.1-23.6,0-35.4
	c0-2.1-2.6-1.7-3.8-1.4c-0.1,0-0.2,0.1-0.3,0.3l-15.2,37c-0.2,0.5-0.6,0.7-1.1,0.7h-7.6c-0.4,0-0.7-0.2-0.8-0.5l-6.1-14.9
	c-0.1-0.1-0.2-0.3-0.3-0.4c-1.6-1.1-2.1,0.8-2.1,1.9c0,4.3,0,8.5,0,12.6c0,0.7-0.6,1.2-1.2,1.2h-8.8c-0.6,0-1.1-0.5-1.1-1.1l0,0
	V36.6c0-0.6,0.5-1.1,1.1-1.1l0,0h9.8c0.3,0,0.6,0.2,0.8,0.5l11.6,28.1C51.4,64.2,51.5,64.3,51.6,64.4z"/>
<path class="st0" d="M201.9,71.9c-1.7,0-2.7,0.4-2.7,2.3c0,2.8,0,5.6,0,8.2c0,0.9-0.7,1.6-1.6,1.6l0,0h-8c-0.9,0-1.6-0.7-1.6-1.6V37
	c0-0.8,0.7-1.5,1.5-1.5h8.2c0.8,0,1.4,0.6,1.4,1.4l0.1,24.2c0,1.4,0.7,2,2.1,2h16c1,0,1.8-0.8,1.8-1.8V37.1c0-0.9,0.7-1.6,1.6-1.6
	l0,0h8.1c0.8,0,1.5,0.7,1.5,1.5l0,0v45.2c0,1-0.8,1.8-1.8,1.8h-7.7c-0.9,0-1.6-0.7-1.6-1.6v-8.8c0-0.9-0.7-1.7-1.7-1.7
	C212.3,71.9,207.1,71.9,201.9,71.9z"/>
<path class="st0" d="M252.3,35.7c0.1-0.1,0.2-0.2,0.4-0.2h8.3c0.3,0,0.6,0.2,0.7,0.5l19.1,46.4c0.2,0.6,0,1.3-0.7,1.6
	c-0.1,0.1-0.3,0.1-0.5,0.1h-9.4c-0.5,0-0.9-0.3-1.1-0.7l-4.3-10.6c-0.2-0.5-0.7-0.8-1.3-0.8h-13.8c-0.5,0-0.9,0.3-1.1,0.7l-4.4,10.7
	c-0.2,0.4-0.6,0.7-1,0.7H234c-0.7,0-1.2-0.6-1.2-1.2c0-0.2,0-0.3,0.1-0.5c6.2-15.1,12.4-30.3,18.7-45.5
	C251.8,36.5,252,36.1,252.3,35.7z M253.4,61.6c-0.2,0.6,0,1.3,0.7,1.5c0.1,0.1,0.3,0.1,0.5,0.1h4.7c0.7,0,1.2-0.5,1.2-1.2
	c0-0.1,0-0.3-0.1-0.5l-2.3-5.7c-0.2-0.6-0.9-0.9-1.5-0.6c-0.3,0.1-0.5,0.4-0.6,0.6L253.4,61.6z"/>
<path class="st0" d="M296.8,51.6c4.9-5.4,10-10.7,15.1-15.9c0.1-0.1,0.2-0.1,0.4-0.1h12.1c0.6,0,1.2,0.5,1.2,1.2
	c0,0.3-0.1,0.6-0.3,0.8l-17.4,18.3c-0.5,0.5-0.5,1.1-0.1,1.6l18.1,24.8c0.4,0.5,0.3,1.3-0.2,1.6c-0.2,0.1-0.5,0.2-0.7,0.2h-11.2
	c-0.2,0-0.4-0.1-0.5-0.3l-13-17.9c-0.4-0.5-1.1-0.7-1.7-0.3c-0.1,0-0.1,0.1-0.2,0.1l-3.5,3.7c-0.1,0.1-0.2,0.2-0.2,0.4v13
	c0,0.6-0.5,1.1-1.1,1.1h-8.8c-0.8,0-1.3-0.4-1.3-1.3V36.4c0-0.5,0.4-0.9,0.9-0.9h9.2c0.6,0,1,0.5,1,1V51c0,0.3,0.1,0.6,0.4,0.7
	C295.6,52.3,296.2,52.2,296.8,51.6z"/>
<path class="st0" d="M344,65.8l-3.3,3.5c-0.2,0.2-0.3,0.5-0.3,0.8v12.7c0,0.7-0.5,1.2-1.2,1.2l0,0h-8.8c-0.7,0-1.2-0.5-1.2-1.2l0,0
	V36.7c0-0.7,0.5-1.2,1.2-1.2l0,0h8.8c0.7,0,1.2,0.5,1.2,1.2l0,0V51c0,0.7,0.5,1.2,1.2,1.2c0.3,0,0.7-0.1,0.9-0.4l15-15.9
	c0.2-0.2,0.5-0.4,0.9-0.4h11.8c0.7,0,1.2,0.5,1.2,1.2c0,0.3-0.1,0.6-0.3,0.8l-17.3,18.2c-0.4,0.4-0.5,1.1-0.1,1.5l18.1,24.8
	c0.4,0.5,0.3,1.3-0.3,1.7c-0.2,0.1-0.5,0.2-0.7,0.2h-10.9c-0.4,0-0.7-0.2-1-0.5L345.9,66c-0.4-0.5-1.2-0.7-1.7-0.3
	C344.1,65.7,344.1,65.7,344,65.8z"/>
</svg>
