<?xml version="1.0" encoding="utf-8"?>
<!-- Generator: Adobe Illustrator 23.0.5, SVG Export Plug-In . SVG Version: 6.00 Build 0)  -->
<svg version="1.1" id="Capa_1" xmlns="http://www.w3.org/2000/svg" xmlns:xlink="http://www.w3.org/1999/xlink" x="0px" y="0px"
	 viewBox="0 0 400 120" style="enable-background:new 0 0 400 120;" xml:space="preserve">
<g>
	<path d="M184.9,69.2c-1,1.8-2.1,3.5-3.4,5.1c-1.6,2.1-3.6,3.9-5.6,5.5c-0.5,0.4-1.1,0.8-1.7,1.1c-2.1,1.1-4.3,2.3-6.5,3.3
		c-0.2,0.1-0.4,0.1-0.7,0.2c-0.5,0.1-1.1,0.1-1.6,0.1c-2.5-0.2-6-1.6-7.9-3.4c-4.7-4.2-6-10.3-5.4-16.4c0,0,0-0.1-0.1-0.1
		c0,0-0.1,0-0.1,0l-0.8,2.5c-0.1,0.1-0.1,0.2-0.3,0.1c-0.3-0.2-0.2-1.3-0.2-1.6c0.3-1.6,0.6-3.2,0.9-4.8c0.2-1.1,0.1-2.3,0.6-3.4
		c0.2-0.6-0.3-1.1-0.7-1.6c0,0,0-0.1,0-0.1l1.1-4.1c0-0.1,0-0.1-0.1-0.1c0,0,0,0,0,0c-0.2,0-0.6,0-0.7-0.1c-0.1-0.1-0.1-0.2-0.1-0.4
		c0.9-2.1,2.1-4.2,3.7-6.1c0.7-0.9,2.3-1.6,2-3c0,0,0-0.1,0-0.1c0.1-0.1,0.1-0.2,0.1-0.3c1.2-1.5,2.6-2.5,4.1-3.7
		c1.4-1.1,3.1-1.8,4.8-2.3c0.2-0.1,0.3-0.1,0.4-0.3c1.3-1.2,3.3-1.5,5-1.5c0.1,0,0.1,0,0.1-0.1l0-0.7c0-0.1,0-0.1,0.1-0.1l0.3-0.1
		c0.1,0,0.1-0.1,0.1-0.1v0l-0.1-0.1c0,0,0-0.1,0-0.1c0.3-0.1,0.5,0,0.6,0.1c0.6,0.5,1.2,0.8,2,0.8c0.5,0,1-0.1,1.5,0.1
		c1.1,0.5,2.1,1.4,3,2.2c0,0,0.1,0,0.1,0c0.8-0.3,1.7-0.6,2.2,0.3c0,0.1,0,0.2,0,0.3l-0.7,1.5c0,0,0,0.1,0,0.1
		c0.8,1.1,1.7,2.5,1.8,3.8c0,0.1,0,0.1-0.1,0.1c-0.6,0.2-1.2,0.1-1.8-0.1c0,0-0.1,0-0.1,0c-0.3,0.1-0.5,0.3-0.6,0.6
		c0,0.1,0,0.1,0,0.1c0.6,0.6,1.3,1,2.1,1.3c0.1,0,0.1,0,0.1,0l0.1-0.4c0,0,0-0.1,0.1-0.1c0.7-0.2,2-0.1,2.1,0.8
		c0.1,0.5-0.4,1-0.7,1.3c0,0,0,0.1,0,0.1c0,0,0,0,0,0c2.3,1.5,2.7,5.6,2.7,8.1c0,0,0,0.1,0,0.1c0.4,0.5,1,1.4,0.8,2.1
		c-0.5,1.9-0.8,3.9-1,5.8c0,0,0,0,0,0l0,0c0.6-2.3,1.2-4.7,1.8-7c0.1-0.3,0.1-0.6,0.1-0.9c0-1.6,0.4-3.2,1-4.7
		c0.1-0.2,0.2-0.5,0.2-0.8c0.1-0.8,0.4-1.6,0.7-2.4c0.1-0.2,0.2-0.4,0.2-0.6c0.1-1.5,0.3-3.2,0.9-4.6c0.2-0.4,0.5-0.7,0.7-0.9
		c0.2-0.3,0.4-0.6,0.6-1c0,0,0-0.1,0-0.1c0,0,0,0,0,0l-0.5-0.1c-0.1,0-0.1-0.1-0.1-0.2l0,0l0.7-3c0,0,0-0.1-0.1-0.1
		c-0.6-0.2-1.1-0.3-0.8-1.1c0-0.1,0-0.2-0.1-0.2c0,0-0.1,0-0.1,0c-0.7,0.2-1.4,0.1-2,0.2c-1.3,0.2-2.6,0.4-3.9,0.6
		c-1.2,0.2-2.2-0.3-3.5-1c-0.2-0.1-0.4-0.1-0.6-0.2c-0.7-0.1-1.3-0.6-2-1.1c-0.7-0.6-4.6-1-4.1-2.6c0.1-0.4,0.2-0.7,0.2-1.1
		c0-0.1,0-0.1-0.1-0.1c-0.7-0.1-1.5-0.4-2.1-0.7c-0.1,0-0.1-0.1-0.1-0.2c0,0,0-0.1,0.1-0.1c0.5-0.3,1-0.5,1.5-0.6
		c0.1,0,0.1-0.1,0.1-0.1c0,0,0-0.1-0.1-0.1c-1.2-0.2-2.6-0.4-3.6-0.9c-0.3-0.1-0.4-0.4-0.3-0.7c0,0,0-0.1,0.1-0.1
		c0.3,0,0.6-0.1,1-0.1c0.6,0,1.1,0.1,1.7,0.1c3.3,0,6.5-0.1,9.8-0.6c1-0.1,1.9-0.1,2.7,0.1c1.3,0.3,2.6,1,4.1,0.8
		c1.5-0.3,3.1-0.9,4.8-1.4c0.6-0.2,1.1-0.6,1.4-1.1c0,0,0-0.1,0-0.1c-0.8-1.2,0.5-1.4,1.4-1.3c0,0,0.1,0,0.1,0.1
		c0,0.6,0.3,0.9,0.9,0.9c0.1,0,0.1,0,0.1-0.1c0.2-0.5,0.5-0.9,0.9-1.2c0.1-0.1,0.2-0.1,0.2,0c0,0,0,0,0,0.1c0.1,0.4,0.4,0.6,0.7,0.8
		c0,0,0.1,0,0.1,0c0,0,0,0,0,0c0.2-0.9,0.6-2.7,1.3-3.3c0,0,0.1,0,0.1,0c0.5,0.5,0.2,2.2,0.1,2.9c0,0,0,0.1,0.1,0.1h0l0.3-0.1
		c0.1,0,0.1,0,0.1,0c0.2,0.2,0.3,0.5,0.2,0.9c0,0,0,0.1,0.1,0.1h0h0.4c0.1,0,0.1,0,0.1-0.1c1.1-2.2,2.1-4.4,2.9-6.7
		c0-0.1,0.1-0.1,0.2-0.2c0.3-0.1,0.4,0.1,0.4,0.4c-0.6,2-1,4-1.3,6c0,0.2-0.1,0.6-0.1,1c0,0,0,0.1,0.1,0.1c1.6,0,3.2,0,4.8,0
		c0.7,0,1.7,0.1,2.2,0.5c0.2,0.2,0.4,0.3,0.7,0.4c1.6,0.2,4,0.2,5.4-0.9c1.1-0.8,3.7,0.1,5.1,0c0.5,0,1-0.2,1.5,0
		c0.7,0.3,1.4,0.6,2.1,0.9c0.9,0.4,2,0,3,0.2c0,0,0.1,0,0.1,0c0.5-0.2,1.1-0.3,1.5-0.5c0.4-0.2,0.7-0.5,0.9-0.9c0,0,0-0.1,0-0.1
		c-0.7-1.2,0.5-1.4,1.4-1.3c0.1,0,0.1,0,0.1,0.1c0,0.6,0.3,0.9,0.9,0.9c0,0,0.1,0,0.1-0.1c0.2-0.5,0.5-0.9,0.9-1.2
		c0.1-0.1,0.2-0.1,0.2,0c0,0,0,0,0,0c0.1,0.3,0.3,0.5,0.5,0.7c0.2,0.2,0.3,0.1,0.4-0.1c0.2-0.9,0.5-2.2,1.1-3c0.1-0.1,0.2-0.1,0.2,0
		c0,0,0,0,0,0c0.4,0.6,0.1,2.1,0.1,2.8c0,0.1,0,0.1,0.1,0.1c0.7-0.3,0.7,0.4,0.7,0.9c0,0,0,0.1,0.1,0.1c0.2,0.1,0.4,0.1,0.5-0.2
		c1.1-2.1,2.1-4.3,2.9-6.6c0.1-0.1,0.2-0.2,0.4-0.2c0.2,0.1,0.2,0.2,0.1,0.4c-0.6,2.2-1.3,4.7-1.4,7c0,0.1,0,0.1,0.1,0.1
		c1.6,0,3.2,0,4.8,0c0.7,0,1.7,0.1,2.3,0.5c0.2,0.2,0.4,0.4,0.7,0.4c1.7,0.2,4.2,0.1,5.6-1c0,0,0.1,0,0.1-0.1c1.2-0.2,2.5,0,3.7,0.2
		c0.4,0.1,0.7,0.1,1.1,0.1c0.5,0,1-0.2,1.5,0c0.9,0.4,2.4,1.3,3.3,1.1c0.5-0.1,3.2-0.3,2.8,0.7c0,0.1-0.1,0.1-0.1,0.1l-1,0.4
		c-0.1,0-0.1,0.1-0.1,0.2c0,0.1,0.1,0.1,0.2,0.1c3.1,0.3,6.4,0.6,9.5,1.3c0.1,0,0.1,0.1,0.1,0.1l0,0.3c0,0,0,0.1-0.1,0.1
		c-0.7,0.2-1.4,0.3-2.1,0.3c-1.3-0.1-2.6-0.1-3.8-0.2c-0.5,0-1,0-1.4,0c-1.5,0.2-3.1,0.3-4.6,0.3c0,0-0.1,0-0.1,0.1
		c-0.7,0.8-2.2,1-3.3,1c-0.7,0-2.5-0.2-3.1,0.3c-0.1,0.1-0.1,0.2,0,0.3c0.1,0.1,0.2,0.2,0.3,0.4c0,0.1,0,0.1-0.1,0.1l-3,0.1
		c0,0,0,0,0,0c-0.2,0.1-0.6,0.4-0.8,0.1c0,0-0.1-0.1-0.1-0.1c-2.7-0.1-5.4-0.1-8.1-0.1c-0.6,0-1.3,0.5-1.8,0.9c0,0,0,0,0,0l-1.1,0.2
		c0,0-0.1,0-0.1,0c-0.7-0.1-1.3-0.1-1.9,0.1c-0.1,0-0.1,0.1-0.1,0.1c0,0.1,0.1,0.1,0.2,0.1c0.2,0,0.3,0,0.5,0.2
		c0,0.1,0.1,0.1,0.2,0.1c1.1-0.3,2.2-0.6,3.3-0.9c1.3-0.3,2.2,0.1,3.3,0.7c0.6,0.3,2.1,0.3,2.5,0.3c1-0.2,2-0.4,3.1-0.5
		c0.1,0,0.1,0,0.2,0.1c0.1,0.4,0.3,0.7,0.7,0.8c0,0,0.1,0,0.1,0c1.7-0.7,3.7-0.6,5.6-0.6c1,0,1.9,0.4,2.5,1c0.5,0.6,1.8,0.4,2.5,0.2
		c0.7-0.1,1.2-0.5,1.6-1c0.1-0.1,0.4-0.2,0.5-0.2c1.6,0,3.5,0.2,4.7,1.5c0,0,0,0,0.1,0l2.9,0.4c0,0,0.1,0,0.1,0.1
		c0.3,0.6-0.6,0.8-0.9,0.9c-0.1,0-0.1,0.1-0.1,0.1c0,0,0,0.1,0.1,0.1c1,0.4,2.2,0.6,3.3,0.8c0.8,0.1,1.7,0.5,2.5,0.6
		c0.1,0,0.1,0,0.1,0l0.8-0.8c0,0,0-0.1,0-0.1l-0.1-1.4c0-0.1,0-0.1,0.1-0.1l0.4-0.1c0.1,0,0.1,0,0.1,0.1c0.1,0.5,0.5,0.8,1,0.8
		c0,0,0.1,0,0.1,0l0.3-2.1c0,0,0-0.1,0-0.1l-0.3-0.6c0,0,0-0.1,0-0.1c0.3-0.9,1.7-1.3,1.9-0.2c0.1,0.6-0.4,1.1-0.4,1.8
		c0,0.5,0.1,1,0.1,1.5c0,0.1,0.1,0.1,0.1,0.1c0.1,0,0.1,0,0.1-0.1c0.1-0.4,0.3-0.6,0.7-0.5c0,0,0.1,0.1,0.1,0.1l0.2,1
		c0,0,0.1,0.1,0.1,0.1c0,0,0,0,0,0c1-0.8,1.6-1.8,2-2.9c0-0.1,0.2-0.2,0.3-0.1c0.1,0,0.1,0.1,0.1,0.1c0.1,0.3,0.1,0.6,0,1
		c-0.8,2-1.5,4.1-1.6,6.2c0,0,0,0.1,0,0.1l-0.1,0.1c0,0,0,0.1,0,0.1c0.3,1.3-0.1,2.1-0.4,3.3c0,0,0,0.1,0,0.1
		c0.7,1.3,1.6,2.5,2.1,3.8c1.5,3.7,2.9,7.8,3.2,11.8c0,0.3,0.1,0.6,0.2,0.9c0.7,2,1.3,4,1.8,6.1c0,0,0,0.1,0,0.1c0,0,0.1,0,0.1,0v0
		c0.5-2.4,1-4.8,1.7-7.1c0.2-0.8,0.6-1.8,1.1-2.6c0.3-0.4,0.6-0.7,0.7-1.2c1-2.3,1.5-4.9,1.9-7.3c0.2-1.5,0-2.6-0.1-4.1
		c0-0.1,0-0.2,0-0.3c0.7-2.4,1.2-4.8,1.8-7.3c0.1-0.5,0.1-1.1,0.2-1.5c0.3-1.3,1-2.6,1.6-3.8c0.2-0.3,0.3-0.6,0.3-1
		c0.4-2,0.8-4,1.1-6c0.1-0.5,0.2-0.8,0.5-1.2c0.1-0.1,0.1-0.1,0.2,0c0,0,0,0,0.1,0.1c0.3,0.7,0.2,1.4,0.3,2.2c0,0,0,0.1,0.1,0.1
		c0,0,0.1,0,0.1,0c0.8-1.5,0.7-3.5,1.1-5.1c0.6-2.4,1.3-4.9,1.8-7.3c0.1-0.4,0.2-0.8,0.5-1c0,0,0.1,0,0.1,0c0.2,0.5,0.3,0.8,0.3,1.1
		c-0.5,3.4-0.9,5.9-1.2,7.7c-0.1,0.6-0.1,1-0.1,1.2c0.1,1.1,0.2,2.4,0,3.5c-0.2,1-0.3,1.9-0.4,2.9c-0.1,1,0.3,2.1,0.6,3
		c0.1,0.3,0.1,0.5,0,0.8c-0.4,3.2-0.9,6.4-1,9.6c0,0,0,0.1,0.1,0.1c0,0,0.1,0,0.1,0c0.1-0.2,0.2-0.4,0.3-0.6
		c0.1-0.1,0.1-0.2,0.3-0.1c0.1,0,0.2,0.1,0.1,0.2c-0.5,3.4-1.2,6.7-2.1,10c-1.1,4-2,8.1-2.9,12.1c-0.2,0.9,0,1.9,0.3,2.8
		c0,0,0,0.1,0,0.1c-0.4,1.8-0.8,3.5-1.2,5.3c-0.2,0.9-0.1,2-0.1,2.7c0,0.6-0.5,1.2-1,1.6c0,0,0,0.1,0,0.1l0,1.9c0,0,0,0.1,0,0.1
		c-0.8,0.8-1.5,1.6-2.2,2.4c0,0-0.1,0.1-0.1,0.1c-0.9,0.1-0.8,0.9-1.4,1.3c-0.5,0.3-1,0.7-1.5,1.1c-0.1,0.1-0.2,0.1-0.3,0.1
		c-0.5-0.1-1.1-0.4-1.7-0.3c-0.5,0.1-1,0.1-1.5,0.2c0,0-0.1,0-0.1-0.1v0v-0.5c0-0.1,0-0.1,0-0.1c-0.3-0.5-0.8-0.2-1.1,0.1
		c-0.7,0.9-0.7,2.1-1.9,2.2c-0.5,0.1-0.1-0.8-0.1-1c0-0.1,0-0.1-0.1-0.1c-0.4-0.2-0.6-0.5-0.4-1c0,0,0.1-0.1,0.1-0.1
		c0.4-0.1,0.7,0,0.9,0.2c0.1,0,0.1,0,0.1,0c0.4-0.8,0.7-1.7,0.9-2.7c0-0.1,0-0.1-0.1-0.1c0,0-0.1,0-0.1,0c-0.3,0.3-0.7,0.9-1.2,0.7
		c0,0-0.1,0-0.1-0.1c-0.1-0.2-0.1-0.4-0.1-0.5c0.5-0.6,0.8-1.3,1.1-2c0-0.1,0-0.2-0.1-0.2c0,0-0.1,0-0.1,0c-0.2,0-0.5,0.1-0.8,0.1
		c-2.2,0.1-4.3,0-6.5-0.1c-0.1,0-0.3,0-0.5,0.1c-1.2,0.5-2.3-0.3-3.2,0.8c-0.7,0.8-1.3,0.5-2.2,0.4c-0.9-0.1-2,0.3-2.9,0.6
		c0,0-0.1,0.1,0,0.1l0,0l0.2,0.6c0,0.1,0,0.1-0.1,0.1c-0.7,0.2-1.4,0.3-2.1,0.2c-0.1,0-0.1,0-0.1,0.1c-0.7,1.8-1.4,3.6-2,5.5
		c-0.1,0.2-0.1,0.4-0.1,0.6c0,0-0.1,0.1-0.1,0.1l-0.3-0.1c0,0-0.1,0-0.1-0.1c0-0.1,0-0.3,0-0.4c0.4-1.9,0.7-3.7,1-5.6
		c0,0,0-0.1-0.1-0.1h0c-2.4,0.1-4.7,0.3-7.1,0.5c-0.3,0-0.7,0.1-0.6,0.5c0,0.1-0.1,0.2-0.2,0.2h0c-2.9,0.2-5.8,0.4-8.7,0.7
		c-1.1,0.1-3.4,0.3-4,1.1c0,0-0.1,0.1-0.1,0.1l-2.4,0.3c0,0,0,0,0,0c-0.6,0.5-1.4,0.4-2.1,0.2c0,0-0.1,0-0.1,0
		c-1.6,0.8-3.3,1.3-5.1,1.4c-0.1,0-0.1,0-0.1-0.1c-0.1-0.4-0.3-0.7-0.8-0.7c0,0-0.1,0-0.1,0.1c-0.6,1.7-1.8,3.6-2.7,5
		c-0.3,0.5-0.9,2.4-1.5,2.3c0,0-0.1,0-0.1-0.1c0.2-2,1-3.7,1.8-5.5c0.4-0.9,0.5-1.8,0.7-2.7c0-0.1,0-0.1-0.1-0.1
		c-0.8-0.2-4.3-1.1-4.5-2c-0.2-0.6-0.1-1.3,0-1.8c0,0,0-0.1-0.1-0.1c-0.9-0.2-1.5-0.4-2.1-0.8c-0.1,0-0.1-0.1,0-0.2c0,0,0,0,0,0
		c0.4-0.2,0.8-0.5,1.1-0.9c0,0,0-0.1,0-0.1l0,0c-0.1-0.1-0.3-0.1-0.4-0.2c-1-0.2-2-0.4-3-0.6c-0.1,0-0.2-0.1-0.4-0.1
		c0,0-0.1,0-0.1,0c-0.6,1.3-0.7,2.6-0.8,4c0,1.2,0.3,2.4,0.7,3.5c0,0.1,0.1,0.2,0.1,0.3c-0.4,2.2-0.8,4.3-1.2,6.5c0,0,0,0.1-0.1,0.1
		c-1.3,1.1-1.5,3.4-1.5,5c0,0.5-0.1,1.5-0.7,1.7c-0.1,0-0.1,0-0.1,0v0l-0.4-1.5c0-0.1-0.1-0.1-0.1-0.1h0c0,0-0.1,0-0.1,0.1
		c-0.4,0.8-0.6,1.9-0.7,2.8c0,0.3-0.1,0.5-0.2,0.7c-0.9,2-1.7,4-2.3,6.1c-0.1,0.2-0.2,0.4-0.4,0.3c0,0-0.1-0.1-0.1-0.1
		c0-0.2,0-0.4,0-0.7c0.5-2.4,1-4.7,1.6-7.1c0.1-0.2,0.1-0.4,0-0.6c-0.1-0.6-0.2-1.1-0.2-1.7c0.1-1.1,0.1-1.8,0.1-2.2
		c0-0.7-1-1.5-0.9-2.3c0.1-1.1,0.4-2.3,0.4-3.4c0-0.8,0-1.6,0-2.4c0-0.1-0.1-0.2-0.2-0.2c-0.1,0-0.1,0-0.1,0.1l-0.1,0.2
		c0,0,0,0.1-0.1,0.1c-0.3,0.1-0.5-0.1-0.4-0.4c0.4-4.8,0.9-9.6,1.4-14.4c0-0.1,0-0.2-0.1-0.2l-0.5-0.7c0,0,0-0.1,0-0.1
		c0-2,0.5-4.2,0.9-6.2c0.7-3.3,1.5-6.4,2.4-9.4c0.1-0.3,0.1-0.6,0.1-1c0.1-1.6,0.4-3.2,1-4.8c0.1-0.2,0.2-0.5,0.2-0.8
		c0.1-0.8,0.4-1.6,0.8-2.4c0.1-0.2,0.1-0.4,0.2-0.6c0.1-1.2,0.3-2.5,0.5-3.7c0.3-1.2,1-1.7,1.6-2.6c0-0.1,0-0.2-0.1-0.2
		c0,0,0,0-0.1,0l-0.4-0.1c-0.1,0-0.1-0.1-0.1-0.1c0,0,0,0,0,0l0.8-3.1c0,0,0-0.1-0.1-0.1h0c-0.7-0.1-1-0.4-0.8-1.1
		c0-0.1,0-0.1-0.1-0.2c0,0,0,0-0.1,0c-0.7,0.2-1.4,0.1-2,0.2c-1.3,0.2-2.6,0.4-3.9,0.6c-1.3,0.2-2.4-0.3-3.5-0.9
		c-0.2-0.1-0.4-0.2-0.7-0.2c-0.8-0.2-1.3-0.6-2-1.1c-0.2-0.1-0.4-0.2-0.6-0.3c-1.2-0.3-2.7-0.8-3.6-1.8c0,0-0.1-0.1-0.1-0.1
		c-0.6,0-1.2,0-1.8,0c-0.6,0-1.3,0.6-1.7,1c0,0-0.1,0-0.1,0.1c-0.4,0-0.8,0.1-1.3,0.1c-0.6-0.1-1.2-0.1-1.8,0.1
		c-0.1,0-0.1,0.1-0.1,0.1c0,0,0.1,0.1,0.1,0.1l0.3,0c0.1,0,0.3,0.1,0.3,0.3c-0.1,1.2-0.2,2.7-0.6,3.8c0,0.1-0.1,0.1-0.1,0.1
		c-1.4,0.5-1.6,1.6-1.7,3c-0.1,1.4-0.6,2.2-1.4,3.3c-0.3,0.4-1.1,2.5-1,3c0.2,1.5,0.3,3-1.4,3.6c-0.1,0-0.1,0.1-0.1,0.1
		c0,2.1-0.2,4.8-1.2,6.6c-0.5,1-0.5,2.8-1.6,3.4c-1.6,0.8-1.8,3.2-0.9,4.6c0.1,0.1,0.1,0.2,0.1,0.3c-0.2,1.2-0.8,3.9-2,4.4
		c0,0-0.1,0.1-0.1,0.1c-0.2,0.5-0.4,1.1-0.5,1.7c-0.4,1.8-0.7,3.5-1,5.3c0,0,0,0.1-0.1,0.1c-1.3,1.4-1.6,3.8-1.5,5.6
		c0.1,1,0.4,1.9,0.7,2.8c0.1,0.1,0.1,0.3,0,0.4l-1.2,6.5c0,0,0,0.1-0.1,0.1c-1.4,1.2-1.5,3.6-1.5,5.4c0,0.6-0.2,1-0.6,1.3
		c0,0-0.1,0-0.1,0c0,0,0,0,0,0l-0.4-1.5c0-0.1-0.1-0.1-0.2-0.1c0,0-0.1,0-0.1,0.1c-0.4,0.8-0.5,1.9-0.6,2.8c0,0.3-0.1,0.5-0.2,0.8
		c-0.9,2-1.7,4-2.3,6.1c-0.1,0.2-0.3,0.4-0.5,0.2c0,0-0.1-0.1-0.1-0.1c0-0.2,0-0.4,0-0.6c0.5-2.3,1-4.6,1.6-7
		c0.2-0.7-0.2-1.5-0.1-2.2c0-0.7,0.1-1.3,0.1-2c0-0.7-0.6-1.7-0.9-2.3c0,0,0-0.1,0-0.1c0.1-1.3,0.4-2.7,0.4-4c0-0.7,0-1.3,0-2
		c0-0.1-0.1-0.1-0.1-0.1c0,0-0.1,0-0.1,0c-0.1,0.1-0.1,0.2-0.1,0.3c0,0.1,0,0.1-0.1,0.1c0,0,0,0,0,0l-0.3,0c-0.1,0-0.1,0-0.1-0.1
		c0-0.2,0-0.4,0-0.6c0.4-4.6,0.9-9.2,1.4-13.8c0-0.1,0-0.3,0-0.5c0,0,0-0.1,0-0.1l-0.5-0.7c0,0,0-0.1,0-0.1l0-0.9
		C185,69.2,185,69.1,184.9,69.2C184.9,69.2,184.9,69.2,184.9,69.2z M305.9,24.2c0,0,0.1-0.1,0.1-0.3l0,0c0-0.1,0-0.3-0.1-0.3l0,0
		c0,0-0.1,0.1-0.1,0.3l0,0C305.9,24.1,305.9,24.2,305.9,24.2L305.9,24.2z M186.9,25.2c-0.1,0-0.1-0.1-0.1,0c-0.1,0-0.1,0.1,0,0.1
		c0,0.1,0.1,0.1,0.1,0c0,0,0,0,0,0L186.9,25.2C187,25.2,187,25.2,186.9,25.2L186.9,25.2z M235,58.6l0,0.6c0,0.1,0,0.1-0.1,0.1
		c-0.4,0.2-0.7,0.1-1-0.3c-0.1-0.1-0.2-0.1-0.3-0.1l0,0c-0.5,0.4-0.9,0.8-1.1,1.4c-0.4,1.2-0.3,2.3,0.4,3.3c0,0,0,0.1,0,0.1
		c-0.2,1.1-0.6,2.2-1,3.4c-0.2,0.5-0.5,0.8-1,1c0,0-0.1,0.1-0.1,0.1c-0.2,0.4-0.3,0.7-0.4,1.1c-0.4,1.8-0.8,3.8-1.1,5.8
		c0,0,0,0,0,0.1c-0.1,0.1-0.1,0.2-0.2,0.3c0,0,0,0,0,0.1c0,0,0,0,0,0c0.4-0.1,0.8-0.1,1.3-0.2c0.3-0.1,0.9,0.1,1.2,0.1
		c2.3,0,4.8-0.9,7-1.8c0,0,0.1,0,0.1-0.1c0.3-0.9,0.6-1.8,1-2.7c0.7-1.9,1.3-4,2.1-5.9c0.2-0.5-0.1-1.1-0.3-1.5c0,0,0-0.1,0-0.1
		l0.4-1.1c0-0.1,0-0.1-0.1-0.2c-0.6-0.4-1.1-1.8-1.3-2.5c0,0-0.1-0.1-0.1-0.1h-0.6c0,0-0.1,0-0.1,0c-0.2-0.2-0.3-0.4-0.3-0.6
		c0,0,0-0.1,0.1-0.1c0.3-0.1,0.5-0.3,0.5-0.7c0-0.1,0-0.1-0.1-0.1c-0.9-0.2-1.9-0.2-2.8-0.2c-0.2,0-0.5,0.1-0.6-0.2
		c-0.2-0.7,1.9-0.8,2.2-0.8c1.1-0.1,2.1-0.5,3.1-0.9c0.1,0,0.1-0.1,0.1-0.1c0,0,0,0-0.1-0.1c-0.3-0.1-0.4-0.4-0.4-0.7
		c0-0.1,0-0.1,0.1-0.1c0.4-0.1,0.8-0.1,1.2,0c0.4,0.1,0.9,0.2,1.4,0.2c0,0,0.1,0,0.1-0.1c0.9-0.8,0.8-3.8,0.8-5c0-0.2,0-0.4,0.1-0.6
		c0.5-1.2,1-2.7,1-4c0-1.8,0-2.4,1.3-3.6c0,0,0-0.1,0-0.1l0,0c-1-0.5-1.9-1.2-2.8-2c-0.7-0.6-1.4-1-2.2-1.4c-1-0.5-0.8-1.1-0.8-2.1
		c0,0,0-0.1-0.1-0.1c0,0,0,0,0,0c-0.6,0.5-0.9,1.1-1,1.9c-0.1,0.6,0,1.4-0.2,2c-0.3,0.8-0.7,1.5-1.3,2.2c-0.3,0.4-1.1,2.5-1,2.9
		c0.1,1.5,0.3,3-1.4,3.6c0,0-0.1,0.1-0.1,0.1c0,2.2-0.2,4.7-1.2,6.6c-0.4,0.8-0.5,1.7-0.9,2.6c0,0.1,0,0.1,0,0.1l0.4,0.1
		C234.9,58.5,235,58.5,235,58.6z M254.1,55.6c1.2,1.3,4.2,2.1,5.5,0.4c0,0,0.1-0.1,0.1-0.1c0.8,0,1.6,0.1,2.3,0.4c0,0,0,0,0,0
		l1.1-0.1c0.1,0,0.1,0,0.1,0.1c0.9,1.2,2.4,1.5,3.8,1.5c0.1,0,0.1,0.1,0.1,0.1l0,0.4c0,0.1,0,0.1-0.1,0.1c-0.3,0.1-0.6,0.3-0.7,0.6
		c0,0.1,0,0.1,0.1,0.1c2.3,0.6,4.7,1,7,1.2c0.1,0,0.1,0,0.1-0.1l-0.4-1.1c0,0,0-0.1,0-0.1c1-3.2,1.9-6.3,2.8-9.5
		c0.3-0.9-0.2-1.8,0.1-2.7c0.3-1,0.7-2,1-3c0.3-0.9-0.1-2.9,0.8-3.5c0.9-0.6,1.9-1.7,2.7-2.6c0,0,0-0.1,0-0.1
		c-1.2-0.1-2.3-0.2-3.5-0.3c-1.1-0.1-2.7,0.1-3.4,1.2c0,0-0.1,0.1-0.1,0.1c-0.7,0-1.5-0.1-2.2,0.1c-0.4,0.1-0.9,0.3-1.3,0.4
		c-0.1,0-0.1,0.1-0.1,0.1l0.1,0.5c0,0.1,0,0.2-0.1,0.2c0,0,0,0,0,0c-0.4,0-0.9,0.1-1.3,0.1c-3.1-0.1-5.2-0.1-6.3-0.1
		c-0.5,0-0.8,0.2-1,0.7c0,0-0.1,0.1-0.1,0.1l-3.7-0.1c-0.1,0-0.1,0-0.1,0.1c-0.1,0.2-0.1,0.5-0.1,0.7c0,0.5,0.4,0.8,0.3,1.3
		c-0.2,1.4-0.7,3.3-1.2,4.8c-0.3,0.7-0.9,1.3-1.2,1.9c-1.1,1.9-1,3.9-1.2,6.1C254,55.5,254,55.5,254.1,55.6z M308.3,42.2l-0.1,0.3
		c0,0,0,0.1,0.1,0.1c0,0,0.1,0,0.1-0.1c0.1-0.1,0.1-0.3,0-0.4C308.4,42.1,308.3,42.1,308.3,42.2z M179.9,45c0.2,0.2,0.2,0.4,0.2,0.7
		c0,0-0.1,0.1-0.1,0.1l-0.4,0.1c0,0,0,0,0,0.1c0,0,0,0,0,0c0.4,0.5,0.6,1.2,0.5,1.9c0,0.1,0,0.1-0.1,0.1c-0.3,0.1-0.4,0-0.6-0.3
		c-0.8-1.1-1.6-2.1-2.5-3.1c0,0-0.1-0.1-0.1,0c-0.7,0.1-1.3,0.2-2,0.2c-0.6,0-1.4-0.5-2-0.8c0,0-0.1,0-0.1,0
		c-0.7,2.1-2.5,3.8-3.7,5.8c-0.7,1.3-1.7,2.4-2.7,3.4c-0.4,0.4-1,0.9-1.4,1.5c-1,1.6-1.8,3.3-2.2,5.1c-0.1,0.4-0.1,1-0.2,2
		c-0.1,1-0.1,3.7-0.9,4.5c-0.4,0.4-0.5,0.6-0.7,0.9c0,0,0,0.1,0,0.1c0.1,0.7,0.3,1.4,0.3,2.2c0.1,1,0.6,1.7,1.1,2.6
		c0.5,0.8,1.1,1.3,1.9,1.5c1.1,0.3,2.3,0.9,3.4,0.6c1.2-0.4,2.3-0.8,3.4-1.2c0.2-0.1,0.4-0.1,0.6-0.1c1.4,0,2-0.7,3-1.8
		c0.8-0.9,2.2-2.6,2.3-3.9c0.1-1.4,0.3-2.9,1-4.1c0.8-1.5,1.5-3.1,1.9-4.7c0.1-0.5,0.1-1.3,0.4-1.8c0.3-0.5,0.6-0.9,1-1.2
		c1.2-1,0.6-5,0.4-6.6c0-0.3,0-0.5,0.1-0.7c0.1-0.1,0.2-0.2,0.4-0.1c0,0,0.1,0,0.1,0.1l1,1c0.1,0.1,0.2,0.1,0.3,0
		c0.1-0.1,0.1-0.1,0.1-0.2c-0.6-1.8-1.9-3.3-3.3-4.6c-0.4-0.3-0.8-0.4-1.3-0.6c-0.1,0-0.1,0-0.2,0.1c0,0.1,0,0.1,0,0.1
		C179.1,44.2,179.5,44.6,179.9,45z M256.2,46.9C256.2,46.9,256.2,46.9,256.2,46.9L256.2,46.9c0.1,0.1,0.2,0.1,0.2,0l0.1-0.1
		c0,0,0-0.1,0-0.1c0,0,0,0,0,0C256.3,46.7,256.2,46.8,256.2,46.9z M167.1,51.5c0.1,0,0.1,0,0.1-0.1l0,0c0-0.1,0-0.2-0.1-0.2l0,0
		c-0.1,0-0.1,0-0.1,0.1C167.1,51.4,167.1,51.5,167.1,51.5z M292.2,56.4c0.1,0,0.1-0.2,0-0.3c0-0.2-0.1-0.3-0.2-0.3s-0.1,0.2,0,0.3
		l0,0C292.1,56.3,292.2,56.5,292.2,56.4z M278.8,72.6c0.3,0.1,0.4,0.2,0.6,0.5c0.4,0.6,3.2,0.7,4,0.8c0.2,0,0.3,0.1,0.3,0.2
		c0,0.1,0,0.1-0.1,0.2l-1,0.6c-0.1,0-0.1,0.1-0.1,0.2c0,0,0,0,0.1,0.1c0,0,0,0,0.1,0c2.1,0.2,4.2,0.5,6.3,1c0.6,0.1,1.2,0.1,1.8,0.2
		c0,0,0.1,0,0.1-0.1c0,0,0,0,0,0c-0.9-1.3-1.8-2.6-2.9-3.9c-0.4-0.4-0.6-1-0.7-1.5c-0.4-1.1-0.8-2.2-1.2-3.3
		c-0.1-0.2-0.2-0.5-0.4-0.8c-0.6-1-1-2-1.2-3.1c0-0.3-0.1-0.5-0.2-0.8c-0.5-1-1-2.1-1.7-3c-0.1-0.1-0.1-0.1-0.2,0
		c-0.4,2-1,3.8-2.5,5.2c-0.8,0.8-0.9,1.6-1.1,2.7c-0.1,1,0.1,1.4,0.6,2.4c0,0,0,0.1,0,0.1L278.8,72.6
		C278.8,72.6,278.8,72.6,278.8,72.6z M246.4,73.9c0.4,0.1,1,0.2,1.4-0.1c1.2-0.7,2.5-1,3.9-1c0.1,0,0.1,0,0.1,0.1l1,0.8
		c0,0,0.1,0,0.1,0c2-0.5,4.1-1,6.2-1.4c1.4-0.3,2.5,0.1,3.9-0.1c0.7-0.1,1.4-0.1,2.1-0.1c0.9,0,1.7,0.5,2.7,1c0.9,0.4,3-0.1,3.9-0.4
		c0,0,0.1-0.1,0.1-0.1l0.4-2.6c0,0,0-0.1-0.1-0.1c0,0,0,0,0,0l-0.7,0.2c-0.1,0-0.1,0-0.2-0.1c0,0,0,0,0-0.1c0.2-1.1,0.4-2.2,0.7-3.2
		c0.6-1.9,1-3.9,1.6-5.9c0,0,0-0.1,0-0.1h0c-0.3,0-0.5,0.1-0.8,0.1c-1.5-0.1-3.1-0.2-4.6-0.4c-0.4,0-0.7,0.1-1.1,0.3
		c0,0-0.1,0-0.1,0c-1.1,0-1.7-0.1-2.4,0.9c0,0-0.1,0.1-0.1,0.1c-1.2-0.1-2.3,0.1-3.4,0.4c0,0-0.1,0.1-0.1,0.1c0,0,0,0,0,0
		c0.1,0.1,0.2,0.3,0.3,0.5c0,0.1-0.1,0.2-0.2,0.2c0,0,0,0,0,0l-5.9-0.1c0,0-0.1,0-0.1,0.1c-0.4,1-1.4,0.6-2.1,1
		c-0.8,0.4-1.5,0.8-2.3,1.1c-0.1,0-0.1,0.1-0.2,0.2c-0.4,1.1-0.9,2.2-1.4,3.3c-0.3,0.8-1.2,1.4-1.9,1.7c0,0-0.1,0-0.1,0.1
		c-0.4,1-0.7,2.1-0.8,3.2C246.2,73.8,246.3,73.9,246.4,73.9z M186.4,61.7C186.4,61.7,186.4,61.6,186.4,61.7L186.4,61.7L186.4,61.7
		c-0.1-0.1-0.1,0-0.1,0l0,0l-0.7,3c0,0,0,0,0,0l0,0l0,0c0,0,0,0,0,0l0,0L186.4,61.7z M271.7,69.6l0,0.1c0,0.1,0,0.1,0.1,0.1
		c0.1,0,0.1-0.1,0.1-0.2C271.8,69.6,271.8,69.6,271.7,69.6C271.7,69.6,271.7,69.6,271.7,69.6z M188.5,97c0,0,0.1,0,0.1-0.1l0,0
		c0-0.1,0-0.1-0.1-0.1c0,0-0.1,0-0.1,0.1l0,0C188.4,96.9,188.4,96.9,188.5,97L188.5,97z M225.2,96.8L225.2,96.8c0,0.1,0,0.1,0,0.1
		c0,0,0,0,0,0c0.1,0,0.1,0,0.1-0.1C225.3,96.7,225.3,96.7,225.2,96.8C225.2,96.7,225.2,96.7,225.2,96.8z"/>
	<path d="M201.4,16.1l0.5-0.1c0.1,0,0.2,0.1,0.2,0.2l0.1,0.6c0,0.1-0.1,0.2-0.2,0.2l-0.5,0.1c-0.1,0-0.2-0.1-0.2-0.2l-0.1-0.6
		C201.2,16.2,201.3,16.1,201.4,16.1z"/>
	<path d="M238.3,16.1l0.5,0c0.1,0,0.2,0.1,0.2,0.2l0.1,0.6c0,0.1-0.1,0.2-0.2,0.2l-0.5,0c-0.1,0-0.2-0.1-0.2-0.2l-0.1-0.6
		C238.1,16.2,238.1,16.1,238.3,16.1z"/>
	<path d="M197.4,18.6c0-0.1,0.1-0.1,0.2-0.1c1-0.2,1.6,0.2,1.4,1.3c-0.1,0.6-0.5,0.9-1.1,0.6C197.1,20,197.1,19.3,197.4,18.6z"/>
	<path d="M234.2,18.6c0,0,0.1-0.1,0.1-0.1c0.5-0.1,0.9,0,1.3,0.2c0,0,0.1,0.1,0.1,0.1c0.2,0.6,0.1,1.9-0.9,1.6
		C234,20.2,233.7,19.3,234.2,18.6z"/>
	<path d="M200.7,19l0.4,0c0.1,0,0.3,0.1,0.3,0.2l0.1,0.5c0,0.1-0.1,0.3-0.2,0.3l-0.4,0c-0.1,0-0.3-0.1-0.3-0.2l-0.1-0.5
		C200.5,19.1,200.6,19,200.7,19z"/>
	<path d="M237.5,19l0.5-0.1c0.1,0,0.2,0.1,0.3,0.2l0.1,0.5c0,0.1-0.1,0.2-0.2,0.3l-0.5,0.1c-0.1,0-0.2-0.1-0.3-0.2l-0.1-0.5
		C237.2,19.1,237.3,19,237.5,19z"/>
	<path d="M152.2,24.6l0.5-0.1c0.2,0,0.3,0.1,0.3,0.3l0.1,0.4c0,0.2-0.1,0.3-0.3,0.3l-0.5,0.1c-0.2,0-0.3-0.1-0.3-0.3l-0.1-0.4
		C152,24.7,152.1,24.6,152.2,24.6z"/>
	<path d="M168.7,25.7l0.4,0c0.1,0,0.3,0.1,0.3,0.3l0,0.5c0,0.1-0.1,0.3-0.3,0.3l-0.4,0c-0.1,0-0.3-0.1-0.3-0.3l0-0.5
		C168.4,25.8,168.6,25.7,168.7,25.7z"/>
	<path d="M148,26.9c0-0.1,0.1-0.2,0.2-0.2l1.1,0c0.1,0,0.1,0,0.1,0.1c0.2,0.9,0.6,2-0.8,2c-0.1,0-0.1,0-0.1-0.1
		c-0.3-0.3-0.6-0.6-0.7-1c0,0,0-0.1,0-0.1L148,26.9z"/>
	<path d="M138.7,77c-0.2,0.1-0.3,0.1-0.5,0.1c-0.2,0-0.2-0.1-0.2-0.3c0.4-2,0.8-3.9,1.1-5.9c0.3-1.9,0.9-3.6,1-5.5
		c0,0,0-0.1-0.1-0.1c-0.4-0.2-0.5-0.5-0.5-0.9c0.2-1.2,0.5-2.6,0.9-4.3c0,0,0-0.1-0.1-0.1c-0.8-0.3-0.3-1.7-0.2-2.4
		c0.4-2,0.5-4,0.1-6.1c-0.2-1,1.2-3.6,1.8-4.6c0.2-0.5,0.4-1,0.5-1.7c0.1-0.4-0.1-0.7-0.3-1c0,0,0-0.1,0-0.1
		c0.1-0.4,0.1-0.9,0.2-1.4c0-0.4-0.2-0.8-0.4-1.2c0,0,0-0.1,0-0.1c0.2-0.9,0.4-1.8,0.7-2.6c0.3-0.9,0.1-1.5-0.1-2.4
		c-0.1-0.7,0.9-1.5,1.4-1.9c0.3-0.2,0.5-0.5,0.7-0.7c0.9-1.1,1.9-2.1,2.9-3c0,0,0.1-0.1,0.1-0.1c0.6-0.1,1.3,0,1.9,0.1
		c0.1,0,0.1,0,0.1-0.1c0.2-0.5,0.3-1,0.9-1.1c0,0,0.1,0,0.1,0c0.2,0.2,0.3,0.5,0.4,0.8c0,0,0.1,0.1,0.1,0.1c0,0,0.1,0,0.1-0.1
		c0-0.5,0.3-2.6,1.1-2.5c0.1,0,0.1,0,0.1-0.1l0.2-0.4c0,0,0.1-0.1,0.1-0.1l0.4-0.1c0.1,0,0.1,0,0.1,0.1c0,0.8-0.1,1.5-0.2,2.3
		c-0.1,0.7,0.2,1.2,0.6,1.7c0,0,0,0.1,0,0.1c0,0.5-0.1,1.1-0.1,1.6c0,0.6,0.1,1.2,0.2,1.8c0.2,2.6,0.3,5.1,0.3,7.6
		c0,0.3,0,0.6-0.1,0.9c-0.7,2.3-1.7,4.4-2.7,6.6c-0.1,0.3-0.2,0.6-0.3,0.9c-0.2,1.4-0.3,2.9-0.4,4.4c0,0,0,0.1-0.1,0.1
		c-0.7,0.6-1.3,1.1-1.4,2.1c-0.1,0.5,0.2,1.2,0,1.7c-0.4,1.5-0.7,3-0.8,4.6c0,0.3-0.1,0.6-0.2,0.8c-0.7,1.7-1.3,3.5-1.6,5.3
		c-0.1,1-0.4,1.8-0.6,2.6c-0.1,0.3,0,0.7-0.1,1c0,0.1,0,0.1-0.1,0.1c-0.4,0.5-0.7,1-1,1.5c0,0.1,0,0.1,0,0.2
		c0.3,0.4,0.4,0.7,0.3,1.2c-0.3,1.6-0.6,3.5-1.4,5c-0.2,0.4-0.3,0.4-0.7,0.6c-0.1,0.1-0.1,0.1-0.1,0.2c0,0,0,0.1,0,0.1
		c0.1,1.2,0.9,1.9,1.8,2.6c0.9,0.6,1.3,1.1,1.6,2c0,0.1,0,0.1-0.1,0.1c0,0,0,0-0.1,0l-1.5-0.5c0,0-0.1,0-0.1,0c0,0,0,0,0,0
		c0,0.1,0,0.1,0.1,0.2c1.6,1.7,3,3.6,4.2,5.5c0.4,0.7,1.3,1.1,1.4,1.9c0,0.1-0.1,0.2-0.2,0.2c-0.1,0-0.1,0-0.2,0
		c-2-1.5-3.8-3.5-5.6-5.3c-1.2-1.2-2.7-1.9-4.4-2c-0.1,0-0.1,0-0.1-0.1l-0.6-0.5c0,0-0.1,0-0.1,0c0,0,0,0,0,0
		c-0.7,1.6-1.5,3.3-2.3,4.9c-0.1,0.1-0.1,0.3-0.2,0.6c-0.1,0.6-0.3,1-0.8,1.5c-0.1,0.1-0.2,0.1-0.2,0c0,0-0.1-0.1-0.1-0.1
		c0-0.5,0.1-1.1,0.2-1.6c0.4-1.6,0.9-3.2,1.4-4.7c0.2-0.6,0.2-1.1,0.1-1.7c0,0,0-0.1-0.1-0.1c-0.4-0.3-0.9-0.5-1.4-0.7
		c-0.1,0-0.1,0-0.2,0.1c0,0,0,0.1,0,0.1l0.1,0.3c0,0.1,0,0.3-0.1,0.3c-0.1,0-0.1,0-0.2,0c-1.1-0.7-2.3-1.7-3.1-2.3
		c-2-1.5-4.4-3.3-6.7-4.3c0,0-0.1,0-0.1,0c-0.8,0.3-1,0.3-1.7-0.1c-1.3-0.8-2.7-1.6-4.1-2.5c-0.5-0.4-1.1-0.7-1.6-0.9
		c-1.5-0.7-3-1.5-4.5-2.4c-0.2-0.1-0.4-0.1-0.6-0.2c-1-0.1-1.9-0.5-2.7-1.2c0,0-0.1,0-0.1,0c-0.6,0.9-0.4,2.3-1,3.1
		c-0.9,1.2-1.3,2.8-1.6,4.2c-0.1,0.3-0.2,0.5-0.3,0.7c-0.8,1.1-1.5,2.3-2.3,3.4c-0.6,0.9-1.2,3.8-0.8,4.9c0.2,0.6,0.4,1,0.1,1.7
		c-0.4,1.4-1.1,2.9-1.3,4.3c-0.2,1.2-0.9,2-1.7,2.8c0,0-0.1,0.1-0.1,0.1l-1.4,4.4c0,0.1-0.2,0.2-0.3,0.2c-0.1,0-0.2-0.1-0.2-0.2
		l-0.2-1.4c0-0.1-0.1-0.1-0.1-0.1c-0.1,0-0.1,0-0.1,0.1c-0.8,2.4-1.7,4.8-3,7c-0.1,0.1-0.1,0.3-0.2,0.5c-0.1,0.6-0.4,1.2-0.9,1.7
		c-0.1,0.1-0.1,0.1-0.2,0c0,0,0,0,0-0.1c0-0.1,0-0.1,0-0.2c0.3-2.4,1.1-4.8,2-7.1c0.5-1.3,0.4-3.1,0.4-4.4c0-0.7-0.3-1.2-0.6-1.8
		c0,0,0-0.1,0-0.1c0.5-1.9,0.8-3.8,0.8-5.7c0-0.1-0.1-0.1-0.1-0.1c0,0-0.1,0-0.1,0L97,89.7c0,0-0.1,0-0.1,0c-0.4,0-0.4-0.2-0.3-0.5
		c1.1-5.2,2.4-9.2,3.8-13.9c0-0.1,0-0.1,0-0.2l-0.4-0.9c0,0,0-0.1,0-0.1c0.6-2.5,1.5-4.9,2.5-7.3c0.1-0.1,0.1-0.3,0.1-0.5
		c0,0,0-0.1-0.1-0.1c-0.8-0.3-2.3-1.1-2.1-2.2c0,0,0-0.1,0.1-0.1c0.3-0.1,0.5-0.4,0.5-0.7c0.1-0.8-1.4-1.7-2-2
		c-0.3-0.2-0.5-0.4-0.5-0.8c0,0,0-0.1,0.1-0.1l0,0l0.8,0c0.1,0,0.1,0,0.1-0.1v0c-0.1-0.9-0.9-1.6-1.7-2c-0.4-0.2-0.5-0.5-0.5-1
		c0-0.1,0-0.1,0.1-0.1c0.6,0.1,1.2,0.3,1.8,0.5c0,0,0.1,0,0.1,0l0.9-0.6c0,0,0.1-0.1,0-0.1l0,0c-0.5-0.7-0.8-1.4-1-1.9
		c-0.1-0.2,0-0.3,0.1-0.3c0,0,0.1,0,0.1,0l1.2,0.4c0,0,0.1,0,0.1-0.1c0,0,0,0,0-0.1c-0.4-1.2-1.9-2.2-2-3.4c0-0.1,0.1-0.2,0.2-0.2
		c0.1,0,0.1,0,0.1,0.1c1.8,1.5,3.7,3.3,5.9,4.4c0.1,0.1,0.2,0,0.2-0.1c0-1.1,0.5-2.2,1-3.1c0,0,0-0.1,0-0.1
		c-0.1-1.9,0.1-4.2,1.6-5.5c0.6-0.6,1-1.3,1.4-2c0,0,0.1-0.1,0.1-0.1c1.4-0.4,1.3-2.3,2.2-3.2c0.5-0.5,1.1-1,1.6-1.6
		c0,0,0.1,0,0.1,0l1.7,0.4c0,0,0.1,0,0.1-0.1c0.2-0.6,0.7-2,1.4-2c0.1,0,0.1,0,0.1,0.1l0,1.6c0,0.1,0,0.1,0.1,0.1c0,0,0,0,0.1,0
		c0.7-0.4,1-1.6,1.2-2.3c0,0,0-0.1-0.1-0.1c-1.4-0.1-2.8-0.2-4.3-0.3c-0.4,0-0.9,0-1.3,0c-0.8,0.1-1.8,0.2-2.6-0.1
		c-1.3-0.4-3-1.1-4.4-1c-1.7,0.2-3.3,0.4-5,0.6c-0.3,0-0.4-0.1-0.3-0.3c0-0.1,0.1-0.1,0.1-0.1l1.6-0.8c0.1,0,0.1-0.1,0.1-0.2
		c0,0-0.1-0.1-0.1-0.1l-0.5-0.1c-0.1,0-0.1,0-0.1,0c-1.6,0.4-3.2,0.8-4.8,1c-0.3,0-0.6,0.1-0.8,0.3c-1.8,0.9-3.9,1.8-5.9,2
		c-0.1,0-0.2-0.1-0.2-0.2c0-0.1,0-0.1,0.1-0.2c0.1-0.1,0.2-0.2,0.3-0.2c2.5-1.4,4.5-2.4,6.1-3.1c1.8-0.8,4-1.4,6.5-2
		c0.6-0.1,1.8-0.2,2.6-0.7c0.7-0.4,1.8-1.1,2.6-1.1c2.7-0.1,5.4-0.3,8-0.7c0,0,0,0,0,0c0,0,0,0,0,0c-0.2,0-0.4-0.1-0.6-0.3
		c-0.1-0.1-0.1-0.2,0-0.3c0,0,0,0,0.1,0c0.4-0.1,0.9-0.2,1.4-0.2c1.4,0,2.8,0.1,4.2,0.2c0.1,0,0.2,0,0.4-0.1c0,0,0.1,0,0.1,0
		c5.4,0.7,11.1,1.1,15.4,4.6c0.7,0.6,1.8,0.4,2.4,1.1c0.6,0.9,1.2,1.7,1.7,2.7c3.6,6.6,0,12.9-5,17.3c-1,0.9-2,1.7-3.1,2.6
		c-0.2,0.2-0.5,0.4-0.7,0.7c-1.1,1.3-2.1,2.4-3.6,3.1c-0.2,0.1-0.4,0.2-0.6,0.4c-0.8,0.7-2.2,2-3.2,2.2c-0.3,0.1-0.5,0.2-0.8,0.3
		c-1.1,0.7-2.1,1.4-3.2,2.1c0,0,0,0.1,0,0.1c0,0,0,0,0,0c4.2,1.1,8.1,3.4,11.5,6c0.4,0.3,0.7,0.7,1,1.2c0,0.1,0.1,0.3,0.3,0.7
		c0.5,1.5,3.3,2.5,4.6,2.9c0.2,0.1,0.5,0.1,0.7,0.1c0,0,0.1,0,0.1-0.1v0l0.1-1C138.7,77,138.7,77,138.7,77z M116.4,30.2L116.4,30.2
		c-0.1,0-0.1,0-0.1,0.1c0,0,0,0.1,0.1,0.1l0.2,0.1c0,0,0,0,0.1,0c0,0,0,0,0,0L116.4,30.2C116.4,30.2,116.4,30.2,116.4,30.2z
		 M101.5,36.6c0,0-0.1-0.1-0.2-0.1l0,0c-0.1,0-0.2,0-0.2,0.1c0,0,0.1,0.1,0.2,0.1l0,0C101.4,36.7,101.5,36.7,101.5,36.6z
		 M131.9,40.7c-0.7-0.6-1.5-1-2.4-1.4c-0.2-0.1-0.4-0.2-0.7-0.4c-1.3-1.2-2.9-1.9-4.7-1.9c-1.1,0-2.1,0-3.2,0
		c-2.1,0.1-1.8,2-2.1,3.4c-0.3,1.5-0.5,3.1-0.8,4.6c-0.1,0.6-0.1,1.2-0.1,1.8c0,1,0.2,2.2,0,3.2c-0.3,1.7-1.1,3.4-2,4.9
		c-0.6,0.9-0.9,1.6-1.1,2.6c0,0.1,0,0.1,0.1,0.1c1.2-0.4,2.1-0.5,3.3-0.7c0.4-0.1,0.8-0.2,1.1-0.3c1.9-0.8,3.6-1.9,5.2-3.2
		c0.2-0.2,0.5-0.5,0.8-0.8c1.1-1.4,2.1-2.4,4-2.5c1.2-0.1,3.1-2.8,3.5-3.7C133.7,44.5,133.7,42.2,131.9,40.7z M116.8,52.7
		c0,0-0.1,0.1,0,0.1c0,0.1,0.1,0.1,0.1,0l0.2-0.3c0,0,0-0.1,0-0.1c0,0,0,0,0,0c-0.1,0-0.1,0.1-0.1,0.1
		C116.8,52.7,116.8,52.7,116.8,52.7z M116.7,57.6C116.7,57.6,116.6,57.6,116.7,57.6l-1.1,0.3c0,0,0,0,0,0.1l0,0l0,0.1c0,0,0,0,0.1,0
		l0,0l1-0.3C116.7,57.8,116.7,57.8,116.7,57.6L116.7,57.6z M146.2,86.8c0.1,0,0.1-0.1,0.1-0.2c0-0.1-0.1-0.1-0.1-0.1
		c-0.1,0-0.1,0.1-0.1,0.2l0,0C146,86.8,146.1,86.8,146.2,86.8z"/>
	<path d="M283.6,29.5l0.1-0.9c0,0,0-0.1,0.1-0.1c0.6-0.2,0.7,0.2,0.8,0.7c0,0,0,0.1,0,0.1c-0.3,0.2-0.5,0.3-0.9,0.4
		C283.6,29.7,283.6,29.6,283.6,29.5z"/>
	<path d="M170.9,29.3c0-0.2,0.2-0.4,0.4-0.4l0,0h0.4c0.6,0,1.1,0.4,1.1,0.8l0,0v0.2c0,0.4-0.5,0.8-1.1,0.8h-0.4
		c-0.2,0-0.4-0.2-0.4-0.4l0,0L170.9,29.3z"/>
	<path d="M289.1,29.8l0.5,0c0.1,0,0.2,0.1,0.3,0.2l0,0.6c0,0.1-0.1,0.2-0.2,0.3l-0.5,0c-0.1,0-0.2-0.1-0.3-0.2l0-0.6
		C288.8,29.9,289,29.8,289.1,29.8z"/>
	<path d="M279.7,32.9C279.7,32.9,279.7,32.8,279.7,32.9l0-1.1c0-0.2,0.2-0.4,0.4-0.4h1c0.1,0,0.1,0,0.1,0.1c0.2,0.5,0.3,1,0.2,1.5
		c0,0,0,0.1,0,0.1c-0.2,0.3-0.5,0.4-0.8,0.4c-0.1,0-0.1,0-0.1-0.1C280.3,33.1,280,33,279.7,32.9z"/>
	<path d="M64.8,53.2c-0.7-0.9-1.2-2-1.5-3.2c0,0,0-0.1,0-0.1c0.8-0.5,3.1,0.2,4,0.5c0.2,0.1,0.2,0.3,0.4,0.4
		c0.6,0.3,1.2,0.6,1.7,0.9c0.1,0,0.2,0.1,0.3,0L85.6,47c0.1,0,0.2-0.1,0.3-0.2l0.9-1.6c0,0,0-0.1,0-0.1c0-0.2,0-0.3,0.1-0.5
		c0.7-0.9,1.8-2.2,2.9-2.6c0,0,0.1,0,0.1,0c0.5,1.1,0.6,2.3,0.6,3.4c0,0,0,0.1,0.1,0.1l2.7-0.8c0.1,0,0.1,0,0.1,0.1
		c-0.5,2-1,4-1.5,6c-0.2,0.7,0.7,1.2-0.1,1.9c0,0-0.1,0.1-0.1,0.1c-0.4,0-0.4,0.3-0.4,0.6c-0.7,2.7-1.4,5.4-2.1,8.2
		c0,0,0,0.1,0.1,0.1c1.4,0.7,2.7,1.3,4,2c0.5,0.3,0.7,0.7,0.3,1.2c-0.4,0.5-0.7,1.1-1.1,1.6c-0.4,0.6-1.1,0-1.6-0.3
		c0,0-0.1-0.1-0.1-0.1l-0.1-0.5c0,0,0-0.1-0.1-0.1l-2.1-1.1c0,0-0.1,0-0.1,0v0l-2.8,10.9c0,0.1-0.1,0.1-0.1,0l-8.3-7.5
		c0,0-0.1,0-0.1,0c0,0,0,0,0,0l-1.1,2c0,0,0,0.1,0,0.1c0.4,0.5,0,1.1-0.3,1.5c-0.1,0.2-0.3,0.3-0.5,0.2c-0.6-0.3-1.2-0.5-1.9-0.8
		c-0.9-0.4-0.4-1.2-0.1-1.8c0.6-1.1,1.2-2.1,1.8-3.1c0-0.1,0-0.1,0-0.2l-6.6-5.9c0,0-0.1-0.1-0.1-0.1c-0.7,0-1-0.3-1.1-1
		c0,0,0-0.1-0.1-0.1l-5.1-4.5c0,0,0,0,0,0l0,0L64.8,53.2C64.9,53.2,64.9,53.2,64.8,53.2z M89.2,48.6l0.1,0.1c0.1,0.1,0.2,0.1,0.3,0
		c0,0,0-0.1,0-0.1c0-0.3,0-0.6-0.1-0.9c0-0.1,0-0.1,0-0.2c0-0.1,0.1-0.1,0.2-0.1c0,0,0.1,0,0.1,0.1c0.3,0.9,0.6,1.8,0.9,2.7
		c0.2,0.5,0.2,1.7,0.5,2c0.1,0.1,0.2,0.1,0.2,0c0,0,0.1-0.1,0-0.2l-1.7-5.6c0,0,0-0.1,0-0.1c0.5-1.4,0.2-2.4-0.1-3.7
		c0,0-0.1-0.1-0.1-0.1c0,0,0,0,0,0c-0.8,0.6-1.5,1.2-2.1,2c-0.2,0.2-0.1,0.5-0.3,0.8c-1.4,2.4-2.8,4.8-4.1,7.2c0,0,0,0.1,0,0.1
		c0.9,0.3,1.6,0.9,2.1,1.7c0,0,0.1,0,0.1,0c0,0,0,0,0,0c0.6-1,1.2-2,1.7-3c0.1-0.1,0.1-0.1,0.3-0.1c0,0,0.1,0,0.1,0
		c0.2-0.1,0.3-0.3,0.3-0.4c0.3-0.7,0.6-1.4,1-2.2C88.9,48.5,89,48.5,89.2,48.6C89.1,48.5,89.2,48.5,89.2,48.6z M67.7,55
		c0-0.1,0.2-0.2,0.3-0.1c0,0,0,0,0,0c0.7,0.4,1.4,0.8,2.1,1.3c0.3,0.2,0.5,0.1,0.8,0c0,0,0.1,0,0.1,0l3.1,1.6c0.1,0,0.1,0,0.1-0.1
		c0-1,0.3-1.8,0.9-2.6c0-0.1,0-0.1,0-0.1l-7.6-3.8c0,0-0.1,0-0.1-0.1c-0.4-0.7-2.6-0.9-3.3-0.9c-0.1,0-0.1,0-0.1,0.1
		c0.4,1.4,0.9,2.2,2,3.1c0,0,0.1,0.1,0.1,0.1l1.7,5.7c0,0.1,0.1,0.1,0.2,0.1c0.1,0,0.1-0.1,0.1-0.1c0-0.2,0-0.4-0.1-0.6
		c-0.6-1.4-1-2.8-1.3-4.2c0,0,0-0.1,0-0.1c0.1-0.2,0.2-0.1,0.4,0.2c0,0,0,0.1,0,0.1c0.1,0.3,0.2,0.5,0.4,0.7c0.1,0.1,0.1,0.1,0.2,0
		c0,0,0,0,0-0.1L67.7,55z M79.6,64l0.5,1.2c0,0,0.1,0.1,0.1,0.1c1.8,0.3,2.8-0.1,4.1-1.2c0.1,0,0.1-0.1,0.1-0.2l-0.2-1.3
		c0-0.1,0-0.1,0-0.1l1.4-1.2c0,0,0-0.1,0-0.1l-0.1-0.7c0,0,0-0.1,0-0.1l0.4-0.7c0.1-0.1,0-0.3-0.1-0.4c-0.3-0.2-0.7-0.4-0.6-0.9
		c0.2-0.8,0.2-1.7,0-2.5c-0.8-3.5-4.6-3.5-7.3-2.4c-3.4,1.4-4.5,4.7-1.7,7.5c0.3,0.3,0.4,0.6,0.2,1c0,0,0,0.1,0,0.1
		c-0.1,0.5,0.5,0.6,0.9,0.9c0,0,0,0,0,0.1l0.3,0.6c0,0,0.1,0.1,0.1,0.1l1.8,0.1C79.6,63.9,79.6,63.9,79.6,64z M86.2,62.8l0,0.2
		c0,0,0,0.1,0,0.1l0.5,0.3c0,0,0.1,0,0.1,0c0.2-0.2,0.4-0.2,0.7-0.1c1.1,0.6,2.2,1.2,3.3,1.7c0.3,0.2,0.4,0.3,0.3,0.7
		c0,0,0,0.1,0.1,0.1l0.7,0.4c0.1,0,0.1,0,0.1,0l1.1-1.8c0-0.1,0-0.2,0-0.2c-0.3-0.2-0.6-0.4-0.9-0.6c-2-1-4-2-5.9-2.9
		c0,0-0.1,0-0.1,0c0,0,0,0,0,0l0.1,0.5c0,0,0,0.1,0,0.1c-0.1,0.4-0.6,0.6-0.9,0.9c0,0,0,0.1,0,0.1c0,0,0,0,0,0l0.8,0.4
		C86.2,62.7,86.2,62.8,86.2,62.8z M77.5,66.1c0.4,0,0.7-0.3,0.7-0.7c0,0,0-0.1,0-0.1l-0.1-0.1c0,0,0-0.1,0-0.1l0.4-0.6
		c0.1-0.1,0-0.2-0.1-0.2c-0.7-0.1-1.2,0.1-1.4-0.8c0,0,0-0.1-0.1,0c0,0,0,0,0,0c-0.8,1.3-1.8,3.1-3.2,5.6c-0.2,0.4-0.4,0.7-0.6,1
		c-0.1,0.1,0,0.2,0.1,0.3h0l1.9,0.8c0,0,0.1,0,0.1,0l0.4-0.7c0,0,0-0.1,0-0.1c-0.2-0.2-0.3-0.4-0.1-0.7c0.6-1.2,1.2-2.3,1.9-3.5
		C77.4,66.2,77.4,66.1,77.5,66.1z"/>
	<path d="M316.3,61.6c0.1,0,0.1-0.1,0.1-0.2l-2.2-8.6c0-0.1,0-0.1-0.1-0.1c-1-0.2-0.7-1-0.4-1.6c0,0,0-0.1,0-0.1l-1.6-6.3
		c0,0,0,0,0,0l2.7,0.8c0,0,0,0,0,0v0c-0.1-1.2,0.1-2.3,0.5-3.4c0,0,0-0.1,0.1-0.1c0.8,0.2,3.1,2.1,3.1,3.1c0,0,0,0.1,0,0.1l0.9,1.6
		c0.1,0.1,0.1,0.2,0.3,0.2l16,4.8c0,0,0.1,0,0.1,0c0.6-0.3,1.7-0.7,2-1.2c0,0,0.1-0.1,0.1-0.1c1.1-0.4,2.9-0.9,4-0.6
		c0,0,0.1,0.1,0.1,0.1c-0.3,1.1-0.7,2.3-1.5,3.1c0,0,0,0.1,0,0.1c0,0,0,0,0,0l2.9,0.9c0.1,0,0.1,0,0,0.1c-1.6,1.5-3.3,2.9-4.9,4.4
		c-0.3,0.3-0.1,0.5-0.3,0.8c-0.2,0.4-0.5,0.5-1,0.5c0,0-0.1,0-0.1,0l-6.6,6c0,0-0.1,0.1,0,0.2c0.6,1,1.2,2.1,1.8,3.1
		c0.4,0.8,0.8,1.5-0.3,1.9c-0.6,0.2-1.1,0.5-1.7,0.7c-0.2,0.1-0.4,0-0.5-0.2c-0.3-0.4-0.7-1.1-0.3-1.5c0,0,0-0.1,0-0.1l-1.1-2
		c0,0-0.1,0-0.1,0c0,0,0,0,0,0l-8.3,7.5c0,0-0.1,0-0.1,0c0,0,0,0,0,0l-2.8-10.9c0,0-0.1-0.1-0.1-0.1h0c-0.7,0.4-1.4,0.7-2.1,1.1
		c-0.2,0.1-0.2,0.2-0.2,0.4c0,0.5-0.7,0.7-1.1,0.9c-0.2,0.1-0.5,0.1-0.6-0.1c-0.4-0.6-0.8-1.2-1.2-1.8c-0.5-0.8,0.5-1.3,1.1-1.6
		C314.1,62.6,315.2,62.1,316.3,61.6z M314.1,52.3c0.1,0,0.1,0,0.2-0.1v0c0.3-0.7,0.3-1.5,0.5-2.2c0.3-0.9,0.5-1.7,0.8-2.6
		c0-0.1,0.1-0.1,0.2-0.1c0.1,0,0.1,0.1,0.1,0.2l-0.1,1c0,0.1,0.1,0.2,0.2,0.2c0.1,0,0.1,0,0.1,0l0.1-0.1c0.1-0.1,0.2-0.1,0.3,0
		c0,0,0,0,0,0c0.4,0.8,0.7,1.6,1.1,2.3c0.1,0.2,0.3,0.3,0.6,0.3c0,0,0.1,0,0.1,0.1l1.8,3.1c0,0,0.1,0,0.1,0c0.5-0.8,1.2-1.4,2.1-1.7
		c0.1,0,0.1-0.1,0-0.1c-1.4-2.4-2.8-4.8-4.1-7.2c-0.2-0.3-0.1-0.6-0.3-0.9c-0.6-0.7-1.2-1.4-2-1.9c0,0-0.1,0-0.1,0c0,0,0,0,0,0
		c-0.4,1.2-0.5,2.4-0.1,3.6c0,0.1,0,0.2,0,0.3c-0.4,1.4-0.8,2.8-1.3,4.2c-0.1,0.4-0.2,0.7-0.4,1.1C313.9,52,313.9,52.2,314.1,52.3z
		 M338.8,54.3c0.1,0,0.1,0.1,0.1,0.1v0c-0.4,1.5-0.9,3-1.4,4.4c0,0.1,0,0.3,0,0.3c0,0.1,0.1,0.1,0.2,0.1c0.1,0,0.1-0.1,0.1-0.1
		l1.7-5.6c0,0,0-0.1,0.1-0.1c1-0.8,1.7-1.9,2-3.2c0,0,0,0,0,0h0c-1,0.1-2.1,0.3-3,0.6c0,0-0.1,0-0.1,0.1c-0.1,0.2-0.2,0.3-0.4,0.4
		c-2.5,1.2-5,2.5-7.4,3.7c-0.1,0-0.1,0.1,0,0.1c0,0,0,0,0,0c0.6,0.7,0.8,1.6,0.8,2.5c0,0.1,0,0.1,0.1,0.1l3.2-1.6c0,0,0.1,0,0.1,0
		c0.3,0.1,0.5,0.1,0.8-0.1c0.7-0.4,1.3-0.8,2.1-1.2c0.1-0.1,0.2,0,0.3,0.1c0,0,0,0,0,0.1c0,0.1,0.1,0.2,0.2,0.3c0,0,0.1,0,0.1,0l0,0
		c0.2-0.3,0.4-0.7,0.6-1C338.7,54.3,338.7,54.3,338.8,54.3z M325.9,63.9l1.8-0.1c0.1,0,0.2-0.1,0.2-0.2c0.1-0.5,0.4-0.8,0.9-0.9
		c0,0,0.1,0,0.1-0.1c0.5-0.6-0.4-0.9,0.2-1.5c1.3-1.3,2.2-3.3,1.3-5.1c-1.8-3.5-9.8-5-10.3,0.5c-0.1,0.6,0,1.2,0.1,2
		c0.1,0.5-0.5,0.6-0.7,1c0,0,0,0.1,0,0.1l0.4,0.8c0,0,0,0.1,0,0.1l-0.1,0.7c0,0.1,0,0.1,0,0.1l1.4,1.1c0.1,0.1,0.1,0.2,0.1,0.3
		c-0.2,0.4-0.1,0.7-0.3,1.1c0,0,0,0.1,0,0.1c1.3,1.2,2.4,1.5,4.2,1.3c0.1,0,0.1,0,0.1-0.1L325.9,63.9
		C325.8,63.9,325.9,63.9,325.9,63.9z M318.3,63.2l0.4,0.1c0.1,0,0.1,0,0.1,0l0.5-0.3c0,0,0.1-0.1,0-0.1l-0.1-0.1c0-0.1,0-0.1,0-0.1
		l0.7-0.4c0,0,0.1-0.1,0-0.1c0,0,0,0,0,0c-0.4-0.3-1.1-0.7-0.8-1.4c0,0,0-0.1,0-0.1c0,0-0.1,0-0.1,0c-2,1-3.9,2-5.9,2.9
		c-0.3,0.2-0.6,0.3-0.9,0.5c-0.1,0.1-0.1,0.2,0,0.3l1.2,1.8c0,0,0.1,0.1,0.1,0c0.3-0.2,0.8-0.3,0.7-0.7c0,0,0-0.1,0-0.1
		c0.1-0.1,0.1-0.2,0.2-0.3c1.2-0.6,2.3-1.2,3.5-1.9C318.1,63.2,318.2,63.2,318.3,63.2z M327.4,65.9c0.2,0.4,0.5,0,0.7,0.4
		c0.6,1.1,1.2,2.3,1.9,3.4c0.1,0.2,0.1,0.4-0.1,0.6c-0.1,0.1-0.1,0.2-0.1,0.3l0.3,0.6c0,0.1,0.1,0.1,0.1,0.1l1.8-0.8
		c0.1-0.1,0.2-0.2,0.1-0.3c-0.1-0.3-0.3-0.7-0.4-1c-1.1-1.9-2.2-3.8-3.3-5.7c0,0-0.1,0-0.1,0c0,0,0,0,0,0c-0.1,0.3-0.2,0.5-0.5,0.7
		c0,0,0,0,0,0l-0.9,0.1c-0.1,0-0.1,0.1-0.1,0.1l0.4,0.7c0,0,0,0.1,0,0.1l-0.1,0.1c0,0-0.1,0.1,0,0.1
		C327.3,65.6,327.3,65.8,327.4,65.9z"/>
	<path d="M96.3,50.6c0-0.1,0.1-0.2,0.2-0.2l0,0h0.3c0.2,0,0.4,0.2,0.4,0.5l0,0V51c0,0.3-0.2,0.5-0.4,0.5l0,0h-0.3
		c-0.1,0-0.2-0.1-0.2-0.2l0,0V50.6z"/>
	<path d="M95.8,56.3l-0.3-1c0-0.1,0-0.1,0.1-0.1c0.2-0.1,0.4-0.3,0.5-0.5c0,0,0.1-0.1,0.1-0.1c0.9-0.2,1.6,0.6,1.6,1.4
		c0,0.1,0,0.1-0.1,0.1c-0.5,0.2-1.1,0.3-1.7,0.3C95.9,56.4,95.8,56.3,95.8,56.3z"/>
	<ellipse transform="matrix(0.9994 -3.489918e-02 3.489918e-02 0.9994 -1.8028 8.3777)" cx="239.1" cy="55.8" rx="0.5" ry="0.6"/>
	<ellipse transform="matrix(0.8755 -0.4833 0.4833 0.8755 -15.8605 53.0938)" cx="95.1" cy="57.3" rx="0.5" ry="0.6"/>
	<path d="M83.1,58.9C83,58.5,82.8,58,83.4,58c1.3,0,1.1,1.1,0.9,1.9c0,0.1-0.1,0.1-0.1,0.1c-0.5,0-0.9-0.1-1.3-0.3
		c-0.1,0-0.1,0-0.1,0l0.3,0.6c0,0.1,0,0.1-0.1,0.2c0,0-0.1,0-0.1,0c-0.7-0.3-2.1-1.2-1.3-2.2c0,0,0.1-0.1,0.1,0
		C82.2,58.4,82.7,58.6,83.1,58.9C83.1,59,83.2,58.9,83.1,58.9z"/>
	<path d="M322.5,59.7c-0.4,0.2-0.8,0.3-1.2,0.3c-0.1,0-0.2-0.1-0.2-0.2c-0.1-0.5-0.3-1.1,0.1-1.5c0.3-0.3,0.7-0.4,1.2-0.2
		c0,0,0.1,0.1,0.1,0.1l-0.1,0.7c0,0,0,0,0,0c0.4-0.3,0.8-0.5,1.3-0.6c0,0,0.1,0,0.1,0c0.9,0.8-0.7,1.9-1.3,2.2c-0.1,0-0.1,0-0.2-0.1
		c0,0,0,0,0-0.1C322.4,60.2,322.5,60,322.5,59.7C322.6,59.7,322.6,59.6,322.5,59.7z"/>
	<path d="M79.1,60.8c-0.2,0.4-0.5,0.7-0.9,0.9c-0.1,0-0.1,0-0.2,0c-0.7-0.7-1.5-1.7-0.1-2.2c0,0,0.1,0,0.1,0
		c0.2,0.2,0.3,0.4,0.3,0.7c0,0,0,0,0.1,0c0,0,0,0,0,0c0.2-0.4,0.5-0.9,0.8-1.2c0,0,0.1-0.1,0.1,0c1.2,0.4,0.5,1.9,0.1,2.6
		c0,0-0.1,0.1-0.1,0c0,0,0,0,0,0C79.3,61.4,79.2,61.1,79.1,60.8C79.2,60.9,79.2,60.8,79.1,60.8C79.1,60.8,79.1,60.8,79.1,60.8z"/>
	<path d="M326.2,60.8c0,0.3,0,0.6-0.3,0.8c0,0-0.1,0-0.1,0c-0.4-0.8-1.1-2.2,0.1-2.6c0,0,0.1,0,0.1,0c0.3,0.4,0.6,0.8,0.8,1.2
		c0,0.1,0.1,0.1,0.1,0c0.1-0.3,0.2-0.8,0.6-0.6c1.3,0.5,0.4,1.6-0.2,2.1c-0.1,0.1-0.1,0.1-0.2,0C326.8,61.5,326.5,61.2,326.2,60.8
		C326.3,60.8,326.3,60.8,326.2,60.8C326.2,60.8,326.2,60.8,326.2,60.8z"/>
	<path d="M97.2,62c0.1,0.7-1.5,0.9-1.9,0.5c-0.4-0.5-0.1-1.1,0.3-1.5C96.2,60.4,97,61.4,97.2,62z"/>
	<ellipse transform="matrix(0.8973 -0.4415 0.4415 0.8973 -2.8142 111.4157)" cx="238" cy="61.8" rx="1.1" ry="0.9"/>
	<path d="M322.9,62.8c-0.1,0-0.1-0.1-0.1-0.2l0,0c0.5-0.9,1-1.6,1.1-1.6l0,0l0.1,0.1c0.1,0.1-0.2,0.9-0.6,1.8l0,0l0,0
		c0,0.1-0.1,0.1-0.2,0.1L322.9,62.8z"/>
	<path d="M82.2,62.9c-0.1,0-0.1,0-0.1-0.1v0c-0.5-1-0.7-1.8-0.6-1.8l0,0l0.1,0c0.1-0.1,0.6,0.6,1.1,1.6v0c0,0.1,0,0.1-0.1,0.1l0,0
		L82.2,62.9z"/>
	<path d="M81.7,62.7c0.1,0.7-0.8,0.6-0.8,0c0-0.5,0-0.9,0-1.4c0-0.1,0.1-0.1,0.2-0.1c0.1,0,0.1,0,0.1,0.1
		C81.4,61.7,81.6,62.2,81.7,62.7z"/>
	<path d="M323.9,63.2c-0.4-0.4,0.1-1.4,0.3-1.9c0-0.1,0.1-0.1,0.1-0.1c0.1,0,0.2,0.1,0.2,0.2c0,0,0,0,0,0c0,0.5,0.1,1.6-0.4,1.8
		C324.1,63.2,324,63.2,323.9,63.2z"/>
	<ellipse transform="matrix(0.3584 -0.9336 0.9336 0.3584 -1.3382 125.3895)" cx="90.6" cy="63.7" rx="0.2" ry="0.3"/>
	<circle cx="314.9" cy="63.7" r="0.2"/>
	<ellipse transform="matrix(0.373 -0.9278 0.9278 0.373 -2.0855 125.6045)" cx="91.9" cy="64.3" rx="0.2" ry="0.3"/>
	<ellipse transform="matrix(0.91 -0.4147 0.4147 0.91 1.5464 135.8159)" cx="313.5" cy="64.3" rx="0.3" ry="0.2"/>
	<ellipse transform="matrix(0.6794 -0.7337 0.7337 0.6794 -26.1367 76.9057)" cx="74.9" cy="68.4" rx="0.3" ry="0.2"/>
	<circle cx="330.5" cy="68.4" r="0.2"/>
	<ellipse transform="matrix(0.5446 -0.8387 0.8387 0.5446 -24.6414 93.9684)" cx="74.2" cy="69.7" rx="0.3" ry="0.2"/>
	<ellipse transform="matrix(0.8261 -0.5635 0.5635 0.8261 18.3366 198.7723)" cx="331.2" cy="69.7" rx="0.2" ry="0.3"/>
	<path d="M228.8,81.6c-0.3-0.4-0.4-0.8-0.1-1.3c0.4-0.8,2.6-0.5,2.1,0.5C230.4,81.5,229.6,82.5,228.8,81.6z"/>
	<path d="M295.3,85.9c-0.4,0.9-1.8,0.6-1.8-0.4c0,0,0-0.1,0-0.1l0.5-0.9c0,0,0.1-0.1,0.1-0.1h0.8c0.1,0,0.1,0,0.1,0.1
		C295.1,84.8,295.4,85.5,295.3,85.9z"/>
	<path d="M289.9,87.2c-0.1,0-0.3-0.1-0.3-0.2l-0.1-0.3c-0.1-0.3,0.1-0.5,0.4-0.5l0,0c0.3-0.1,0.5,0.1,0.6,0.4l0,0l0.1,0.3
		c0,0.1-0.1,0.3-0.2,0.3l0,0L289.9,87.2z"/>
</g>
</svg>
