<?xml version="1.0" encoding="utf-8"?>
<!-- Generator: Adobe Illustrator 23.0.5, SVG Export Plug-In . SVG Version: 6.00 Build 0)  -->
<svg version="1.1" id="Capa_1" xmlns="http://www.w3.org/2000/svg" xmlns:xlink="http://www.w3.org/1999/xlink" x="0px" y="0px"
	 viewBox="0 0 400 120" style="enable-background:new 0 0 400 120;" xml:space="preserve">
<style type="text/css">
	.st0{fill:#050505;}
</style>
<g>
	<path class="st0" d="M146,53.8c0.8,0.1,1.6,0,2.5-0.4c0.1,0,0.1-0.1,0.2-0.2c0.4-1.2,0.6-2.1,0.6-2.9c0-11.4-0.2-22.8-0.3-34.2
		c0-0.9,0.3-1.2,1.1-1.6c1.9-0.9,3.7-1.8,5.6-2.7c0.1-0.1,0.2,0,0.3,0.1c0,0,0,0.1,0,0.1c0.4,13.2,0.6,26.5,0.8,39.8
		c0,0.8,2.4,1.7,3,2c1.2,0.4,2.4-1,3.2,0.7c0.1,0.1,0,0.2,0,0.3c-2,2.2-4.2,4.1-6.6,5.9c-0.1,0.1-0.3,0.1-0.4,0
		c-2.6-2-4.9-3.5-8-4.6c-0.2-0.1-0.3-0.1-0.5-0.1c-0.2,0-0.4,0.1-0.4,0.1c-1.4,1.1-2.9,2.2-4.3,3.3c-1.2,0.9-1.7,1.3-2.9,0.4
		c-1.3-1-2.6-2-3.9-3c-0.4-0.3-0.8-0.3-1.2,0c-1.5,1-3.1,2.1-4.6,3.2c-0.6,0.5-1.5,0.5-2.4,0.1c-2.8-1.3-5.7-2.5-8.5-3.8
		c-0.1-0.1-0.1-0.2-0.1-0.3c0,0,0-0.1,0-0.1c1-1,1.6-2,1.7-3.5c0.3-6.5,0.3-13,0-19.3c-0.1-0.8,0.1-1.3,0.9-1.6
		c2.4-1.3,5.1-2.5,7.2-4.1c1.1-0.8,2.1-1.6,3-2.5c0.1-0.1,0.4-0.2,0.6-0.1l12.3,7.6c0.1,0.1,0.1,0.2,0.1,0.3l0,0
		c-0.8,1.2-1.8,2.4-1.7,4c0.1,5,0.2,9.9,0.3,14.9C143.1,52.7,145.2,53.7,146,53.8z M134.9,36.2c-2-1.5-4.2-2.7-6.5-3.7
		c-0.1,0-0.1,0-0.1,0.1c0,6,0.1,12.1,0.1,18.1c0,1,0.4,1.8,1.2,2.2c0.8,0.5,2.5,1.3,3.6,1c0.9-0.3,2.4-1.2,2.5-2.1c0-2,0-6.8,0-14.4
		C135.6,37,135.4,36.6,134.9,36.2z"/>
	<path class="st0" d="M110.2,52.5c3.6-4.1,1.2-7.9-2.9-10c-5.5-2.8-9.1-4.6-10.6-5.4c-1.8-0.9-3.3-2-4.6-3.3
		c-2.8-2.8-1.7-5.3-0.3-8.4c2-4.6,5.2-9.1,8.1-12.8c1.4-1.9,5.2,1.3,6.9,1.8c3.8,1.2,7.4,0.5,10.7-1.9c0.1,0,0.1,0,0.2,0
		c0,0,0,0,0,0.1c0.3,3.2-2.3,6.4-4.7,8.2c-4.5,3.4-10.1,2.5-14.2-0.8c-0.1-0.1-0.2-0.1-0.3,0c-1.4,1.2-2,2.7-1.6,4.3
		c0.9,4.3,6.1,5.6,9.5,7c4.7,1.8,9.9,5.7,10.3,11c0.1,1.5-0.2,3.3-0.9,5.5c-1.6,4.9-4.3,9.1-8,12.4c-1,0.8-4.2-1.3-5.2-1.7
		c-3.7-1.7-10.1-2.7-12.9,1c-0.4,0.5-0.8,0.8-1.4,1c-0.3,0.1-0.4,0-0.3-0.3c1-3,2.9-6.5,5-8.4c4.5-4.2,12-1.6,17,0.7
		C110,52.6,110.1,52.6,110.2,52.5z"/>
	<path class="st0" d="M162.7,25.6c-1-4.5,3.4-8.3,7-10.1c0.1,0,0.2,0,0.2,0l0.6,0.5c0.1,0.1,0.1,0.2,0,0.3l0,0
		c-2.7,2.6-4.1,4.9-1.1,8.2c1.2,1.3,2.3,2.7,3.3,4.2c0.1,0.1,0.1,0.2,0.1,0.3c-0.1,0.3-0.2,0.5-0.4,0.7c-0.1,0.1-0.1,0.1-0.1,0.3
		l-0.1,16.8c0,0.4,0.2,0.7,0.6,0.9l7,3.2c0.1,0.1,0.3,0,0.3-0.1c0,0,0-0.1,0-0.1c-0.1-6.3,0-12.6,0.1-18.9c0-1.5-1.4-2.7-2.3-3.8
		c-0.1-0.1-0.1-0.1,0-0.2c1.3-1,2.7-2,4.1-3c0.4-0.3,0.9-0.2,1.2,0c1.5,1.3,3,2.8,4.5,4.6c1.5,1.7,0.6,2.1,0.6,4
		c0,6.3-0.1,12.6-0.2,19c0,1.5,0.3,2.4-1.4,3c-3.4,1.2-6.5,3-9.3,5.4c-0.1,0.1-0.1,0.1-0.3,0.1c-0.5,0.1-0.9,0-1.1-0.2
		c-3.5-3.1-7.5-4.9-12.2-5.4c-0.1,0-0.1-0.1-0.1-0.2c0.8-1.5,1.7-1.5,1.9-3.6c0.6-5.9,0.4-12.1,0.1-18c0-0.5-0.1-0.9-0.3-1.3
		C164.4,29.8,163.3,28.2,162.7,25.6z"/>
	<path class="st0" d="M235.9,25.8c0.1,0,0.1,0,0.2,0c0.1,0,0.1,0.1,0.1,0.2v3.8c0,0.1-0.1,0.2-0.2,0.2l-4.9,0c-0.6,0-1,0.4-1,1
		c0,6.7,0,13.4,0,20.1c0,2.1,2.8,2.9,4.5,2.4c0.8-0.2,1.3,0.1,1.6,0.8c0,0.1,0,0.1,0,0.2c-1,1.1-5.4,5.6-6.7,5.7
		c-0.3,0-0.5,0-0.6-0.1c-2.6-2-5.3-3.5-8.3-4.7c-0.5-0.2-1-0.1-1.4,0.2c-1.9,1.5-3.7,2.9-5.6,4.3c-0.4,0.3-0.9,0.3-1.3,0
		c-1.5-1.1-3-2.2-4.5-3.5c-0.6-0.4-1-0.1-1.5,0.3c-1.4,0.9-2.8,1.9-4.1,2.9c-0.8,0.6-2,0.4-3,0c-2.7-1.2-5.4-2.4-8.1-3.6
		c-0.1,0-0.1-0.1-0.1-0.2c0.4-1.2,1.4-1.5,1.6-2.9c0.7-6.6,0-14.5,0.1-20.2c0-0.8,0.6-1.4,1.3-1.7c3.9-2,7-3.6,9.8-6.4
		c0.1-0.1,0.4-0.2,0.6-0.1l12.2,7.6c0.1,0.1,0.2,0.3,0.1,0.4c0,0,0,0,0,0c-1,1.3-1.5,2.8-1.5,4.5c0.1,4.7,0.2,9.3,0.2,14
		c0,0.8,0.4,1.4,1.3,1.9c1.7,0.9,3.1,0.7,4.8,0.1c0.2-0.1,0.4-0.3,0.4-0.5c0.5-2.9,0.8-5.7,0.9-8.7c0.1-3.8,0-7.7-0.1-11.5
		c0-1.2-2.4-2.2-3.3-2.9c-0.1-0.1-0.1-0.1,0-0.2c3.3-4.8,6.9-9.3,10.8-13.7c0.1-0.1,0.2-0.1,0.3,0c0,0,0.1,0.1,0.1,0.1v9.9
		c0,0.1,0.1,0.3,0.3,0.3c0,0,0,0,0,0c1.7-0.1,3.4-0.1,5.1-0.1C235.8,25.9,235.9,25.9,235.9,25.8z M200.5,32.4
		c-0.1,1-0.1,1.9-0.1,2.8c0.2,5.1,0.3,10.2,0.3,15.3c0,1.9,1.4,2.9,3.1,3.4c1.6,0.5,3.1-0.1,4-1.4c0.1-0.1,0.1-0.2,0.1-0.3V37.3
		c0-0.4-0.2-0.8-0.6-1l-6.6-4C200.6,32.3,200.5,32.3,200.5,32.4C200.5,32.4,200.5,32.4,200.5,32.4z"/>
	<path class="st0" d="M291.1,44.6c0.1-5.1,0.1-8.5-0.1-10.3c-0.1-1.5-0.9-2.6-2.3-3.2c-0.4-0.2-0.4-0.3,0-0.5l13.4-6.7
		c0.1-0.1,0.2,0,0.2,0l9.7,10.2c0.1,0.1,0.1,0.1,0,0.2l-13.2,11.8c-0.2,0.2-0.4,0.5-0.4,0.8c-0.1,1.8-0.1,3.6-0.1,5.4
		c0,0.8,0.2,1.1,0.9,1.4c1.3,0.6,3.1,1.6,4.2,1c1.7-1,3.4-2,5.1-3.1c0.1-0.1,0.2,0,0.3,0l1.3,1.6c0.1,0.1,0.1,0.1,0,0.2
		c-3,2.6-6.2,4.9-9.6,7c-0.2,0.1-0.4,0.1-0.6,0L289,56c-0.1-0.1-0.2-0.2-0.1-0.3c0,0,0-0.1,0.1-0.1l1.7-1.9c0,0,0.1-0.1,0.1-0.1
		C290.9,50.7,291.1,47.7,291.1,44.6z M298.6,41.8L304,37c0.1-0.1,0.1-0.1,0-0.2l-5.3-5.6c-0.1-0.1-0.1-0.1-0.1,0.1L298.6,41.8
		C298.5,41.8,298.6,41.8,298.6,41.8z"/>
	<path class="st0" d="M277,29.1l6.1-5c0.1-0.1,0.2-0.1,0.3,0c1.9,2,3.3,4.5,3.3,7.4c0,2.7-4.4,5.6-6.5,6.9c-0.1,0-0.1,0-0.1,0
		c0,0,0-0.1,0-0.1c0.5-2.6,1.1-5.3-0.5-7.7c-0.1-0.2-0.3-0.3-0.5-0.2c-2.1,0.8-2.6,2.3-2.6,4.5c-0.1,7.4-0.2,12.7-0.3,15.8
		c-0.1,2.1,1.5,2.8,2.9,3.9c0.1,0.1,0.3,0.1,0.4,0l2.5-1.9c0.1-0.1,0.2-0.1,0.3,0l0,0l0.6,1c0.1,0.1,0,0.1,0,0.2l-7.1,6.3
		c-0.1,0.1-0.3,0.1-0.4,0l-9.1-5.5c-0.1-0.1-0.1-0.2-0.1-0.3c0,0,0,0,0,0c0.8-0.7,1.9-1.7,2-2.8c0.6-6.5,0.7-12.9,0.3-19.4
		c-0.1-0.9-0.4-1.6-0.8-2.3c-0.2-0.3-0.6-0.4-0.9-0.3c0,0-0.1,0-0.1,0l-0.9,0.7c-0.1,0.1-0.2,0.1-0.2,0l-0.8-0.9
		c-0.1-0.1-0.1-0.2,0-0.3l0,0l6.2-5c0.3-0.3,0.8-0.3,1.1,0c1.8,1.3,3.2,3.1,4.6,4.8C276.9,29.2,276.9,29.2,277,29.1z"/>
	<path class="st0" d="M239.9,31.9c0-0.6,0.2-1,0.6-1.4c0-0.1,0.1-0.1,0.1-0.1c3.4-1.4,6.3-3.2,8.9-5.2c0.3-0.3,0.7-0.3,1-0.2
		c3.5,2,7.2,3.6,10.9,4.9c0.4,0.1,0.6,0.5,0.6,0.9c-0.1,7.9-0.3,14.7-0.1,23.7c0,0.6-0.4,1-1,1.3c-3,1.5-6.2,2.8-8.9,4.7
		c-0.3,0.2-0.7,0.2-1,0.1c-3.9-1.9-7.9-4.5-12.4-4.9c-0.3,0-0.5-0.3-0.5-0.6c0,0,0-0.1,0-0.1c0.4-1.3,1.5-1.6,1.5-3.3
		C239.8,45,239.9,38.4,239.9,31.9z M254,33.5l-6.5-2.6c-0.1-0.1-0.2,0-0.2,0.1v20.1c0,0.4,0.3,0.7,0.6,0.9l6.3,2.4
		c0.1,0.1,0.2,0,0.2-0.1l0-20.1C254.4,33.8,254.3,33.6,254,33.5z"/>
	<path class="st0" d="M99.7,70.7c4.2-5,9.5-8.6,15.9-10.2c2.6-0.7,4.6-0.4,6.8,1c1.8,1.1,3.7,2.2,5.5,3.3c2.5,1.4,4.8,1.4,7-0.1
		c0.1-0.1,0.2,0,0.3,0l0.6,0.6c0.1,0.1,0.1,0.1,0,0.2c-4.7,3.9-10.7,7.5-16.4,3.7c-1.9-1.2-3.8-2.3-5.9-3.2
		c-0.8-0.3-1.6-0.3-2.3,0.1c-5.6,2.9-8.2,7.7-8.8,13.8c-0.8,8.5,2.3,15.3,9.4,20.4c2.2,1.6,4.6,2.3,7.2,2.3c2.3-0.1,5.9-0.8,7.3-2.9
		c1.1-1.5,1-3.5,0.7-5.4c-0.3-1.8-1.2-3.3-2.6-4.5c-0.1-0.1-0.2-0.1-0.3-0.1c-2.6,0.4-4-0.5-6.1-1.8c-1.9-1.2-3.7,1-5.2,2
		c-0.1,0-0.1,0-0.2,0c0,0,0-0.1,0-0.1c0.4-2.3,1.5-4.2,3.3-5.8c2.1-1.8,4.7-3.5,7.3-2.5c2,0.8,3.8,1.7,6.1,1.6
		c0.8,0,2.1-0.3,3.7-0.7c0.8-0.2,1.3-0.1,1.6,0.6c0.1,0.1,0,0.2-0.1,0.2l-1.3,1c-0.1,0.1-0.1,0.2,0,0.2l0.1,0.1
		c0.1,0,0.1,0.1,0.2,0.2c1.3,3.6,2.4,6.1,0.6,10c-3.7,8.1-10.6,11.5-18.7,13.7c-3.8,1-7.9-0.2-11-2.4C92.9,98,90.3,81.7,99.7,70.7z"
		/>
	<path class="st0" d="M272.9,66.2l4.5-4.4c0,0,0.1,0,0.1,0l4.3,4.4c0,0,0,0.1,0,0.1l-4.5,4.4c0,0-0.1,0-0.1,0l-4.3-4.4
		C272.9,66.3,272.9,66.2,272.9,66.2z"/>
	<path class="st0" d="M185.7,82.2c0-1-2.8-2.9-3.6-3.6c-0.1-0.1-0.2-0.1-0.3,0l-3.5,2.9c-0.1,0.1-0.1,0.1-0.1,0.2
		c0,6.2-0.1,12.4,0,18.6c0,1.2,1.2,2.5,1.9,3.2c0.3,0.3,0.3,0.8-0.1,1c0,0,0,0-0.1,0.1l-5.2,4c-0.2,0.2-0.6,0.2-0.8,0l-5.6-4.6
		c-0.1-0.1-0.1-0.1,0-0.2l0,0c0.8-0.8,2.6-2.2,2.6-3.5c0-6.5-0.1-13.1-0.2-19.6c0-1-0.5-1.7-1-2.6c-0.1-0.1-0.1-0.1-0.2-0.1
		l-1.6,0.7c-0.1,0-0.2,0-0.3-0.1l-0.7-0.8c-0.1-0.1-0.1-0.2,0-0.3l6.2-4.9c0.1-0.1,0.2-0.1,0.3-0.1c2.1,0.1,4.4,3.3,5.2,5
		c0,0.1,0.1,0.1,0.2,0.1h0c2.1-1.6,4.2-3.2,6.3-4.9c1.6-1.4,4,1,5.6,2.5c2.1,2,2.5,3.6,2.5,6.6c0,6,0,12,0.1,18
		c0,1.2,0.3,1.8,1.2,2.6c0.6,0.5,1.2,0.1,1.9-0.4c0.1-0.1,0.1-0.1,0.2,0l1,1c0.1,0.1,0.1,0.1,0,0.2l-7,5.7c-0.1,0.1-0.4,0.1-0.5,0
		c-1-1-4.7-4.5-4.7-5.8C185.8,96.1,185.9,89.1,185.7,82.2z"/>
	<path class="st0" d="M150.5,72.8l12.2,7.7c0.1,0.1,0.2,0.3,0.1,0.4c0,0,0,0,0,0c-1.8,2.2-1.6,4.1-1.5,7.4c0.1,3.8,0.1,7.5,0.2,11.3
		c0,0.9,1.3,1.7,2,2c1,0.4,2.4,0.3,3.5,0.3c0.1,0,0.1,0.1,0.1,0.1c0,0,0,0.1,0,0.1c-1.9,1.7-3.9,3.3-5.9,5.1
		c-1.6,1.3-1.8,1.7-3.6,0.4c-1.2-0.9-2.4-1.8-3.5-2.7c-0.4-0.3-0.9-0.3-1.3-0.1c-1.3,0.9-2.6,1.8-3.9,2.8c-1.1,0.8-2.1,1-3.3,0.4
		c-2.6-1.2-5.3-2.4-7.9-3.5c-0.1,0-0.1-0.1-0.2-0.2c-0.2-0.4-0.2-0.8,0.1-1.1c0.8-0.8,1.2-1.1,1.3-2.4c0.3-6.7,0.3-13.5,0-20.2
		c0-0.4,0.2-0.6,0.6-0.9c1.3-0.8,2.6-1.5,3.9-2.1c2.6-1.3,4.7-2.9,6.8-4.9C150.4,72.7,150.5,72.7,150.5,72.8z M153.4,84.4
		c-2.1-1.3-4.3-2.6-6.4-3.9c-0.1-0.1-0.2,0-0.3,0.1c0,0,0,0.1,0,0.1c0.1,5.9,0.2,11.8,0.2,17.7c0,1.5,0.2,1.9,1.3,2.8
		c1.9,1.3,3.6,1.4,5.2,0c0.4-0.3,0.6-0.9,0.6-1.4c0-4.7,0-9.3,0-14C154,85.1,153.8,84.7,153.4,84.4z"/>
	<path class="st0" d="M200.1,104.6c-0.4-0.2-0.6-0.5-0.5-1c0-0.1,0.1-0.2,0.1-0.2c0.7-0.5,1.1-1.2,1.2-1.9c0.1-0.8,0.2-2.8,0.3-5.8
		c0.1-5-0.3-10.1-0.2-15c0-0.4,0.2-0.8,0.6-1c3.8-1.9,7.6-3.8,10.6-6.9c0.1-0.1,0.2-0.1,0.3,0l12.4,7.9c0.1,0.1,0.1,0.2,0.1,0.2
		c0,0,0,0,0,0c-1.3,1.4-1.7,2.9-1.7,4.9c0.1,4.5,0.1,9.1,0.2,13.7c0,1.2,1.3,1.9,2.2,2.2c1,0.4,2.3,0.2,3.5,0.3
		c0.2,0,0.2,0.1,0.1,0.2c-2.6,2.2-4.9,4.2-7.1,6c-0.9,0.7-1.5,0.2-2.3-0.4c-1.3-1-2.5-1.9-3.5-2.7c-0.6-0.5-1-0.4-1.6,0
		c-1.5,1-2.9,2-4.3,3c-0.8,0.6-1.9,0.3-2.9-0.1C205,106.8,202.5,105.7,200.1,104.6z M209.4,100.7l3.6,1.7c0.1,0,0.1,0,0.2,0
		c0.8-0.4,1.6-0.8,2.3-1.3c0.4-0.3,0.6-0.5,0.6-0.8c0-4.9,0-9.9,0-14.9c0-0.4-0.2-0.8-0.6-1l-6.4-3.9c-0.2-0.1-0.3-0.1-0.3,0.2
		l0.1,19.3C208.9,100.3,209.1,100.6,209.4,100.7z"/>
	<path class="st0" d="M281.8,102.2c0.1,0.3,0.4,0.5,0.8,0.4c0.1,0,0.1-0.1,0.2-0.1l1.8-1.3c0.1-0.1,0.1,0,0.2,0.1
		c0.4,0.8,0.9,1.3,1.7,1.7c0.1,0.1,0.1,0.1,0,0.2l-6.7,5.6c-0.3,0.3-0.8,0.3-1.1,0l-6.6-5.7c-0.1-0.1-0.1-0.1,0-0.2
		c2.5-1.6,2.3-4.2,2.2-6.8c-0.1-5.5-0.3-10.8-0.4-16.1c0-0.4-0.2-0.8-0.5-1.2l-1.5-1.4c-0.1-0.1-0.1-0.2,0-0.3l5.3-4.3
		c0.1-0.1,0.2-0.1,0.3,0l6,4.3c0.1,0.1,0.1,0.1,0,0.2c0,0,0,0,0,0c-2.3,2.2-2.1,4.3-2,7.9c0.1,4.6,0.1,9.1,0.1,13.7
		C281.6,100,281.5,101.2,281.8,102.2z"/>
	<path class="st0" d="M259.9,80c-0.3-0.1-0.4,0-0.4,0.3l0.2,20.2c0,0.3,0.1,0.4,0.4,0.6l3.3,1.5c0.4,0.2,0.9,0.1,1.3-0.1l2.6-1.8
		c0.1-0.1,0.2-0.1,0.3,0l1.8,1.9c0.1,0.1,0.1,0.2,0,0.3l-7.3,5.6c-0.3,0.2-0.7,0.3-1,0.1c-3.5-1.8-7.1-2.9-11-3.5
		c-0.1,0-0.1-0.1-0.1-0.2l1.9-2.9c0.1-0.1,0.1-0.2,0.1-0.3c0-5.6-0.1-11.2-0.1-16.8c0-1.2-0.1-2.1-0.2-2.7c-0.3-1.6-1.8-1.5-3-2
		c-0.1,0-0.1-0.1-0.1-0.2c0,0,0.1-0.1,0.1-0.1c4.2-1.7,7.9-4,11.3-7C260,73,260,73,260.1,73c0.3,0,0.5,0,0.7,0.1
		c2.3,1.1,4.7,2.3,7.4,3.6c0.3,0.2,0.5,0.6,0.3,1c0,0,0,0.1-0.1,0.1l-2.8,4.3c-0.2,0.3-0.5,0.4-0.8,0.3L259.9,80z"/>
	<path class="st0" d="M229.8,105.2c-0.1,0-0.1-0.1-0.1-0.1c0,0,0,0,0-0.1l2-2.9c0.1-0.1,0.1-0.2,0.1-0.3c-0.1-6.3-0.2-12.7-0.3-19
		c0-1.7-1.7-1.9-2.9-2.3c-0.1,0-0.1-0.1-0.1-0.2c0-0.1,0.1-0.1,0.1-0.1c4.1-1.7,7.7-4,11.2-6.9c0.3-0.2,0.6-0.3,1-0.1l7.5,3.6
		c0.3,0.2,0.5,0.6,0.3,0.9c0,0,0,0.1-0.1,0.1l-2.8,4.4c-0.2,0.3-0.5,0.4-0.8,0.3l-4.9-2.2c-0.3-0.1-0.5-0.1-0.5,0.3l0.2,20
		c0,0.3,0.2,0.6,0.4,0.7l3.2,1.6c0.3,0.2,0.8,0.1,1.1-0.1l2.7-1.9c0.1-0.1,0.2-0.1,0.3,0l1.8,2c0.1,0.1,0.1,0.2,0,0.2l-7.4,5.7
		c-0.2,0.2-0.5,0.2-0.8,0.1C237.4,106.9,233.7,105.7,229.8,105.2z"/>
	<path class="st0" d="M291.9,88.9l6.9-6.7c0,0,0.1,0,0.1,0l6.8,7c0,0,0,0.1,0,0.1l-6.9,6.7c0,0-0.1,0-0.1,0l-6.8-7
		C291.9,89,291.9,89,291.9,88.9z"/>
</g>
</svg>
